<svg width="100" height="100" viewBox="0 0 100 100" fill="none" xmlns="http://www.w3.org/2000/svg">
<path d="M50.3342 98.5902C23.2878 98.5902 1.28906 76.5813 1.28906 49.5451C1.28906 22.509 23.2981 0.5 50.3342 0.5C77.3703 0.5 99.3793 22.509 99.3793 49.5451C99.3793 76.5812 77.3703 98.5902 50.3342 98.5902ZM50.3342 2.79952C24.5569 2.79952 3.58865 23.7678 3.58865 49.5451C3.58865 75.3224 24.5569 96.2906 50.3342 96.2906C76.1115 96.2906 97.0798 75.3224 97.0798 49.5451C97.0798 23.7678 76.1115 2.79952 50.3342 2.79952Z" fill="white" stroke="black"/>
<path d="M68.0313 29.5293L82.6625 14.8981L84.973 17.2086L70.3418 31.8398L68.0313 29.5293Z" fill="white" stroke="black"/>
<path d="M15.2343 82.3281L29.8655 67.697L32.176 70.0075L17.5448 84.6386L15.2343 82.3281Z" fill="white" stroke="black"/>
<path d="M68.4962 70.0046L70.8067 67.6942L85.4378 82.3253L83.1273 84.6358L68.4962 70.0046Z" fill="white" stroke="black"/>
<path d="M15.246 16.7437L17.5565 14.4332L32.1803 29.057L29.8698 31.3675L15.246 16.7437Z" fill="white" stroke="black"/>
<path d="M62.0765 50.5239L61.8579 50.7425L61.8683 50.7737L60.9419 51.7001L60.9401 51.7019C60.1479 52.5024 58.8527 52.5051 58.0477 51.7001L57.6941 52.0536L58.0477 51.7001L56.8555 50.508L57.9491 49.4144L58.6208 50.0861C59.0971 50.5624 59.882 50.5624 60.3583 50.0861L60.3584 50.086L60.4728 49.9716C60.4728 49.9716 60.4729 49.9715 60.4729 49.9715C60.9491 49.4952 60.9491 48.7103 60.4728 48.234L59.7546 47.5158C59.0702 46.8314 57.9625 46.8314 57.278 47.5158L53.0854 51.7086C53.085 51.7089 53.0847 51.7092 53.0844 51.7095C52.4194 52.3663 51.3955 52.441 50.6554 51.9408L54.0195 48.5768L54.0355 48.5608L54.05 48.5434C54.2408 48.3145 54.2826 47.9351 54.0195 47.6719L53.6865 47.3389L53.6864 47.3389C53.002 46.6544 51.8943 46.6544 51.2099 47.3389L46.8714 51.6773C46.871 51.6777 46.8707 51.678 46.8704 51.6783C46.2054 52.3351 45.1816 52.4098 44.4415 51.9096L47.9409 48.4103C48.1986 48.1526 48.1986 47.7423 47.9409 47.4846L47.6078 47.1515C46.9233 46.467 45.8156 46.467 45.1312 47.1515L45.4847 47.5051L45.1312 47.1515L40.6045 51.6782C39.9395 52.3351 38.9156 52.4098 38.1755 51.9096L44.9223 45.1628L44.9223 45.1628L44.9242 45.1609C45.7161 44.3607 47.0109 44.3578 47.816 45.1621C47.8162 45.1623 47.8164 45.1626 47.8166 45.1628L49.1372 46.4937L49.4923 46.8517L49.8472 46.4935L50.9922 45.3381L50.9924 45.3379C51.7845 44.5374 53.0799 44.5348 53.8849 45.3397L55.2067 46.6616L55.5603 47.0152L55.9138 46.6616L57.0588 45.5167L57.0607 45.5148C57.8528 44.7144 59.1481 44.7117 59.9531 45.5167L59.9539 45.5176L62.0773 47.6305L62.0783 47.6315C62.8788 48.4236 62.8815 49.7189 62.0765 50.5239Z" fill="white" stroke="black"/>
<path d="M51.9151 22.7746L51.3861 22.7439V23.2737V31.0282V31.4879L51.8443 31.5264C55.7034 31.8505 59.2174 33.3797 62.0028 35.7397L62.354 36.0373L62.6795 35.7117L68.1649 30.2264L68.54 29.8513L68.1434 29.499C63.7743 25.6177 58.1312 23.1352 51.9151 22.7746ZM49.2947 23.2737V22.7439L48.7658 22.7746C42.5497 23.1352 36.9066 25.6177 32.5375 29.499L32.1409 29.8513L32.516 30.2264L38.0014 35.7117L38.3269 36.0373L38.6781 35.7397C41.4642 33.3791 44.978 31.8404 48.8353 31.5265L49.2947 31.4891V31.0282V23.2737ZM31.0373 31.7051L30.6622 31.33L30.31 31.7266C26.4287 36.0956 23.9462 41.7388 23.5855 47.9549L23.5548 48.4839H24.0847H31.8391H32.2989L32.3373 48.0257C32.6615 44.1666 34.1906 40.6525 36.5506 37.8672L36.8481 37.516L36.5226 37.1904L31.0373 31.7051ZM24.0847 50.5752H23.5548L23.5855 51.1042C23.9462 57.3203 26.4287 62.9634 30.31 67.3325L30.6622 67.729L31.0373 67.354L36.5226 61.8686L36.8481 61.5431L36.5506 61.1919C34.19 58.4058 32.6513 54.892 32.3375 51.0347L32.3001 50.5752H31.8391H24.0847ZM48.7658 76.2845L49.2947 76.3152V75.7853V68.0309V67.5711L48.8366 67.5326C44.9775 67.2085 41.4635 65.6793 38.6781 63.3194L38.3269 63.0218L38.0014 63.3473L32.516 68.8327L32.1409 69.2077L32.5375 69.56C36.9066 73.4413 42.5497 75.9238 48.7658 76.2845ZM51.3861 75.7853V76.3152L51.9151 76.2845C58.1312 75.9238 63.7743 73.4413 68.1434 69.56L68.54 69.2077L68.1649 68.8327L62.6795 63.3473L62.354 63.0218L62.0028 63.3194C59.2167 65.6799 55.7029 67.2187 51.8456 67.5325L51.3861 67.5699V68.0309V75.7853ZM69.6436 67.354L70.0187 67.729L70.3709 67.3325C74.2522 62.9634 76.7347 57.3203 77.0954 51.1042L77.1261 50.5752H76.5962H68.8418H68.382L68.3435 51.0334C68.0194 54.8924 66.4903 58.4066 64.1303 61.1919L63.8327 61.5431L64.1583 61.8686L69.6436 67.354ZM68.3434 48.0244L68.3808 48.4839H68.8418H76.5962H77.1261L77.0954 47.9549C76.7347 41.7388 74.2522 36.0956 70.3709 31.7266L70.0187 31.33L69.6436 31.7051L64.1583 37.1904L63.8327 37.516L64.1303 37.8672C66.4909 40.6532 68.0296 44.1671 68.3434 48.0244ZM12.8438 49.5347C12.8438 28.8271 29.6276 12.0432 50.3353 12.0432C71.0429 12.0432 87.8268 28.8271 87.8268 49.5347C87.8268 70.2424 71.0429 87.0262 50.3353 87.0262C29.6276 87.0262 12.8438 70.2424 12.8438 49.5347ZM50.3353 33.0575C41.243 33.0575 33.8684 40.4321 33.8684 49.5243C33.8684 58.6166 41.243 65.9912 50.3353 65.9912C59.4275 65.9912 66.8021 58.6166 66.8021 49.5243C66.8021 40.4321 59.4275 33.0575 50.3353 33.0575Z" fill="white" stroke="black"/>
</svg>
