<svg width="100" height="100" viewBox="0 0 100 100" fill="none" xmlns="http://www.w3.org/2000/svg">
<path d="M17.5866 17.0209L17.5864 17.0211C-0.501331 35.1088 -0.501331 64.5383 17.5864 82.626L17.7328 82.7725H17.7439C35.8437 100.714 65.163 100.665 83.2017 82.626C101.289 64.5383 101.289 35.1088 83.2017 17.0211C74.4375 8.25684 62.7879 3.43708 50.3941 3.43708C38 3.43708 26.3506 8.26742 17.5866 17.0209ZM50.4045 98.8739C37.8327 98.8739 25.2735 94.0929 15.7017 84.5211C-3.43183 65.3875 -3.43183 34.2596 15.7017 15.1261C24.9757 5.8521 37.2972 0.752441 50.4045 0.752441C63.5117 0.752441 75.8332 5.8521 85.1072 15.1261C104.241 34.2596 104.241 65.3875 85.1072 84.5211C75.5457 94.0825 62.9762 98.8739 50.4045 98.8739Z" fill="#7DDACF" stroke="black"/>
<path d="M49.0647 52.2542V51.7542H48.5647H44.0296L51.739 40.9506V48.5799V49.0799H52.239H56.7737L49.0647 59.8742V52.2542Z" fill="#7DDACF" stroke="black"/>
<path d="M32.6797 50.4534C32.6797 40.6748 40.6162 32.7383 50.3948 32.7383C60.173 32.7383 68.1099 40.6952 68.1099 50.4534C68.1099 60.2108 60.1738 68.1477 50.3948 68.1477C40.6155 68.1477 32.6797 60.2312 32.6797 50.4534ZM33.9072 50.4118C33.9072 59.5144 41.2921 66.8994 50.3948 66.8994C59.4975 66.8994 66.8825 59.5144 66.8825 50.4118C66.8825 41.3091 59.4975 33.9241 50.3948 33.9241C41.2921 33.9241 33.9072 41.3091 33.9072 50.4118Z" fill="#7DDACF" stroke="black"/>
<path d="M78.198 22.0269L78.1981 22.027C93.5223 37.3615 93.5222 62.3067 78.1982 77.6307C70.5311 85.2978 60.47 89.1315 50.3964 89.1315C40.3228 89.1315 30.2618 85.2978 22.5947 77.6308C7.27045 62.2963 7.27062 37.3511 22.5946 22.0271C30.0264 14.6057 39.8916 10.5159 50.3964 10.5159C60.9018 10.5159 70.7771 14.5957 78.198 22.0269ZM53.1342 25.3932V24.3073H54.6744C56.7512 24.3073 58.4635 22.595 58.4635 20.5182V18.8008C58.4635 16.7011 56.7491 15.0117 54.6744 15.0117H46.1393C44.0645 15.0117 42.3501 16.701 42.3501 18.8008V20.5182C42.3501 22.5951 44.0624 24.3073 46.1393 24.3073H47.6793V25.3924C42.7684 25.9024 38.2586 27.863 34.6084 30.8045L31.9103 28.1064L31.9082 28.1043C30.843 27.0518 29.1211 27.0323 28.0577 28.1086C27.0025 29.1765 26.9994 30.8966 28.0598 31.9569L30.7588 34.6559C27.2799 38.9974 25.1967 44.4892 25.1967 50.4638C25.1967 64.3545 36.5057 75.6636 50.3964 75.6636H50.4172C64.3078 75.6636 75.6169 64.3545 75.6169 50.4638C75.6169 44.479 73.5336 38.9967 70.0548 34.6559L72.7538 31.9569L72.7559 31.9548C73.8111 30.8869 73.8141 29.1668 72.7538 28.1064L72.7517 28.1043C71.6837 27.0491 69.9636 27.0461 68.9033 28.1065L66.2047 30.805C62.555 27.8728 58.0541 25.9123 53.1342 25.3932Z" fill="#7DDACF" stroke="black"/>
</svg>
