<svg width="100" height="222" viewBox="0 0 100 222" fill="none" xmlns="http://www.w3.org/2000/svg">
<path d="M0.835938 50.4281C0.835938 23.3815 22.845 1.37256 49.8915 1.37256C76.938 1.37256 98.947 23.3815 98.947 50.4281C98.947 77.4746 76.938 99.4836 49.8915 99.4836C22.845 99.4836 0.835938 77.4746 0.835938 50.4281ZM96.3768 50.4281C96.3768 24.7965 75.5231 3.94271 49.8915 3.94271C24.2599 3.94271 3.40616 24.7965 3.40616 50.4281C3.40616 76.0596 24.2599 96.9134 49.8915 96.9134C75.5231 96.9134 96.3768 76.0596 96.3768 50.4281Z" fill="#478BF9" stroke="black"/>
<path d="M0.815009 172.074H0.833274V171.574C0.833274 170.863 1.409 170.294 2.11317 170.294C2.81544 170.294 3.39307 170.872 3.39307 171.574C3.39307 197.206 24.2468 218.059 49.8784 218.059C75.51 218.059 96.3638 197.206 96.3638 171.574C96.3638 170.863 96.9395 170.294 97.6437 170.294C98.3459 170.294 98.9235 170.872 98.9235 171.574C98.9235 198.621 76.9145 220.63 49.868 220.63C22.9883 220.63 1.08425 198.891 0.815009 172.074Z" fill="#478BF9" stroke="black"/>
<path d="M76.7305 49.7312H97.4324V53.0091H76.7305V49.7312Z" fill="#478BF9" stroke="black"/>
<path d="M2.00781 49.7312H22.7099V53.0091H2.00781V49.7312Z" fill="#478BF9" stroke="black"/>
<path d="M48.4219 78.7087H51.6998V99.4108H48.4219V78.7087Z" fill="#478BF9" stroke="black"/>
<path d="M48.4219 3.32935H51.6998V24.0313H48.4219V3.32935Z" fill="#478BF9" stroke="black"/>
<mask id="path-7-inside-1_1_6053" fill="white">
<path d="M75.575 24.2189C60.7322 9.37624 36.657 9.37624 21.8039 24.2189C6.9612 39.0617 6.9612 63.1369 21.8039 77.99C36.6466 92.8327 60.7218 92.8327 75.575 77.99C90.4177 63.1473 90.4177 39.0721 75.575 24.2189ZM56.0379 27.4352C60.3679 28.778 64.2503 31.2864 67.2688 34.7005L67.8517 35.3562L66.9982 35.554C64.7396 36.0848 62.3248 36.522 59.8267 36.8446L59.3791 36.9071L59.2542 36.4699C58.8379 35.0439 58.3486 33.67 57.7866 32.4001C57.0892 30.8076 56.3086 29.4128 55.455 28.2367L54.5182 26.9564L56.0379 27.4248V27.4352ZM38.6659 49.9179L38.6867 49.3766C38.7908 46.0875 39.1551 42.9441 39.7796 40.0505L39.8733 39.5925L40.3417 39.6341C45.8166 40.1129 51.6663 40.0921 57.11 39.5821L57.5784 39.5405L57.6825 39.9985C58.3174 42.9233 58.6817 46.0771 58.7754 49.3766V49.9179H38.6763H38.6659ZM58.7754 52.3327V52.874C58.6609 56.1735 58.2966 59.3273 57.6617 62.2521L57.5576 62.7101L57.0892 62.6684C51.6455 62.1584 45.7959 62.148 40.3209 62.6164L39.8525 62.658L39.7588 62.2C39.1343 59.3064 38.77 56.1735 38.6659 52.874L38.6451 52.3327H58.7546H58.7754ZM48.7207 26.5297C51.7496 26.5297 54.8305 30.3704 56.7561 36.5636L56.9539 37.1881L56.2981 37.2402C53.7376 37.4587 51.0938 37.5732 48.4396 37.5732C45.9728 37.5732 43.5163 37.4795 41.1223 37.2818L40.4666 37.2297L40.6644 36.5948C42.5899 30.3809 45.6814 26.5193 48.7207 26.5193V26.5297ZM30.0684 34.8149C33.1077 31.3489 37.0214 28.7988 41.4034 27.4457L42.9335 26.9773L41.9863 28.2679C41.1328 29.4337 40.3417 30.8388 39.6547 32.421C39.1031 33.67 38.6035 35.0647 38.1663 36.5636L38.0414 36.9904L37.5939 36.9383C35.075 36.6261 32.6393 36.2097 30.3494 35.6789L29.4855 35.4811L30.0684 34.8149ZM23.9898 49.3558C24.2812 45.2965 25.5823 41.3412 27.7577 37.8959L27.9659 37.5732L28.3406 37.6669C31.0052 38.3434 33.8779 38.8847 36.8964 39.2699L37.4585 39.3427L37.344 39.9048C36.7195 42.9233 36.3656 46.1187 36.2719 49.4079V49.9179H23.9585L24.0002 49.3558H23.9898ZM27.9659 64.6773L27.7577 64.3546C25.5823 60.9198 24.2812 56.9541 23.9898 52.8947L23.9481 52.3327H36.2511V52.8427C36.3552 56.1318 36.7195 59.3377 37.3336 62.3458L37.4481 62.9078L36.886 62.9807C33.8779 63.3658 30.9948 63.9071 28.3301 64.5837L27.9554 64.6773H27.9659ZM41.4034 74.8153C37.0214 73.4622 33.1077 70.9121 30.0684 67.446L29.4855 66.7799L30.3494 66.5821C32.6393 66.0617 35.075 65.6349 37.5939 65.3226L38.0414 65.2706L38.1663 65.6974C38.6035 67.1962 39.1031 68.591 39.6547 69.84C40.3521 71.4325 41.1328 72.8273 41.9863 74.0035L42.9335 75.2941L41.4034 74.8257V74.8153ZM48.7207 75.7209C45.6814 75.7209 42.5899 71.8593 40.6644 65.6453L40.4666 65.0104L41.1223 64.9584C46.0873 64.5628 51.3749 64.5732 56.2981 65L56.9539 65.052L56.7561 65.6766C54.8201 71.8593 51.7392 75.7105 48.7207 75.7105V75.7209ZM67.2688 67.5501C64.2503 70.9641 60.3575 73.4726 56.0379 74.8153L54.5182 75.2837L55.455 74.0035C56.3086 72.8377 57.0892 71.4325 57.7866 69.84C58.3382 68.5598 58.8379 67.1962 59.2542 65.7702L59.3791 65.3331L59.8267 65.3955C62.3248 65.7182 64.7396 66.1553 66.9982 66.6862L67.8517 66.8944L67.2688 67.5501ZM73.4412 52.8947C73.1498 56.9957 71.8279 61.0031 69.6004 64.4795L69.3922 64.8022L69.0175 64.7086C66.3841 64.0112 63.5217 63.4595 60.524 63.0536L59.962 62.9807L60.0765 62.4291C60.701 59.4106 61.0653 56.1943 61.159 52.8531V52.3431H73.4724L73.4308 52.9051L73.4412 52.8947ZM61.1798 49.9179V49.4079C61.0757 46.0667 60.7114 42.84 60.0869 39.8319L59.9724 39.2803L60.5345 39.2074C63.5322 38.8015 66.3841 38.2498 69.0279 37.5524L69.4026 37.4588L69.6108 37.7814C71.8382 41.2579 73.1705 45.2548 73.4516 49.3662L73.4932 49.9283H61.1902L61.1798 49.9179Z"/>
</mask>
<path d="M75.575 24.2189C60.7322 9.37624 36.657 9.37624 21.8039 24.2189C6.9612 39.0617 6.9612 63.1369 21.8039 77.99C36.6466 92.8327 60.7218 92.8327 75.575 77.99C90.4177 63.1473 90.4177 39.0721 75.575 24.2189ZM56.0379 27.4352C60.3679 28.778 64.2503 31.2864 67.2688 34.7005L67.8517 35.3562L66.9982 35.554C64.7396 36.0848 62.3248 36.522 59.8267 36.8446L59.3791 36.9071L59.2542 36.4699C58.8379 35.0439 58.3486 33.67 57.7866 32.4001C57.0892 30.8076 56.3086 29.4128 55.455 28.2367L54.5182 26.9564L56.0379 27.4248V27.4352ZM38.6659 49.9179L38.6867 49.3766C38.7908 46.0875 39.1551 42.9441 39.7796 40.0505L39.8733 39.5925L40.3417 39.6341C45.8166 40.1129 51.6663 40.0921 57.11 39.5821L57.5784 39.5405L57.6825 39.9985C58.3174 42.9233 58.6817 46.0771 58.7754 49.3766V49.9179H38.6763H38.6659ZM58.7754 52.3327V52.874C58.6609 56.1735 58.2966 59.3273 57.6617 62.2521L57.5576 62.7101L57.0892 62.6684C51.6455 62.1584 45.7959 62.148 40.3209 62.6164L39.8525 62.658L39.7588 62.2C39.1343 59.3064 38.77 56.1735 38.6659 52.874L38.6451 52.3327H58.7546H58.7754ZM48.7207 26.5297C51.7496 26.5297 54.8305 30.3704 56.7561 36.5636L56.9539 37.1881L56.2981 37.2402C53.7376 37.4587 51.0938 37.5732 48.4396 37.5732C45.9728 37.5732 43.5163 37.4795 41.1223 37.2818L40.4666 37.2297L40.6644 36.5948C42.5899 30.3809 45.6814 26.5193 48.7207 26.5193V26.5297ZM30.0684 34.8149C33.1077 31.3489 37.0214 28.7988 41.4034 27.4457L42.9335 26.9773L41.9863 28.2679C41.1328 29.4337 40.3417 30.8388 39.6547 32.421C39.1031 33.67 38.6035 35.0647 38.1663 36.5636L38.0414 36.9904L37.5939 36.9383C35.075 36.6261 32.6393 36.2097 30.3494 35.6789L29.4855 35.4811L30.0684 34.8149ZM23.9898 49.3558C24.2812 45.2965 25.5823 41.3412 27.7577 37.8959L27.9659 37.5732L28.3406 37.6669C31.0052 38.3434 33.8779 38.8847 36.8964 39.2699L37.4585 39.3427L37.344 39.9048C36.7195 42.9233 36.3656 46.1187 36.2719 49.4079V49.9179H23.9585L24.0002 49.3558H23.9898ZM27.9659 64.6773L27.7577 64.3546C25.5823 60.9198 24.2812 56.9541 23.9898 52.8947L23.9481 52.3327H36.2511V52.8427C36.3552 56.1318 36.7195 59.3377 37.3336 62.3458L37.4481 62.9078L36.886 62.9807C33.8779 63.3658 30.9948 63.9071 28.3301 64.5837L27.9554 64.6773H27.9659ZM41.4034 74.8153C37.0214 73.4622 33.1077 70.9121 30.0684 67.446L29.4855 66.7799L30.3494 66.5821C32.6393 66.0617 35.075 65.6349 37.5939 65.3226L38.0414 65.2706L38.1663 65.6974C38.6035 67.1962 39.1031 68.591 39.6547 69.84C40.3521 71.4325 41.1328 72.8273 41.9863 74.0035L42.9335 75.2941L41.4034 74.8257V74.8153ZM48.7207 75.7209C45.6814 75.7209 42.5899 71.8593 40.6644 65.6453L40.4666 65.0104L41.1223 64.9584C46.0873 64.5628 51.3749 64.5732 56.2981 65L56.9539 65.052L56.7561 65.6766C54.8201 71.8593 51.7392 75.7105 48.7207 75.7105V75.7209ZM67.2688 67.5501C64.2503 70.9641 60.3575 73.4726 56.0379 74.8153L54.5182 75.2837L55.455 74.0035C56.3086 72.8377 57.0892 71.4325 57.7866 69.84C58.3382 68.5598 58.8379 67.1962 59.2542 65.7702L59.3791 65.3331L59.8267 65.3955C62.3248 65.7182 64.7396 66.1553 66.9982 66.6862L67.8517 66.8944L67.2688 67.5501ZM73.4412 52.8947C73.1498 56.9957 71.8279 61.0031 69.6004 64.4795L69.3922 64.8022L69.0175 64.7086C66.3841 64.0112 63.5217 63.4595 60.524 63.0536L59.962 62.9807L60.0765 62.4291C60.701 59.4106 61.0653 56.1943 61.159 52.8531V52.3431H73.4724L73.4308 52.9051L73.4412 52.8947ZM61.1798 49.9179V49.4079C61.0757 46.0667 60.7114 42.84 60.0869 39.8319L59.9724 39.2803L60.5345 39.2074C63.5322 38.8015 66.3841 38.2498 69.0279 37.5524L69.4026 37.4588L69.6108 37.7814C71.8382 41.2579 73.1705 45.2548 73.4516 49.3662L73.4932 49.9283H61.1902L61.1798 49.9179Z" fill="#478BF9" stroke="black" stroke-width="2" mask="url(#path-7-inside-1_1_6053)"/>
<path d="M2.06653 172.323V52.7283" stroke="black"/>
<path d="M0.77356 172.324V52.7284C0.77356 52.0176 1.34928 51.4485 2.05346 51.4485C2.75573 51.4485 3.33336 52.0261 3.33336 52.7284V172.324C3.33336 173.034 2.75763 173.603 2.05346 173.603C1.35119 173.603 0.77356 173.026 0.77356 172.324Z" fill="#478BF9" stroke="black"/>
<path d="M97.6055 172.594V52.999" stroke="black"/>
<path d="M96.3242 172.594V52.9991C96.3242 52.2883 96.8999 51.7192 97.6041 51.7192C98.3063 51.7192 98.884 52.2969 98.884 52.9991V172.594C98.884 173.305 98.3082 173.874 97.6041 173.874C96.9018 173.874 96.3242 173.297 96.3242 172.594Z" fill="#478BF9" stroke="black"/>
</svg>
