<svg width="101" height="1211" viewBox="0 0 101 1211" fill="none" xmlns="http://www.w3.org/2000/svg">
<g opacity="0.6">
<path d="M2.49243 975.783C2.49243 950.461 23.0981 929.855 48.4199 929.855C73.7417 929.855 94.3473 950.461 94.3473 975.783C94.3473 1001.1 73.7417 1021.71 48.4199 1021.71C23.0981 1021.71 2.49243 1001.1 2.49243 975.783ZM92.0025 975.783C92.0025 951.752 72.451 932.2 48.4199 932.2C24.3888 932.2 4.83729 951.752 4.83729 975.783C4.83729 999.814 24.3888 1019.37 48.4199 1019.37C72.451 1019.37 92.0025 999.814 92.0025 975.783Z" fill="#478BF9" stroke="black"/>
<path d="M2.47314 1089.78H2.48992V1089.28C2.48992 1088.63 3.01505 1088.11 3.65747 1088.11C4.29798 1088.11 4.82501 1088.64 4.82501 1089.28C4.82501 1113.31 24.3766 1132.86 48.4076 1132.86C72.4387 1132.86 91.9902 1113.31 91.9902 1089.28C91.9902 1088.63 92.5154 1088.11 93.1578 1088.11C93.7982 1088.11 94.3252 1088.64 94.3252 1089.28C94.3252 1114.6 73.7197 1135.21 48.3979 1135.21C23.2429 1135.21 2.74225 1114.87 2.47314 1089.78Z" fill="#478BF9" stroke="black"/>
<path d="M73.5962 975.162H92.9283V978.17H73.5962V975.162Z" fill="#478BF9" stroke="black"/>
<path d="M3.59033 975.162H22.9225V978.17H3.59033V975.162Z" fill="#478BF9" stroke="black"/>
<path d="M47.0747 1002.31H50.0826V1021.64H47.0747V1002.31Z" fill="#478BF9" stroke="black"/>
<path d="M47.0747 931.689H50.0826V951.021H47.0747V931.689Z" fill="#478BF9" stroke="black"/>
<mask id="path-7-inside-1_1_6007" fill="white">
<path d="M72.4821 951.228C58.5763 937.323 36.0208 937.323 22.1052 951.228C8.19945 965.134 8.19945 987.69 22.1052 1001.61C36.011 1015.51 58.5665 1015.51 72.4821 1001.61C86.3879 987.699 86.3879 965.144 72.4821 951.228ZM54.1783 954.242C58.235 955.5 61.8723 957.85 64.7003 961.048L65.2464 961.663L64.4468 961.848C62.3307 962.345 60.0683 962.755 57.7279 963.057L57.3086 963.116L57.1916 962.706C56.8015 961.37 56.3432 960.083 55.8166 958.893C55.1632 957.401 54.4318 956.094 53.6322 954.993L52.7545 953.793L54.1783 954.232V954.242ZM37.9029 975.305L37.9224 974.798C38.0199 971.717 38.3612 968.772 38.9463 966.061L39.0341 965.632L39.4729 965.671C44.6022 966.119 50.0827 966.1 55.1827 965.622L55.6215 965.583L55.7191 966.012C56.3139 968.752 56.6552 971.707 56.743 974.798V975.305H37.9126H37.9029ZM56.743 977.568V978.075C56.6357 981.166 56.2944 984.121 55.6996 986.861L55.6021 987.29L55.1632 987.251C50.0631 986.773 44.5827 986.763 39.4534 987.202L39.0146 987.241L38.9268 986.812C38.3417 984.101 38.0004 981.166 37.9029 978.075L37.8833 977.568H56.7235H56.743ZM47.323 953.393C50.1607 953.393 53.0471 956.992 54.8512 962.794L55.0365 963.379L54.4221 963.428C52.0232 963.632 49.5463 963.74 47.0596 963.74C44.7485 963.74 42.4471 963.652 40.2042 963.467L39.5899 963.418L39.7752 962.823C41.5792 957.001 44.4755 953.384 47.323 953.384V953.393ZM29.848 961.156C32.6955 957.908 36.3621 955.519 40.4675 954.251L41.9011 953.813L41.0136 955.022C40.214 956.114 39.4729 957.43 38.8293 958.913C38.3124 960.083 37.8444 961.39 37.4348 962.794L37.3178 963.194L36.8985 963.145C34.5386 962.852 32.2567 962.462 30.1113 961.965L29.3019 961.78L29.848 961.156ZM24.1531 974.779C24.4262 970.975 25.6451 967.27 27.6832 964.042L27.8782 963.74L28.2293 963.827C30.7257 964.461 33.4171 964.968 36.2451 965.329L36.7717 965.398L36.6644 965.924C36.0793 968.752 35.7478 971.746 35.66 974.827V975.305H24.1238L24.1629 974.779H24.1531ZM27.8782 989.133L27.6832 988.831C25.6451 985.613 24.4262 981.897 24.1531 978.094L24.1141 977.568H35.6405V978.045C35.738 981.127 36.0793 984.13 36.6547 986.949L36.7619 987.475L36.2353 987.543C33.4171 987.904 30.7159 988.411 28.2195 989.045L27.8685 989.133H27.8782ZM40.4675 998.631C36.3621 997.363 32.6955 994.974 29.848 991.727L29.3019 991.103L30.1113 990.917C32.2567 990.43 34.5386 990.03 36.8985 989.738L37.3178 989.689L37.4348 990.089C37.8444 991.493 38.3124 992.8 38.8293 993.97C39.4826 995.462 40.214 996.768 41.0136 997.87L41.9011 999.08L40.4675 998.641V998.631ZM47.323 999.479C44.4755 999.479 41.5792 995.862 39.7752 990.04L39.5899 989.445L40.2042 989.396C44.8558 989.026 49.8096 989.035 54.4221 989.435L55.0365 989.484L54.8512 990.069C53.0374 995.862 50.1509 999.47 47.323 999.47V999.479ZM64.7003 991.824C61.8723 995.023 58.2252 997.373 54.1783 998.631L52.7545 999.07L53.6322 997.87C54.4318 996.778 55.1632 995.462 55.8166 993.97C56.3334 992.77 56.8015 991.493 57.1916 990.157L57.3086 989.747L57.7279 989.806C60.0683 990.108 62.3307 990.518 64.4468 991.015L65.2464 991.21L64.7003 991.824ZM70.483 978.094C70.21 981.936 68.9715 985.691 66.8847 988.948L66.6896 989.25L66.3386 989.162C63.8714 988.509 61.1897 987.992 58.3812 987.612L57.8547 987.543L57.9619 987.027C58.547 984.199 58.8883 981.185 58.9761 978.055V977.577H70.5123L70.4733 978.104L70.483 978.094ZM58.9956 975.305V974.827C58.8981 971.697 58.5568 968.674 57.9717 965.856L57.8644 965.339L58.391 965.271C61.1995 964.89 63.8714 964.374 66.3483 963.72L66.6994 963.632L66.8944 963.935C68.9812 967.192 70.2294 970.936 70.4927 974.788L70.5318 975.315H59.0054L58.9956 975.305Z"/>
</mask>
<path d="M72.4821 951.228C58.5763 937.323 36.0208 937.323 22.1052 951.228C8.19945 965.134 8.19945 987.69 22.1052 1001.61C36.011 1015.51 58.5665 1015.51 72.4821 1001.61C86.3879 987.699 86.3879 965.144 72.4821 951.228ZM54.1783 954.242C58.235 955.5 61.8723 957.85 64.7003 961.048L65.2464 961.663L64.4468 961.848C62.3307 962.345 60.0683 962.755 57.7279 963.057L57.3086 963.116L57.1916 962.706C56.8015 961.37 56.3432 960.083 55.8166 958.893C55.1632 957.401 54.4318 956.094 53.6322 954.993L52.7545 953.793L54.1783 954.232V954.242ZM37.9029 975.305L37.9224 974.798C38.0199 971.717 38.3612 968.772 38.9463 966.061L39.0341 965.632L39.4729 965.671C44.6022 966.119 50.0827 966.1 55.1827 965.622L55.6215 965.583L55.7191 966.012C56.3139 968.752 56.6552 971.707 56.743 974.798V975.305H37.9126H37.9029ZM56.743 977.568V978.075C56.6357 981.166 56.2944 984.121 55.6996 986.861L55.6021 987.29L55.1632 987.251C50.0631 986.773 44.5827 986.763 39.4534 987.202L39.0146 987.241L38.9268 986.812C38.3417 984.101 38.0004 981.166 37.9029 978.075L37.8833 977.568H56.7235H56.743ZM47.323 953.393C50.1607 953.393 53.0471 956.992 54.8512 962.794L55.0365 963.379L54.4221 963.428C52.0232 963.632 49.5463 963.74 47.0596 963.74C44.7485 963.74 42.4471 963.652 40.2042 963.467L39.5899 963.418L39.7752 962.823C41.5792 957.001 44.4755 953.384 47.323 953.384V953.393ZM29.848 961.156C32.6955 957.908 36.3621 955.519 40.4675 954.251L41.9011 953.813L41.0136 955.022C40.214 956.114 39.4729 957.43 38.8293 958.913C38.3124 960.083 37.8444 961.39 37.4348 962.794L37.3178 963.194L36.8985 963.145C34.5386 962.852 32.2567 962.462 30.1113 961.965L29.3019 961.78L29.848 961.156ZM24.1531 974.779C24.4262 970.975 25.6451 967.27 27.6832 964.042L27.8782 963.74L28.2293 963.827C30.7257 964.461 33.4171 964.968 36.2451 965.329L36.7717 965.398L36.6644 965.924C36.0793 968.752 35.7478 971.746 35.66 974.827V975.305H24.1238L24.1629 974.779H24.1531ZM27.8782 989.133L27.6832 988.831C25.6451 985.613 24.4262 981.897 24.1531 978.094L24.1141 977.568H35.6405V978.045C35.738 981.127 36.0793 984.13 36.6547 986.949L36.7619 987.475L36.2353 987.543C33.4171 987.904 30.7159 988.411 28.2195 989.045L27.8685 989.133H27.8782ZM40.4675 998.631C36.3621 997.363 32.6955 994.974 29.848 991.727L29.3019 991.103L30.1113 990.917C32.2567 990.43 34.5386 990.03 36.8985 989.738L37.3178 989.689L37.4348 990.089C37.8444 991.493 38.3124 992.8 38.8293 993.97C39.4826 995.462 40.214 996.768 41.0136 997.87L41.9011 999.08L40.4675 998.641V998.631ZM47.323 999.479C44.4755 999.479 41.5792 995.862 39.7752 990.04L39.5899 989.445L40.2042 989.396C44.8558 989.026 49.8096 989.035 54.4221 989.435L55.0365 989.484L54.8512 990.069C53.0374 995.862 50.1509 999.47 47.323 999.47V999.479ZM64.7003 991.824C61.8723 995.023 58.2252 997.373 54.1783 998.631L52.7545 999.07L53.6322 997.87C54.4318 996.778 55.1632 995.462 55.8166 993.97C56.3334 992.77 56.8015 991.493 57.1916 990.157L57.3086 989.747L57.7279 989.806C60.0683 990.108 62.3307 990.518 64.4468 991.015L65.2464 991.21L64.7003 991.824ZM70.483 978.094C70.21 981.936 68.9715 985.691 66.8847 988.948L66.6896 989.25L66.3386 989.162C63.8714 988.509 61.1897 987.992 58.3812 987.612L57.8547 987.543L57.9619 987.027C58.547 984.199 58.8883 981.185 58.9761 978.055V977.577H70.5123L70.4733 978.104L70.483 978.094ZM58.9956 975.305V974.827C58.8981 971.697 58.5568 968.674 57.9717 965.856L57.8644 965.339L58.391 965.271C61.1995 964.89 63.8714 964.374 66.3483 963.72L66.6994 963.632L66.8944 963.935C68.9812 967.192 70.2294 970.936 70.4927 974.788L70.5318 975.315H59.0054L58.9956 975.305Z" fill="#478BF9" stroke="black" stroke-width="2" mask="url(#path-7-inside-1_1_6007)"/>
<path d="M3.61377 1089.98V977.938" stroke="black"/>
<path d="M2.43396 1089.98V977.938C2.43396 977.29 2.95909 976.771 3.60151 976.771C4.24202 976.771 4.76905 977.298 4.76905 977.938V1089.98C4.76905 1090.63 4.24392 1091.15 3.60151 1091.15C2.961 1091.15 2.43396 1090.62 2.43396 1089.98Z" fill="#478BF9" stroke="black"/>
<path d="M93.1221 1090.24V978.191" stroke="black"/>
<path d="M91.9531 1090.24V978.191C91.9531 977.543 92.4782 977.024 93.1206 977.024C93.7611 977.024 94.2882 977.551 94.2882 978.191V1090.24C94.2882 1090.89 93.763 1091.4 93.1206 1091.4C92.4801 1091.4 91.9531 1090.88 91.9531 1090.24Z" fill="#478BF9" stroke="black"/>
<path d="M17.9694 829.893C35.203 812.655 63.2463 812.655 80.4842 829.893L17.9694 829.893ZM17.9694 829.893C0.731432 847.131 0.73135 875.174 17.9694 892.408M17.9694 829.893V892.408M17.9694 892.408C35.2074 909.646 63.2507 909.646 80.4843 892.408H17.9694ZM16.4651 893.912C-1.59906 875.848 -1.59906 846.458 16.4651 828.393C34.5294 810.329 63.9199 810.329 81.9841 828.393C100.048 846.458 100.048 875.848 81.9841 893.912C63.9199 911.977 34.5294 911.977 16.4651 893.912ZM80.4843 892.408C97.7223 875.17 97.7223 847.127 80.4843 829.893L80.4843 892.408Z" fill="white" stroke="black"/>
<path d="M60.5104 816.22C60.1979 816.142 59.8636 816.211 59.6034 816.413C59.3455 816.617 59.1956 816.925 59.1956 817.249V828.63C59.1956 829.085 59.4834 829.486 59.9181 829.636C64.7866 831.286 69.1063 833.973 72.7526 837.62C76.4033 841.27 79.0913 845.586 80.7369 850.455L80.7385 850.46C80.7882 850.612 80.8779 850.754 80.9898 850.866L80.988 850.868C81.1865 851.063 81.4489 851.177 81.733 851.177H93.1141C93.4408 851.177 93.747 851.029 93.9486 850.771C94.1499 850.508 94.221 850.172 94.1432 849.857C92.1137 841.748 87.9053 834.329 81.9744 828.393C76.0436 822.458 68.6193 818.25 60.5104 816.22ZM60.5104 816.22L60.6316 815.735L60.5104 816.22ZM82.3748 848.73L82.4963 849.055H82.8432H91.0759H91.7481L91.5548 848.411C89.4617 841.44 85.6574 835.071 80.4791 829.893C75.3009 824.715 68.9322 820.911 61.9653 818.822L61.3217 818.629V819.301V827.534V827.881L61.647 828.002C66.3999 829.775 70.6359 832.5 74.2524 836.12C77.87 839.737 80.5972 843.975 82.3748 848.73Z" fill="white" stroke="black"/>
<path d="M37.9277 906.09C29.8856 904.077 22.5211 899.921 16.6104 894.067V894.059L16.464 893.912C10.5331 887.981 6.32038 880.557 4.29089 872.449C4.21278 872.133 4.28491 871.797 4.48456 871.54C4.68621 871.281 4.99276 871.133 5.31989 871.133H16.701C17.1577 871.133 17.5612 871.423 17.7057 871.854L17.706 871.855C19.3516 876.724 22.0395 881.04 25.6903 884.69C29.3368 888.337 33.6568 891.025 38.5256 892.675L38.527 892.675C38.9574 892.819 39.2473 893.223 39.2473 893.68V905.061C39.2473 905.385 39.0973 905.693 38.8394 905.897C38.58 906.099 38.2458 906.168 37.9277 906.09ZM7.367 873.255V873.677L6.867 873.751V873.755V874.255H6.9981C9.11307 881.085 12.875 887.324 17.9638 892.412C23.142 897.591 29.5107 901.395 36.4819 903.488L37.1257 903.681V903.009V894.776V894.429L36.8004 894.308C32.0456 892.535 27.808 889.808 24.1905 886.19C20.5729 882.573 17.8457 878.335 16.0681 873.58L15.9466 873.255H15.5997H7.367Z" fill="white" stroke="black"/>
<path d="M60.5226 906.077C60.2119 906.153 59.8825 906.085 59.627 905.893C59.6016 905.87 59.5843 905.855 59.5704 905.843C59.5503 905.826 59.5375 905.814 59.5183 905.795L59.4203 905.697C59.2799 905.514 59.2029 905.289 59.2029 905.052V893.671C59.2029 893.214 59.4929 892.811 59.9233 892.666L59.9243 892.666C64.7935 891.02 69.1092 888.332 72.7599 884.682C76.4109 881.031 79.0941 876.715 80.7441 871.846L80.7445 871.845C80.889 871.415 81.2925 871.125 81.7493 871.125H93.1303C93.4549 871.125 93.7639 871.275 93.9677 871.533C94.1676 871.787 94.238 872.125 94.1596 872.439C92.1257 880.548 87.9172 887.968 81.9861 893.904C76.0555 899.839 68.6314 904.047 60.5226 906.077ZM61.6499 894.304L61.3246 894.425V894.772V903.005V903.677L61.9684 903.484C68.9395 901.391 75.3082 897.586 80.4864 892.408C85.6648 887.23 89.4645 880.861 91.5621 873.89L91.7559 873.246H91.0833H82.8505H82.5033L82.382 873.571C80.6089 878.326 77.8819 882.559 74.2597 886.181C70.642 889.799 66.4044 892.531 61.6499 894.304Z" fill="white" stroke="black"/>
<path d="M5.31617 851.177C5.06826 851.177 4.83203 851.092 4.64789 850.945L4.56845 850.866C4.53386 850.831 4.50929 850.803 4.49495 850.783L4.48925 850.775L4.48326 850.768C4.28379 850.515 4.21249 850.177 4.29163 849.857C6.32117 841.748 10.5295 834.324 16.4645 828.394C22.4 822.462 29.8198 818.25 37.9284 816.22C38.244 816.142 38.5788 816.214 38.8359 816.413C39.0937 816.617 39.2436 816.925 39.2436 817.249V828.63C39.2436 829.087 38.9536 829.491 38.5232 829.635L38.5223 829.635C33.653 831.281 29.3373 833.969 25.6865 837.62C22.0401 841.266 19.3524 845.586 17.7024 850.455L17.7019 850.456C17.5575 850.887 17.1539 851.177 16.6973 851.177H5.31617ZM37.1219 819.301V818.629L36.4781 818.822C29.507 820.915 23.1383 824.719 17.96 829.898C12.7816 835.076 8.98197 841.445 6.88445 848.415L6.69065 849.06H7.36325H15.596H15.9432L16.0645 848.734C17.8376 843.98 20.5646 839.747 24.1867 836.124C27.8043 832.507 32.042 829.78 36.797 828.002L37.1219 827.88V827.534V819.301Z" fill="white" stroke="black"/>
<path d="M24.19 836.12L24.1901 836.12C37.9913 822.314 60.4546 822.319 74.256 836.12C88.0573 849.921 88.0617 872.38 74.256 886.186C60.4503 899.992 37.9914 899.987 24.19 886.186C10.3887 872.385 10.3843 849.926 24.19 836.12Z" fill="white" stroke="black"/>
<path d="M36.3874 874.638L62.1775 874.467C62.9877 874.462 63.649 875.114 63.6543 875.924L63.6604 876.844C63.6658 877.654 63.0133 878.315 62.203 878.32L36.413 878.491C35.6027 878.497 34.9415 877.844 34.9361 877.034L34.93 876.115C34.9247 875.305 35.5772 874.643 36.3874 874.638Z" fill="#110A1D" stroke="black"/>
<path d="M39.8934 857.895H39.7866C39.6165 857.882 39.4477 857.837 39.2937 857.763L37.2838 856.791C37.2835 856.791 37.2833 856.791 37.2831 856.791C36.6438 856.479 36.3528 855.722 36.618 855.066L36.6184 855.065L37.5415 852.766C37.5416 852.766 37.5417 852.766 37.5418 852.765C37.7504 852.251 38.2392 851.919 38.7891 851.915C39.0305 851.915 39.2624 851.975 39.4655 852.092L39.4655 852.092L39.468 852.093L41.8659 853.461L41.8659 853.461L41.8679 853.462C42.1914 853.645 42.4295 853.965 42.5143 854.337C42.5986 854.707 42.5238 855.096 42.3102 855.407C42.3101 855.408 42.31 855.408 42.31 855.408L40.9961 857.312L40.9956 857.313C40.746 857.676 40.331 857.895 39.8934 857.895Z" fill="#110A1D" stroke="black"/>
<path d="M57.348 857.206L57.348 857.206L57.3467 857.205L56.0456 855.371L56.0456 855.371L56.0444 855.369C55.826 855.064 55.7468 854.675 55.8252 854.302C55.9027 853.934 56.1363 853.609 56.4629 853.418L56.4638 853.418L58.9372 851.966L58.9372 851.966C59.1413 851.846 59.3753 851.781 59.6126 851.777C60.164 851.775 60.6593 852.102 60.8739 852.612C60.874 852.612 60.8741 852.612 60.8741 852.612L61.8059 854.844C61.806 854.844 61.806 854.844 61.8061 854.844C62.0784 855.5 61.7946 856.264 61.1643 856.581C61.1641 856.581 61.164 856.581 61.1638 856.581L59.0616 857.632C58.8718 857.725 58.6632 857.775 58.4664 857.775H58.462C58.0156 857.775 57.5977 857.562 57.348 857.206Z" fill="#110A1D" stroke="black"/>
<path d="M37.7265 871.911C36.8647 871.861 36.1048 871.299 35.8065 870.476L35.8063 870.476L31.5035 858.633L31.3143 858.112L30.8158 858.354C30.5751 858.47 30.3145 858.562 30.0449 858.63C29.734 858.709 29.4199 858.748 29.1019 858.748C28.9065 858.748 28.7258 858.739 28.5551 858.717L28.5519 858.716C26.5591 858.464 25.0444 856.753 25.0326 854.738L25.0326 854.737C25.0168 852.509 26.819 850.683 29.0477 850.667C31.2754 850.651 33.1008 852.453 33.1135 854.68C33.1133 855.2 33.0254 855.692 32.8461 856.147L32.8457 856.149C32.7465 856.402 32.623 856.646 32.4782 856.879L32.1853 857.351L32.6852 857.593L40.869 861.554L41.2549 861.741L41.4984 861.388L47.7596 852.316L48.1081 851.811L47.5431 851.572C47.3113 851.473 47.0876 851.352 46.8757 851.207L46.8733 851.205C46.4688 850.931 46.1172 850.591 45.8331 850.193C45.35 849.512 45.0899 848.71 45.086 847.882L45.086 847.881C45.0702 845.654 46.8716 843.828 49.0994 843.811C49.2133 843.811 49.308 843.811 49.3952 843.818L49.3952 843.818L49.4015 843.819C51.3954 843.953 53.0083 845.554 53.1548 847.547C53.2222 848.494 52.9736 849.397 52.436 850.169C52.1501 850.573 51.8021 850.917 51.4044 851.188L51.4043 851.188L51.4002 851.191C51.1951 851.334 50.9729 851.456 50.7409 851.554L50.1683 851.796L50.5282 852.304L56.9004 861.282L57.1485 861.632L57.5318 861.44L65.5825 857.413L66.0378 857.185L65.8019 856.734C65.6671 856.476 65.5601 856.207 65.4806 855.925C65.3858 855.585 65.3349 855.23 65.3349 854.874C65.3349 854.709 65.3428 854.545 65.3587 854.385C65.5892 852.356 67.3035 850.816 69.3449 850.805L69.3455 850.805C71.5737 850.789 73.3994 852.591 73.4113 854.819L73.4113 854.82C73.4271 856.942 71.7792 858.727 69.6631 858.877L69.3965 858.886C68.9835 858.885 68.583 858.829 68.1969 858.712C67.9385 858.631 67.696 858.533 67.4742 858.41L66.9553 858.124L66.7605 858.684L62.7196 870.296L62.7191 870.297C62.4205 871.164 61.5981 871.751 60.6752 871.759C60.675 871.759 60.6748 871.759 60.6746 871.759M37.7265 871.911L60.6746 871.759M37.7265 871.911L37.8686 871.91L60.6746 871.759M37.7265 871.911L60.6746 871.759" fill="#110A1D" stroke="black"/>
<path d="M18.0733 711.18L18.0731 711.18C1.11485 728.139 1.11485 755.73 18.0731 772.689L18.2196 772.835H18.23C35.2004 789.647 62.6819 789.598 79.5913 772.689C96.5495 755.73 96.5495 728.139 79.5913 711.18C71.3743 702.963 60.4521 698.444 48.8322 698.444C37.2121 698.444 26.29 702.973 18.0733 711.18ZM48.842 787.857C37.0718 787.857 25.3135 783.381 16.3521 774.419C-1.56138 756.506 -1.56138 727.363 16.3521 709.449C25.0347 700.767 36.5705 695.992 48.842 695.992C61.1135 695.992 72.6492 700.767 81.3318 709.449C99.2453 727.363 99.2453 756.506 81.3318 774.419C72.3801 783.371 60.6121 787.857 48.842 787.857Z" fill="#7DDACF" stroke="black"/>
<path d="M47.6183 744.212V743.712H47.1183H42.9308L50.0606 733.72V740.769V741.269H50.5606H54.7477L47.6183 751.252V744.212Z" fill="#7DDACF" stroke="black"/>
<path d="M32.2676 742.525C32.2676 733.381 39.689 725.959 48.8329 725.959C57.9764 725.959 65.3982 733.4 65.3982 742.525C65.3982 751.649 57.9772 759.07 48.8329 759.07C39.6882 759.07 32.2676 751.668 32.2676 742.525ZM33.3544 742.486C33.3544 751.031 40.2874 757.964 48.8329 757.964C57.3784 757.964 64.3114 751.031 64.3114 742.486C64.3114 733.94 57.3784 727.007 48.8329 727.007C40.2874 727.007 33.3544 733.94 33.3544 742.486Z" fill="#7DDACF" stroke="black"/>
<path d="M74.8588 715.915L74.8587 715.915C67.9122 708.959 58.6683 705.14 48.8343 705.14C39.001 705.14 29.7666 708.968 22.8098 715.915C8.46552 730.259 8.46531 753.61 22.8098 767.964C22.8098 767.964 22.8099 767.964 22.8099 767.964M74.8588 715.915L75.2125 715.561C89.7521 730.111 89.7521 753.778 75.2125 768.318C67.9378 775.592 58.3909 779.23 48.8343 779.23C39.2778 779.23 29.731 775.592 22.4563 768.318L22.8099 767.964M74.8588 715.915C89.2034 730.269 89.2033 753.62 74.8589 767.964C67.682 775.141 58.2641 778.73 48.8343 778.73C39.4047 778.73 29.9868 775.141 22.8099 767.964M74.8588 715.915L22.8099 767.964M51.431 718.061H52.8423C54.8055 718.061 56.4238 716.442 56.4238 714.479V712.87C56.4238 710.885 54.8034 709.289 52.8423 709.289H44.846C42.8849 709.289 41.2644 710.885 41.2644 712.87V714.479C41.2644 716.442 42.8828 718.061 44.846 718.061H46.2572V719.017C41.6708 719.499 37.4587 721.33 34.0452 724.074L31.5375 721.566L31.5354 721.564C30.5254 720.566 28.8922 720.547 27.8833 721.568C26.8826 722.581 26.8796 724.212 27.8854 725.218L30.394 727.727C27.1411 731.796 25.1938 736.94 25.1938 742.534C25.1938 755.566 35.8031 766.175 48.8343 766.175H48.8539C61.8851 766.175 72.4944 755.566 72.4944 742.534C72.4944 736.93 70.547 731.795 67.2942 727.727L69.8028 725.218L69.8049 725.216C70.8056 724.203 70.8086 722.572 69.8028 721.566L69.8007 721.564C68.788 720.563 67.1565 720.56 66.1507 721.566L63.6425 724.074C60.2296 721.339 56.0256 719.508 51.431 719.018V718.061Z" fill="#7DDACF" stroke="black"/>
<path d="M47.8978 677.04C22.576 677.04 1.9801 656.434 1.9801 631.122C1.9801 605.81 22.5857 585.205 47.8978 585.205C73.2099 585.205 93.8154 605.81 93.8154 631.122C93.8154 656.434 73.2099 677.04 47.8978 677.04ZM47.8978 587.296C23.7302 587.296 4.07141 606.955 4.07141 631.122C4.07141 655.29 23.7302 674.949 47.8978 674.949C72.0654 674.949 91.7242 655.29 91.7242 631.122C91.7242 606.955 72.0654 587.296 47.8978 587.296Z" fill="white" stroke="black"/>
<path d="M64.5225 612.37L78.1855 598.707L80.3055 600.827L66.6426 614.49L64.5225 612.37Z" fill="white" stroke="black"/>
<path d="M15.0582 661.836L28.7211 648.173L30.8411 650.293L17.1782 663.956L15.0582 661.836Z" fill="white" stroke="black"/>
<path d="M64.9578 650.29L67.0778 648.17L80.7408 661.833L78.6208 663.953L64.9578 650.29Z" fill="white" stroke="black"/>
<path d="M15.0692 600.391L17.1892 598.271L30.8452 611.927L28.7252 614.047L15.0692 600.391Z" fill="white" stroke="black"/>
<path d="M58.8766 632.017L58.658 632.236L58.6678 632.265L57.8136 633.119L57.8118 633.121C57.0821 633.858 55.8886 633.861 55.1467 633.119L54.8235 633.442L55.1467 633.119L54.0521 632.024L55.0321 631.044L55.639 631.651C56.0976 632.11 56.853 632.11 57.3116 631.651L57.3116 631.651L57.4188 631.544C57.8774 631.086 57.8774 630.33 57.4188 629.872L56.7459 629.199C56.0924 628.545 55.0346 628.545 54.3811 629.199L54.7346 629.552L54.3811 629.199L50.4531 633.127C50.4528 633.127 50.4525 633.127 50.4522 633.128C49.8495 633.723 48.9268 633.799 48.2485 633.362L51.3728 630.237L51.3888 630.221L51.4034 630.204C51.5908 629.979 51.6326 629.605 51.3728 629.345C51.3728 629.345 51.3728 629.345 51.3728 629.345L51.0608 629.033L51.0608 629.033C50.4072 628.379 49.3495 628.379 48.6959 629.033L44.6314 633.097C44.6311 633.098 44.6307 633.098 44.6304 633.098C44.0277 633.694 43.1051 633.769 42.4268 633.332L45.6779 630.081C45.9317 629.828 45.9317 629.423 45.6779 629.169L45.3658 628.857C44.7122 628.204 43.6545 628.204 43.0009 628.857L43.3545 629.211L43.0009 628.857L38.76 633.098C38.1573 633.694 37.2346 633.769 36.5563 633.332L42.8499 627.039L42.8499 627.039L42.8517 627.037C43.5812 626.3 44.7743 626.297 45.5162 627.038C45.5164 627.038 45.5167 627.039 45.5169 627.039L46.754 628.286L47.1091 628.644L47.464 628.285L48.5367 627.203L48.537 627.203C49.2667 626.465 50.4602 626.463 51.2021 627.205L52.4405 628.443L52.794 628.797L53.1476 628.443L54.2203 627.37L54.2222 627.369C54.9519 626.631 56.1453 626.628 56.8872 627.37L56.8881 627.371L58.8775 629.351L58.8784 629.352C59.6158 630.082 59.6185 631.275 58.8766 632.017Z" fill="white" stroke="black"/>
<path d="M49.3807 606.01L48.8518 605.979V606.509V613.774V614.234L49.3099 614.272C52.9187 614.575 56.2048 616.005 58.8094 618.212L59.1606 618.51L59.4862 618.184L64.6253 613.045L65.0004 612.67L64.6038 612.318C60.5054 608.677 55.2118 606.348 49.3807 606.01ZM46.9555 606.509V605.979L46.4266 606.01C40.5955 606.348 35.3019 608.677 31.2035 612.318L30.8069 612.67L31.182 613.045L36.3211 618.184L36.6467 618.51L36.9979 618.212C39.6032 616.005 42.8891 614.566 46.4961 614.272L46.9555 614.235V613.774V606.509ZM29.8413 614.386L29.4662 614.011L29.1139 614.407C25.4732 618.506 23.1444 623.799 22.806 629.63L22.7754 630.159H23.3052H30.5702H31.0299L31.0684 629.701C31.3715 626.093 32.8015 622.806 35.0083 620.202L35.3059 619.851L34.9804 619.525L29.8413 614.386ZM23.3052 632.056H22.7754L22.806 632.585C23.1444 638.416 25.4732 643.709 29.1139 647.808L29.4662 648.204L29.8413 647.829L34.9804 642.69L35.3059 642.365L35.0083 642.013C32.8009 639.408 31.362 636.122 31.0685 632.515L31.0311 632.056H30.5702H23.3052ZM46.4266 656.205L46.9555 656.236V655.706V648.441V647.981L46.4974 647.943C42.8886 647.64 39.6025 646.21 36.9979 644.003L36.6467 643.705L36.3211 644.031L31.182 649.17L30.8069 649.545L31.2035 649.897C35.3019 653.538 40.5955 655.867 46.4266 656.205ZM48.8518 655.706V656.236L49.3807 656.205C55.2118 655.867 60.5054 653.538 64.6038 649.897L65.0004 649.545L64.6253 649.17L59.4862 644.031L59.1606 643.705L58.8094 644.003C56.204 646.21 52.9182 647.649 49.3112 647.943L48.8518 647.98V648.441V655.706ZM65.966 647.829L66.3411 648.204L66.6933 647.808C70.3341 643.709 72.6629 638.416 73.0013 632.585L73.0319 632.056H72.5021H65.2371H64.7774L64.7389 632.514C64.4358 636.123 63.0058 639.409 60.799 642.013L60.5014 642.365L60.8269 642.69L65.966 647.829ZM64.7388 629.7L64.7762 630.159H65.2371H72.5021H73.0319L73.0013 629.63C72.6629 623.799 70.3341 618.506 66.6933 614.407L66.3411 614.011L65.966 614.386L60.8269 619.525L60.5014 619.851L60.799 620.202C63.0064 622.807 64.4453 626.093 64.7388 629.7ZM12.8054 631.112C12.8054 611.729 28.5157 596.019 47.8988 596.019C67.2819 596.019 82.9922 611.729 82.9922 631.112C82.9922 650.496 67.2819 666.206 47.8988 666.206C28.5157 666.206 12.8054 650.496 12.8054 631.112ZM47.8988 615.644C39.363 615.644 32.4398 622.567 32.4398 631.103C32.4398 639.638 39.363 646.562 47.8988 646.562C56.4346 646.562 63.3577 639.638 63.3577 631.103C63.3577 622.567 56.4346 615.644 47.8988 615.644Z" fill="white" stroke="black"/>
<path d="M2.49243 391.902C2.49243 366.581 23.0981 345.975 48.4199 345.975C73.7417 345.975 94.3473 366.581 94.3473 391.902C94.3473 417.224 73.7417 437.83 48.4199 437.83C23.0981 437.83 2.49243 417.224 2.49243 391.902ZM92.0025 391.902C92.0025 367.871 72.451 348.32 48.4199 348.32C24.3888 348.32 4.83729 367.871 4.83729 391.902C4.83729 415.934 24.3888 435.485 48.4199 435.485C72.451 435.485 92.0025 415.934 92.0025 391.902Z" fill="#478BF9" stroke="black"/>
<path d="M2.47314 505.901H2.48992V505.401C2.48992 504.753 3.01505 504.234 3.65747 504.234C4.29798 504.234 4.82501 504.761 4.82501 505.401C4.82501 529.432 24.3766 548.984 48.4076 548.984C72.4387 548.984 91.9902 529.432 91.9902 505.401C91.9902 504.753 92.5154 504.234 93.1578 504.234C93.7982 504.234 94.3252 504.761 94.3252 505.401C94.3252 530.723 73.7197 551.329 48.3979 551.329C23.2429 551.329 2.74225 530.994 2.47314 505.901Z" fill="#478BF9" stroke="black"/>
<path d="M73.5962 391.281H92.9283V394.289H73.5962V391.281Z" fill="#478BF9" stroke="black"/>
<path d="M3.59033 391.281H22.9225V394.289H3.59033V391.281Z" fill="#478BF9" stroke="black"/>
<path d="M47.0747 418.43H50.0826V437.762H47.0747V418.43Z" fill="#478BF9" stroke="black"/>
<path d="M47.0747 347.808H50.0826V367.14H47.0747V347.808Z" fill="#478BF9" stroke="black"/>
<mask id="path-39-inside-2_1_6007" fill="white">
<path d="M72.4821 367.348C58.5763 353.442 36.0208 353.442 22.1052 367.348C8.19945 381.254 8.19945 403.809 22.1052 417.725C36.011 431.63 58.5665 431.63 72.4821 417.725C86.3879 403.819 86.3879 381.263 72.4821 367.348ZM54.1783 370.361C58.235 371.619 61.8723 373.969 64.7003 377.168L65.2464 377.782L64.4468 377.967C62.3307 378.465 60.0683 378.874 57.7279 379.177L57.3086 379.235L57.1916 378.825C56.8015 377.489 56.3432 376.202 55.8166 375.013C55.1632 373.521 54.4318 372.214 53.6322 371.112L52.7545 369.912L54.1783 370.351V370.361ZM37.9029 391.425L37.9224 390.917C38.0199 387.836 38.3612 384.891 38.9463 382.18L39.0341 381.751L39.4729 381.79C44.6022 382.239 50.0827 382.219 55.1827 381.741L55.6215 381.702L55.7191 382.131C56.3139 384.871 56.6552 387.826 56.743 390.917V391.425H37.9126H37.9029ZM56.743 393.687V394.194C56.6357 397.285 56.2944 400.24 55.6996 402.98L55.6021 403.409L55.1632 403.37C50.0631 402.892 44.5827 402.883 39.4534 403.322L39.0146 403.36L38.9268 402.931C38.3417 400.22 38.0004 397.285 37.9029 394.194L37.8833 393.687H56.7235H56.743ZM47.323 369.513C50.1607 369.513 53.0471 373.111 54.8512 378.913L55.0365 379.498L54.4221 379.547C52.0232 379.752 49.5463 379.859 47.0596 379.859C44.7485 379.859 42.4471 379.771 40.2042 379.586L39.5899 379.537L39.7752 378.942C41.5792 373.121 44.4755 369.503 47.323 369.503V369.513ZM29.848 377.275C32.6955 374.028 36.3621 371.639 40.4675 370.371L41.9011 369.932L41.0136 371.141C40.214 372.233 39.4729 373.55 38.8293 375.032C38.3124 376.202 37.8444 377.509 37.4348 378.913L37.3178 379.313L36.8985 379.264C34.5386 378.972 32.2567 378.582 30.1113 378.084L29.3019 377.899L29.848 377.275ZM24.1531 390.898C24.4262 387.095 25.6451 383.389 27.6832 380.161L27.8782 379.859L28.2293 379.947C30.7257 380.581 33.4171 381.088 36.2451 381.449L36.7717 381.517L36.6644 382.043C36.0793 384.871 35.7478 387.865 35.66 390.947V391.425H24.1238L24.1629 390.898H24.1531ZM27.8782 405.252L27.6832 404.95C25.6451 401.732 24.4262 398.017 24.1531 394.213L24.1141 393.687H35.6405V394.165C35.738 397.246 36.0793 400.25 36.6547 403.068L36.7619 403.595L36.2353 403.663C33.4171 404.024 30.7159 404.531 28.2195 405.165L27.8685 405.252H27.8782ZM40.4675 414.75C36.3621 413.483 32.6955 411.094 29.848 407.846L29.3019 407.222L30.1113 407.037C32.2567 406.549 34.5386 406.149 36.8985 405.857L37.3178 405.808L37.4348 406.208C37.8444 407.612 38.3124 408.919 38.8293 410.089C39.4826 411.581 40.214 412.888 41.0136 413.99L41.9011 415.199L40.4675 414.76V414.75ZM47.323 415.599C44.4755 415.599 41.5792 411.981 39.7752 406.159L39.5899 405.564L40.2042 405.516C44.8558 405.145 49.8096 405.155 54.4221 405.555L55.0365 405.603L54.8512 406.188C53.0374 411.981 50.1509 415.589 47.323 415.589V415.599ZM64.7003 407.944C61.8723 411.142 58.2252 413.492 54.1783 414.75L52.7545 415.189L53.6322 413.99C54.4318 412.898 55.1632 411.581 55.8166 410.089C56.3334 408.89 56.8015 407.612 57.1916 406.276L57.3086 405.867L57.7279 405.925C60.0683 406.227 62.3307 406.637 64.4468 407.134L65.2464 407.329L64.7003 407.944ZM70.483 394.213C70.21 398.056 68.9715 401.81 66.8847 405.067L66.6896 405.369L66.3386 405.282C63.8714 404.628 61.1897 404.111 58.3812 403.731L57.8547 403.663L57.9619 403.146C58.547 400.318 58.8883 397.305 58.9761 394.174V393.697H70.5123L70.4733 394.223L70.483 394.213ZM58.9956 391.425V390.947C58.8981 387.816 58.5568 384.793 57.9717 381.975L57.8644 381.458L58.391 381.39C61.1995 381.01 63.8714 380.493 66.3483 379.84L66.6994 379.752L66.8944 380.054C68.9812 383.311 70.2294 387.056 70.4927 390.908L70.5318 391.434H59.0054L58.9956 391.425Z"/>
</mask>
<path d="M72.4821 367.348C58.5763 353.442 36.0208 353.442 22.1052 367.348C8.19945 381.254 8.19945 403.809 22.1052 417.725C36.011 431.63 58.5665 431.63 72.4821 417.725C86.3879 403.819 86.3879 381.263 72.4821 367.348ZM54.1783 370.361C58.235 371.619 61.8723 373.969 64.7003 377.168L65.2464 377.782L64.4468 377.967C62.3307 378.465 60.0683 378.874 57.7279 379.177L57.3086 379.235L57.1916 378.825C56.8015 377.489 56.3432 376.202 55.8166 375.013C55.1632 373.521 54.4318 372.214 53.6322 371.112L52.7545 369.912L54.1783 370.351V370.361ZM37.9029 391.425L37.9224 390.917C38.0199 387.836 38.3612 384.891 38.9463 382.18L39.0341 381.751L39.4729 381.79C44.6022 382.239 50.0827 382.219 55.1827 381.741L55.6215 381.702L55.7191 382.131C56.3139 384.871 56.6552 387.826 56.743 390.917V391.425H37.9126H37.9029ZM56.743 393.687V394.194C56.6357 397.285 56.2944 400.24 55.6996 402.98L55.6021 403.409L55.1632 403.37C50.0631 402.892 44.5827 402.883 39.4534 403.322L39.0146 403.36L38.9268 402.931C38.3417 400.22 38.0004 397.285 37.9029 394.194L37.8833 393.687H56.7235H56.743ZM47.323 369.513C50.1607 369.513 53.0471 373.111 54.8512 378.913L55.0365 379.498L54.4221 379.547C52.0232 379.752 49.5463 379.859 47.0596 379.859C44.7485 379.859 42.4471 379.771 40.2042 379.586L39.5899 379.537L39.7752 378.942C41.5792 373.121 44.4755 369.503 47.323 369.503V369.513ZM29.848 377.275C32.6955 374.028 36.3621 371.639 40.4675 370.371L41.9011 369.932L41.0136 371.141C40.214 372.233 39.4729 373.55 38.8293 375.032C38.3124 376.202 37.8444 377.509 37.4348 378.913L37.3178 379.313L36.8985 379.264C34.5386 378.972 32.2567 378.582 30.1113 378.084L29.3019 377.899L29.848 377.275ZM24.1531 390.898C24.4262 387.095 25.6451 383.389 27.6832 380.161L27.8782 379.859L28.2293 379.947C30.7257 380.581 33.4171 381.088 36.2451 381.449L36.7717 381.517L36.6644 382.043C36.0793 384.871 35.7478 387.865 35.66 390.947V391.425H24.1238L24.1629 390.898H24.1531ZM27.8782 405.252L27.6832 404.95C25.6451 401.732 24.4262 398.017 24.1531 394.213L24.1141 393.687H35.6405V394.165C35.738 397.246 36.0793 400.25 36.6547 403.068L36.7619 403.595L36.2353 403.663C33.4171 404.024 30.7159 404.531 28.2195 405.165L27.8685 405.252H27.8782ZM40.4675 414.75C36.3621 413.483 32.6955 411.094 29.848 407.846L29.3019 407.222L30.1113 407.037C32.2567 406.549 34.5386 406.149 36.8985 405.857L37.3178 405.808L37.4348 406.208C37.8444 407.612 38.3124 408.919 38.8293 410.089C39.4826 411.581 40.214 412.888 41.0136 413.99L41.9011 415.199L40.4675 414.76V414.75ZM47.323 415.599C44.4755 415.599 41.5792 411.981 39.7752 406.159L39.5899 405.564L40.2042 405.516C44.8558 405.145 49.8096 405.155 54.4221 405.555L55.0365 405.603L54.8512 406.188C53.0374 411.981 50.1509 415.589 47.323 415.589V415.599ZM64.7003 407.944C61.8723 411.142 58.2252 413.492 54.1783 414.75L52.7545 415.189L53.6322 413.99C54.4318 412.898 55.1632 411.581 55.8166 410.089C56.3334 408.89 56.8015 407.612 57.1916 406.276L57.3086 405.867L57.7279 405.925C60.0683 406.227 62.3307 406.637 64.4468 407.134L65.2464 407.329L64.7003 407.944ZM70.483 394.213C70.21 398.056 68.9715 401.81 66.8847 405.067L66.6896 405.369L66.3386 405.282C63.8714 404.628 61.1897 404.111 58.3812 403.731L57.8547 403.663L57.9619 403.146C58.547 400.318 58.8883 397.305 58.9761 394.174V393.697H70.5123L70.4733 394.223L70.483 394.213ZM58.9956 391.425V390.947C58.8981 387.816 58.5568 384.793 57.9717 381.975L57.8644 381.458L58.391 381.39C61.1995 381.01 63.8714 380.493 66.3483 379.84L66.6994 379.752L66.8944 380.054C68.9812 383.311 70.2294 387.056 70.4927 390.908L70.5318 391.434H59.0054L58.9956 391.425Z" fill="#478BF9" stroke="black" stroke-width="2" mask="url(#path-39-inside-2_1_6007)"/>
<path d="M3.61377 506.104V394.058" stroke="black"/>
<path d="M2.43396 506.104V394.058C2.43396 393.409 2.95909 392.89 3.60151 392.89C4.24202 392.89 4.76905 393.417 4.76905 394.058V506.104C4.76905 506.752 4.24392 507.271 3.60151 507.271C2.961 507.271 2.43396 506.744 2.43396 506.104Z" fill="#478BF9" stroke="black"/>
<path d="M93.1221 506.357V394.311" stroke="black"/>
<path d="M91.9531 506.357V394.311C91.9531 393.663 92.4782 393.144 93.1206 393.144C93.7611 393.144 94.2882 393.671 94.2882 394.311V506.357C94.2882 507.006 93.763 507.525 93.1206 507.525C92.4801 507.525 91.9531 506.998 91.9531 506.357Z" fill="#478BF9" stroke="black"/>
<path d="M16.2933 246.013C33.5269 228.775 61.5701 228.775 78.8081 246.013L16.2933 246.013ZM16.2933 246.013C-0.944715 263.251 -0.944797 291.294 16.2933 308.527M16.2933 246.013V308.527M16.2933 308.527C33.5313 325.765 61.5745 325.766 78.8081 308.527H16.2933ZM14.789 310.032C-3.27521 291.968 -3.27521 262.577 14.789 244.513C32.8532 226.449 62.2438 226.449 80.308 244.513C98.3722 262.577 98.3722 291.968 80.308 310.032C62.2438 328.096 32.8532 328.096 14.789 310.032ZM78.8082 308.527C96.0461 291.289 96.0462 263.246 78.8081 246.013L78.8082 308.527Z" fill="white" stroke="black"/>
<path d="M58.8341 232.34C58.5217 232.261 58.1874 232.33 57.9272 232.532C57.6692 232.736 57.5193 233.045 57.5193 233.369V244.75C57.5193 245.204 57.8072 245.606 58.2419 245.755C63.1103 247.405 67.43 250.093 71.0763 253.739C74.7271 257.39 77.415 261.705 79.0607 266.575L79.0623 266.579C79.112 266.732 79.2017 266.873 79.3135 266.985L79.3117 266.988C79.5102 267.183 79.7726 267.296 80.0568 267.296H91.4379C91.7646 267.296 92.0707 267.149 92.2724 266.891C92.4736 266.628 92.5447 266.291 92.4669 265.977C90.4375 257.868 86.2291 250.448 80.2981 244.513C74.3673 238.577 66.943 234.369 58.8341 232.34ZM58.8341 232.34L58.9554 231.854L58.8341 232.34ZM80.6986 264.85L80.82 265.174H81.1669H89.3997H90.0719L89.8786 264.531C87.7854 257.56 83.9811 251.191 78.8029 246.013C73.6246 240.834 67.2559 237.03 60.289 234.941L59.6454 234.748V235.42V243.653V244L59.9707 244.121C64.7236 245.894 68.9596 248.62 72.5761 252.239C76.1937 255.857 78.9209 260.094 80.6986 264.85Z" fill="white" stroke="black"/>
<path d="M36.2517 322.209C28.2095 320.196 20.8451 316.04 14.9344 310.186V310.178L14.7879 310.032C8.85711 304.101 4.64435 296.677 2.61486 288.568C2.53676 288.252 2.60889 287.916 2.80853 287.659C3.01019 287.401 3.31673 287.253 3.64386 287.253H15.025C15.4816 287.253 15.8852 287.543 16.0296 287.973L16.03 287.974C17.6756 292.843 20.3635 297.159 24.0143 300.81C27.6607 304.456 31.9808 307.144 36.8496 308.794L36.851 308.794C37.2813 308.939 37.5713 309.342 37.5713 309.799V321.18C37.5713 321.504 37.4213 321.813 37.1634 322.017C36.904 322.218 36.5698 322.288 36.2517 322.209ZM5.69097 289.374V289.797L5.19097 289.87V289.874V290.374H5.32207C7.43705 297.205 11.1989 303.443 16.2878 308.532C21.466 313.71 27.8347 317.514 34.8059 319.608L35.4496 319.801V319.129V310.896V310.549L35.1244 310.427C30.3696 308.654 26.132 305.927 22.5144 302.31C18.8969 298.692 16.1697 294.454 14.3921 289.699L14.2706 289.374H13.9237H5.69097Z" fill="white" stroke="black"/>
<path d="M58.8463 322.196C58.5356 322.273 58.2062 322.205 57.9507 322.013C57.9253 321.99 57.908 321.975 57.8942 321.963C57.874 321.945 57.8613 321.934 57.842 321.915L57.744 321.817C57.6037 321.633 57.5266 321.408 57.5266 321.172V309.79C57.5266 309.334 57.8166 308.93 58.247 308.786L58.248 308.785C63.1173 307.14 67.4329 304.452 71.0836 300.801C74.7346 297.15 77.4178 292.835 79.0678 287.966L79.0683 287.965C79.2127 287.534 79.6163 287.244 80.073 287.244H91.4541C91.7787 287.244 92.0876 287.395 92.2914 287.653C92.4914 287.907 92.5618 288.244 92.4833 288.559C90.4494 296.668 86.2409 304.088 80.3099 310.023C74.3792 315.958 66.9551 320.167 58.8463 322.196ZM59.9736 310.423L59.6483 310.545V310.892V319.124V319.797L60.2921 319.603C67.2632 317.51 73.6319 313.706 78.8102 308.528C83.9886 303.349 87.7883 296.981 89.8858 290.01L90.0796 289.366H89.407H81.1742H80.8271L80.7057 289.691C78.9326 294.446 76.2056 298.679 72.5835 302.301C68.9657 305.919 64.7281 308.65 59.9736 310.423Z" fill="white" stroke="black"/>
<path d="M3.64014 267.296C3.39224 267.296 3.156 267.212 2.97186 267.065L2.89243 266.985C2.85784 266.951 2.83326 266.922 2.81892 266.903L2.81323 266.895L2.80723 266.887C2.60777 266.634 2.53646 266.296 2.6156 265.976C4.64514 257.867 8.85349 250.444 14.7885 244.513C20.7239 238.582 28.1437 234.369 36.2523 232.34C36.5679 232.262 36.9028 232.334 37.1599 232.532C37.4177 232.736 37.5676 233.045 37.5676 233.369V244.75C37.5676 245.206 37.2776 245.61 36.8472 245.755L36.8462 245.755C31.977 247.4 27.6613 250.088 24.0105 253.739C20.364 257.386 17.6763 261.706 16.0264 266.574L16.0259 266.576C15.8814 267.006 15.4779 267.296 15.0212 267.296H3.64014ZM35.4459 235.42V234.748L34.8021 234.941C27.831 237.035 21.4623 240.839 16.284 246.017C11.1056 251.195 7.30594 257.564 5.20843 264.535L5.01463 265.179H5.68722H13.92H14.2671L14.3884 264.854C16.1616 260.099 18.8885 255.866 22.5107 252.244C26.1283 248.626 30.3659 245.899 35.121 244.121L35.4459 244V243.653V235.42Z" fill="white" stroke="black"/>
<path d="M22.5139 252.239L22.5139 252.239C36.3152 238.434 58.7784 238.438 72.5798 252.239C86.3811 266.041 86.3855 288.5 72.5798 302.305C58.7741 316.111 36.3152 316.107 22.5139 302.305C8.71256 288.504 8.7082 266.045 22.5139 252.239Z" fill="white" stroke="black"/>
<path d="M34.7112 290.757L60.5012 290.586C61.3115 290.581 61.9727 291.234 61.9781 292.044L61.9842 292.963C61.9895 293.773 61.337 294.434 60.5268 294.44L34.7367 294.611C33.9265 294.616 33.2652 293.964 33.2599 293.153L33.2538 292.234C33.2484 291.424 33.9009 290.763 34.7112 290.757Z" fill="#110A1D" stroke="black"/>
<path d="M38.2173 274.015H38.1105C37.9405 274.001 37.7716 273.957 37.6177 273.882L35.6077 272.911C35.6075 272.911 35.6073 272.91 35.6071 272.91C34.9678 272.598 34.6768 271.842 34.942 271.185L34.9424 271.184L35.8655 268.885C35.8656 268.885 35.8656 268.885 35.8657 268.885C36.0744 268.37 36.5632 268.038 37.1131 268.034C37.3544 268.034 37.5864 268.094 37.7895 268.211L37.7894 268.211L37.792 268.213L40.1899 269.58L40.1899 269.58L40.1919 269.582C40.5154 269.764 40.7535 270.085 40.8382 270.456C40.9226 270.826 40.8478 271.216 40.6341 271.527C40.6341 271.527 40.634 271.527 40.6339 271.527L39.32 273.431L39.3196 273.432C39.07 273.795 38.655 274.015 38.2173 274.015Z" fill="#110A1D" stroke="black"/>
<path d="M55.6718 273.326L55.6718 273.326L55.6705 273.324L54.3694 271.49L54.3694 271.49L54.3681 271.489C54.1498 271.183 54.0705 270.794 54.1489 270.422C54.2264 270.054 54.46 269.729 54.7866 269.538L54.7875 269.538L57.2609 268.085L57.261 268.085C57.465 267.966 57.699 267.9 57.9363 267.897C58.4877 267.894 58.983 268.221 59.1976 268.731C59.1977 268.731 59.1978 268.732 59.1979 268.732L60.1296 270.964C60.1297 270.964 60.1297 270.964 60.1298 270.964C60.4021 271.619 60.1183 272.383 59.488 272.7C59.4878 272.7 59.4877 272.7 59.4876 272.7L57.3854 273.752C57.1956 273.845 56.9869 273.895 56.7902 273.895H56.7857C56.3393 273.895 55.9215 273.681 55.6718 273.326Z" fill="#110A1D" stroke="black"/>
<path d="M36.0503 288.03C35.1884 287.98 34.4285 287.419 34.1302 286.596L34.1301 286.595L29.8272 274.752L29.6381 274.232L29.1395 274.473C28.8988 274.59 28.6383 274.681 28.3686 274.749C28.0577 274.828 27.7436 274.867 27.4256 274.867C27.2302 274.867 27.0496 274.859 26.8789 274.836L26.8757 274.836C24.8828 274.583 23.3682 272.872 23.3563 270.857L23.3563 270.857C23.3405 268.629 25.1428 266.802 27.3714 266.786C29.5991 266.771 31.4246 268.572 31.4372 270.799C31.437 271.319 31.3491 271.811 31.1699 272.267L31.1695 272.268C31.0703 272.522 30.9467 272.765 30.8019 272.999L30.509 273.471L31.0089 273.712L39.1928 277.673L39.5786 277.86L39.8221 277.507L46.0833 268.435L46.4318 267.93L45.8668 267.691C45.6351 267.593 45.4113 267.471 45.1995 267.326L45.197 267.324C44.7926 267.051 44.441 266.711 44.1568 266.312C43.6737 265.631 43.4137 264.83 43.4097 264.002L43.4097 264C43.3939 261.773 45.1953 259.947 47.4231 259.93C47.5371 259.93 47.6317 259.93 47.7189 259.937L47.7189 259.937L47.7252 259.938C49.7191 260.072 51.332 261.673 51.4786 263.666C51.546 264.614 51.2973 265.517 50.7597 266.288C50.4738 266.693 50.1259 267.036 49.7281 267.308L49.7281 267.308L49.7239 267.311C49.5189 267.454 49.2966 267.575 49.0646 267.673L48.492 267.916L48.852 268.423L55.2241 277.402L55.4722 277.751L55.8556 277.56L63.9063 273.532L64.3616 273.304L64.1256 272.853C63.9908 272.595 63.8838 272.326 63.8043 272.044C63.7095 271.704 63.6586 271.35 63.6586 270.993C63.6586 270.828 63.6666 270.664 63.6824 270.505C63.913 268.475 65.6273 266.936 67.6686 266.924L67.6692 266.924C69.8974 266.908 71.7232 268.71 71.735 270.938L71.735 270.939C71.7508 273.061 70.1029 274.846 67.9868 274.997L67.7203 275.005C67.3072 275.004 66.9067 274.948 66.5206 274.832C66.2622 274.751 66.0197 274.652 65.798 274.53L65.279 274.243L65.0842 274.803L61.0433 286.415L61.0428 286.417C60.7442 287.284 59.9218 287.871 58.9989 287.878C58.9987 287.878 58.9985 287.878 58.9983 287.878M36.0503 288.03L58.9983 287.878M36.0503 288.03L36.1923 288.029L58.9983 287.878M36.0503 288.03L58.9983 287.878" fill="#110A1D" stroke="black"/>
<path d="M17.1951 127.299L17.1948 127.3C0.236559 144.258 0.236559 171.85 17.1948 188.808L17.3413 188.954H17.3517C34.3221 205.766 61.8036 205.717 78.713 188.808C95.6712 171.85 95.6712 144.258 78.713 127.3C70.496 119.083 59.5738 114.564 47.9539 114.564C36.3338 114.564 25.4117 119.093 17.1951 127.299ZM47.9637 203.976C36.1935 203.976 24.4352 199.5 15.4738 190.539C-2.43967 172.625 -2.43967 143.482 15.4738 125.569C24.1564 116.886 35.6922 112.112 47.9637 112.112C60.2352 112.112 71.7709 116.886 80.4535 125.569C98.367 143.482 98.367 172.625 80.4535 190.539C71.5018 199.491 59.7338 203.976 47.9637 203.976Z" fill="#7DDACF" stroke="black"/>
<path d="M46.7401 160.331V159.831H46.2401H42.0526L49.1825 149.84V156.889V157.389H49.6825H53.8695L46.7401 167.372V160.331Z" fill="#7DDACF" stroke="black"/>
<path d="M31.3892 158.644C31.3892 149.5 38.8106 142.079 47.9545 142.079C57.098 142.079 64.5198 149.519 64.5198 158.644C64.5198 167.768 57.0988 175.19 47.9545 175.19C38.8098 175.19 31.3892 167.787 31.3892 158.644ZM32.476 158.605C32.476 167.15 39.409 174.083 47.9545 174.083C56.5 174.083 63.433 167.15 63.433 158.605C63.433 150.059 56.5 143.126 47.9545 143.126C39.409 143.126 32.476 150.059 32.476 158.605Z" fill="#7DDACF" stroke="black"/>
<path d="M73.9805 132.034L73.9804 132.034C67.0339 125.078 57.79 121.259 47.956 121.259C38.1227 121.259 28.8883 125.087 21.9315 132.034C7.58723 146.379 7.58702 169.729 21.9315 184.083C21.9315 184.084 21.9316 184.084 21.9316 184.084M73.9805 132.034L74.3342 131.681C88.8738 146.23 88.8738 169.897 74.3342 184.437C67.0595 191.712 57.5126 195.349 47.956 195.349C38.3995 195.349 28.8527 191.712 21.578 184.437L21.9316 184.084M73.9805 132.034C88.3251 146.389 88.325 169.739 73.9806 184.083C66.8037 191.26 57.3858 194.849 47.956 194.849C38.5264 194.849 29.1086 191.26 21.9316 184.084M73.9805 132.034L21.9316 184.084M50.5527 134.18H51.964C53.9272 134.18 55.5455 132.562 55.5455 130.598V128.989C55.5455 127.005 53.9251 125.408 51.964 125.408H43.9677C42.0066 125.408 40.3861 127.005 40.3861 128.989V130.598C40.3861 132.562 42.0045 134.18 43.9677 134.18H45.3789V135.137C40.7925 135.619 36.5804 137.449 33.1669 140.193L30.6592 137.685L30.6571 137.683C29.6471 136.685 28.0139 136.666 27.005 137.687C26.0043 138.7 26.0013 140.332 27.0071 141.337L29.5157 143.846C26.2628 147.915 24.3155 153.059 24.3155 158.654C24.3155 171.685 34.9248 182.294 47.956 182.294H47.9756C61.0068 182.294 71.6161 171.685 71.6161 158.654C71.6161 153.049 69.6687 147.915 66.4159 143.846L68.9245 141.337L68.9266 141.335C69.9273 140.323 69.9303 138.691 68.9245 137.685L68.9224 137.683C67.9097 136.683 66.2782 136.68 65.2724 137.685L62.7642 140.194C59.3513 137.458 55.1473 135.628 50.5527 135.137V134.18Z" fill="#7DDACF" stroke="black"/>
<path d="M48.8347 93.1593C23.5129 93.1593 2.91699 72.5538 2.91699 47.2416C2.91699 21.9296 23.5226 1.32397 48.8347 1.32397C74.1468 1.32397 94.7523 21.9296 94.7523 47.2416C94.7523 72.5537 74.1468 93.1593 48.8347 93.1593ZM48.8347 3.41522C24.6671 3.41522 5.0083 23.0741 5.0083 47.2416C5.0083 71.4092 24.6671 91.068 48.8347 91.068C73.0023 91.068 92.6611 71.4092 92.6611 47.2416C92.6611 23.0741 73.0023 3.41522 48.8347 3.41522Z" fill="white" stroke="black"/>
<path d="M65.4593 28.4893L79.1223 14.8263L81.2423 16.9463L67.5793 30.6093L65.4593 28.4893Z" fill="white" stroke="black"/>
<path d="M15.9951 77.9553L29.658 64.2924L31.778 66.4124L18.1151 80.0753L15.9951 77.9553Z" fill="white" stroke="black"/>
<path d="M65.8949 66.4097L68.0149 64.2897L81.6778 77.9526L79.5578 80.0726L65.8949 66.4097Z" fill="white" stroke="black"/>
<path d="M16.0061 16.5107L18.1261 14.3907L31.7821 28.0468L29.6621 30.1668L16.0061 16.5107Z" fill="white" stroke="black"/>
<path d="M59.8134 48.1363L59.5948 48.3549L59.6045 48.3841L58.7504 49.2382L58.7486 49.2401C58.0189 49.9775 56.8254 49.9801 56.0835 49.2382L55.7602 49.5615L56.0835 49.2382L54.9889 48.1437L55.9688 47.1637L56.5758 47.7707C57.0344 48.2293 57.7898 48.2293 58.2483 47.7707L58.2484 47.7707L58.3556 47.6634C58.8141 47.2049 58.8141 46.4495 58.3556 45.9909L57.6827 45.3181C57.0291 44.6645 55.9714 44.6645 55.3178 45.3181L55.6714 45.6716L55.3178 45.3181L51.3899 49.246C51.3896 49.2463 51.3893 49.2466 51.389 49.2469C50.7863 49.8422 49.8636 49.9179 49.1853 49.481L52.3096 46.3567L52.3256 46.3407L52.3401 46.3233C52.5276 46.0983 52.5694 45.7242 52.3096 45.4644C52.3096 45.4644 52.3096 45.4644 52.3096 45.4643L51.9976 45.1523L51.9976 45.1523C51.344 44.4987 50.2863 44.4987 49.6327 45.1523L45.5682 49.2168C45.5678 49.2171 45.5675 49.2174 45.5672 49.2178C44.9645 49.8129 44.0419 49.8887 43.3636 49.4518L46.6147 46.2007C46.8684 45.9469 46.8684 45.5426 46.6147 45.2888L46.3026 44.9768C45.649 44.3232 44.5913 44.3232 43.9377 44.9768L44.2913 45.3303L43.9377 44.9768L39.6968 49.2177C39.0941 49.8129 38.1714 49.8887 37.4931 49.4518L43.7867 43.1582L43.7867 43.1582L43.7885 43.1564C44.518 42.4192 45.711 42.4163 46.453 43.1576C46.4532 43.1578 46.4534 43.158 46.4536 43.1582L47.6907 44.405L48.0459 44.763L48.4008 44.4048L49.4735 43.3224L49.4737 43.3221C50.2034 42.5848 51.3969 42.5821 52.1388 43.324L53.3773 44.5624L53.7308 44.916L54.0844 44.5624L55.1571 43.4898L55.1589 43.4879C55.8886 42.7505 57.0821 42.7478 57.824 43.4898L57.8249 43.4906L59.8142 45.4702L59.8152 45.4712C60.5526 46.2009 60.5553 47.3944 59.8134 48.1363Z" fill="white" stroke="black"/>
<path d="M50.3176 22.1293L49.7887 22.0986V22.6285V29.8934V30.3532L50.2468 30.3917C53.8556 30.6948 57.1417 32.1248 59.7463 34.3316L60.0975 34.6292L60.4231 34.3037L65.5622 29.1646L65.9372 28.7895L65.5407 28.4372C61.4423 24.7964 56.1487 22.4676 50.3176 22.1293ZM47.8924 22.6285V22.0986L47.3634 22.1293C41.5324 22.4676 36.2388 24.7964 32.1404 28.4372L31.7438 28.7895L32.1189 29.1646L37.258 34.3037L37.5835 34.6292L37.9348 34.3316C40.5401 32.1242 43.826 30.6853 47.433 30.3918L47.8924 30.3544V29.8934V22.6285ZM30.7782 30.5053L30.4031 30.1302L30.0508 30.5268C26.41 34.6252 24.0813 39.9188 23.7429 45.7499L23.7122 46.2788H24.2421H31.5071H31.9668L32.0053 45.8207C32.3084 42.2119 33.7384 38.9258 35.9452 36.3212L36.2428 35.9699L35.9173 35.6444L30.7782 30.5053ZM24.2421 48.175H23.7122L23.7429 48.704C24.0813 54.5351 26.41 59.8287 30.0508 63.9271L30.4031 64.3236L30.7782 63.9486L35.9173 58.8095L36.2428 58.4839L35.9452 58.1327C33.7377 55.5274 32.2989 52.2415 32.0054 48.6345L31.968 48.175H31.5071H24.2421ZM47.3634 72.3245L47.8924 72.3552V71.8254V64.5604V64.1006L47.4343 64.0622C43.8255 63.7591 40.5394 62.3291 37.9348 60.1222L37.5835 59.8246L37.258 60.1502L32.1189 65.2893L31.7438 65.6643L32.1404 66.0166C36.2388 69.6574 41.5324 71.9862 47.3634 72.3245ZM49.7887 71.8254V72.3552L50.3176 72.3245C56.1487 71.9862 61.4423 69.6574 65.5407 66.0166L65.9372 65.6643L65.5622 65.2893L60.4231 60.1502L60.0975 59.8246L59.7463 60.1222C57.1409 62.3297 53.8551 63.7686 50.2481 64.062L49.7887 64.0994V64.5604V71.8254ZM66.9029 63.9486L67.278 64.3236L67.6302 63.9271C71.271 59.8287 73.5998 54.5351 73.9381 48.704L73.9688 48.175H73.439H66.174H65.7143L65.6758 48.6332C65.3727 52.242 63.9427 55.5281 61.7359 58.1327L61.4383 58.4839L61.7638 58.8095L66.9029 63.9486ZM65.6757 45.8194L65.713 46.2788H66.174H73.439H73.9688L73.9381 45.7499C73.5998 39.9188 71.271 34.6252 67.6302 30.5268L67.278 30.1302L66.9029 30.5053L61.7638 35.6444L61.4383 35.9699L61.7359 36.3212C63.9433 38.9265 65.3822 42.2124 65.6757 45.8194ZM13.7423 47.2318C13.7423 27.8487 29.4526 12.1384 48.8357 12.1384C68.2188 12.1384 83.9291 27.8487 83.9291 47.2318C83.9291 66.6149 68.2188 82.3251 48.8357 82.3251C29.4526 82.3251 13.7423 66.6149 13.7423 47.2318ZM48.8357 31.7631C40.2999 31.7631 33.3767 38.6863 33.3767 47.222C33.3767 55.7578 40.2999 62.681 48.8357 62.681C57.3714 62.681 64.2946 55.7578 64.2946 47.222C64.2946 38.6863 57.3714 31.7631 48.8357 31.7631Z" fill="white" stroke="black"/>
</g>
</svg>
