<svg width="99" height="1334" viewBox="0 0 99 1334" fill="none" xmlns="http://www.w3.org/2000/svg">
<g opacity="0.2">
<path d="M46.5932 1250C34.6962 1250 22.809 1245.48 13.7498 1236.42C-4.35897 1218.31 -4.35897 1188.85 13.7498 1170.74C22.5262 1161.96 34.1891 1157.14 46.5932 1157.14C58.9972 1157.14 70.6602 1161.96 79.4366 1170.74C97.5454 1188.85 97.5454 1218.31 79.4366 1236.42C70.3872 1245.47 58.4901 1250 46.5932 1250ZM16.1877 1233.98C32.9507 1250.74 60.226 1250.74 76.989 1233.98C93.752 1217.21 93.752 1189.94 76.989 1173.18C68.8659 1165.05 58.0709 1160.59 46.5835 1160.59C35.0961 1160.59 24.301 1165.06 16.1779 1173.18C-0.585109 1189.94 -0.585109 1217.21 16.1779 1233.98H16.1877Z" fill="#9DADF2"/>
<path d="M45.979 1220.95C46.1448 1221.35 46.5348 1221.58 46.9444 1221.58C47.0809 1221.58 47.2174 1221.55 47.3539 1221.51C50.6305 1220.13 53.6145 1218 55.9744 1215.35C56.3547 1214.92 56.3157 1214.26 55.8866 1213.88C55.4575 1213.5 54.7944 1213.54 54.4141 1213.97C52.259 1216.4 49.5383 1218.34 46.5445 1219.58C46.0179 1219.81 45.7644 1220.42 45.9887 1220.95H45.979Z" fill="#9DADF2"/>
<path d="M64.2908 1187.52L46.9719 1180.6C46.7184 1180.5 46.4454 1180.5 46.1918 1180.6L28.8729 1187.52C28.4731 1187.68 28.2196 1188.06 28.2196 1188.49V1200.89C28.2391 1212.34 35.4748 1222.69 46.2211 1226.62C46.3381 1226.66 46.4551 1226.68 46.5819 1226.68C46.7087 1226.68 46.8257 1226.66 46.9427 1226.62C57.689 1222.68 64.9246 1212.34 64.9441 1200.89V1188.49C64.9441 1188.06 64.6906 1187.68 64.2908 1187.52ZM62.8573 1200.89C62.8378 1211.31 56.3042 1220.79 46.5916 1224.53C36.879 1220.79 30.3357 1211.31 30.3162 1200.89V1189.2L46.5916 1182.69L62.8573 1189.2V1200.89Z" fill="#9DADF2"/>
<path d="M39.3566 1189.15C39.103 1189.04 38.8202 1189.04 38.5569 1189.15L34.432 1190.8C34.0322 1190.95 33.7787 1191.33 33.7787 1191.76V1196.16C33.7787 1196.74 34.2468 1197.2 34.8221 1197.2C35.3975 1197.2 35.8655 1196.74 35.8655 1196.16V1192.47L39.3274 1191.09C39.5906 1190.98 39.7856 1190.79 39.9027 1190.52C40.0099 1190.27 40.0099 1189.99 39.9027 1189.72C39.7954 1189.46 39.6004 1189.27 39.3468 1189.15H39.3566Z" fill="#9DADF2"/>
<path d="M72.971 1177.2C65.9304 1170.15 56.559 1166.28 46.5929 1166.28C36.6267 1166.28 27.2652 1170.16 20.2148 1177.2C5.67515 1191.74 5.67515 1215.41 20.2148 1229.96C27.4895 1237.23 37.0363 1240.86 46.5929 1240.86C56.1495 1240.86 65.6963 1237.23 72.971 1229.96C87.5107 1215.42 87.5107 1191.75 72.971 1177.2ZM67.8124 1200.89C67.8417 1214.12 59.387 1225.7 46.7782 1229.71C46.6611 1229.75 46.5344 1229.75 46.4076 1229.71C33.7988 1225.7 25.3442 1214.12 25.3734 1200.89V1186.25C25.3734 1186.01 25.5197 1185.79 25.7537 1185.69L46.3686 1177.45C46.4369 1177.42 46.5149 1177.41 46.5929 1177.41C46.6709 1177.41 46.749 1177.42 46.8172 1177.45L67.4321 1185.7C67.6662 1185.79 67.8124 1186.01 67.8124 1186.26V1200.9V1200.89Z" fill="#9DADF2"/>
<path d="M46.5932 1131.38C20.9952 1131.38 0.175537 1110.55 0.175537 1084.96C0.175537 1059.38 21.005 1038.55 46.5932 1038.55C72.1814 1038.55 93.0109 1059.38 93.0109 1084.96C93.0109 1110.55 72.1814 1131.38 46.5932 1131.38ZM46.5932 1041.64C22.7017 1041.64 3.26678 1061.07 3.26678 1084.96C3.26678 1108.86 22.7017 1128.29 46.5932 1128.29C70.4846 1128.29 89.9196 1108.86 89.9196 1084.96C89.9196 1061.07 70.4846 1041.64 46.5932 1041.64Z" fill="#7DDACF"/>
<path d="M76.8845 1051.84L62.5144 1066.21L65.3416 1069.04L79.7116 1054.67L76.8845 1051.84Z" fill="#7DDACF"/>
<path d="M27.4166 1101.31L13.0465 1115.68L15.8736 1118.51L30.2437 1104.14L27.4166 1101.31Z" fill="#7DDACF"/>
<path d="M65.7624 1101.32L62.9353 1104.14L77.3054 1118.51L80.1325 1115.69L65.7624 1101.32Z" fill="#7DDACF"/>
<path d="M15.8701 1051.42L13.043 1054.24L27.4062 1068.61L30.2333 1065.78L15.8701 1051.42Z" fill="#7DDACF"/>
<path d="M57.9146 1086.21C58.8507 1085.28 58.8507 1083.76 57.9146 1082.84L55.9252 1080.86C54.9891 1079.92 53.4776 1079.92 52.5512 1080.86L51.4785 1081.93L50.2401 1080.69C49.3039 1079.76 47.7924 1079.76 46.866 1080.69L45.7933 1081.78L44.5549 1080.53C43.6187 1079.59 42.1072 1079.59 41.1808 1080.53L34.5985 1087.11C34.5497 1087.16 34.5497 1087.24 34.5985 1087.29C35.4761 1088.17 36.9096 1088.17 37.797 1087.29L42.0389 1083.05C42.4973 1082.59 43.2384 1082.59 43.6967 1083.05L44.0088 1083.37C44.0673 1083.42 44.0673 1083.51 44.0088 1083.57L40.4689 1087.11C40.4202 1087.16 40.4202 1087.24 40.4689 1087.29C41.3466 1088.17 42.78 1088.17 43.6674 1087.29L47.7339 1083.23C48.1922 1082.77 48.9334 1082.77 49.3917 1083.23L49.7037 1083.54C49.7525 1083.59 49.7525 1083.67 49.7037 1083.73L46.2906 1087.14C46.2419 1087.19 46.2419 1087.27 46.2906 1087.32C47.1683 1088.2 48.6018 1088.2 49.4892 1087.32L53.4191 1083.39C53.8774 1082.94 54.6185 1082.94 55.0768 1083.39L55.7497 1084.07C56.013 1084.33 56.013 1084.77 55.7497 1085.03L55.6424 1085.14C55.3792 1085.4 54.9403 1085.4 54.677 1085.14L53.8091 1084.27C53.7604 1084.22 53.6824 1084.22 53.6239 1084.27L52.1221 1085.77C52.0734 1085.82 52.0734 1085.9 52.1221 1085.96L53.4776 1087.31C54.4137 1088.25 55.9252 1088.25 56.8516 1087.31L57.9244 1086.24L57.9146 1086.21Z" fill="#7DDACF"/>
<path d="M46.5942 1049.37C26.935 1049.37 11.0009 1065.3 11.0009 1084.96C11.0009 1104.62 26.935 1120.56 46.5942 1120.56C66.2535 1120.56 82.1876 1104.62 82.1876 1084.96C82.1876 1065.3 66.2535 1049.37 46.5942 1049.37ZM48.0473 1060.36C53.7617 1060.69 58.9496 1062.97 62.9672 1066.54L57.8281 1071.68C55.1464 1069.41 51.7626 1067.94 48.0473 1067.63V1060.36ZM45.151 1060.36V1067.63C41.4356 1067.93 38.0519 1069.41 35.3702 1071.68L30.2311 1066.54C34.2487 1062.97 39.4366 1060.69 45.151 1060.36ZM28.1832 1068.59L33.3223 1073.73C31.0502 1076.41 29.5777 1079.8 29.2657 1083.51H22.0007C22.3323 1077.8 24.6142 1072.61 28.1832 1068.59ZM22.0007 1086.41H29.2657C29.568 1090.12 31.0502 1093.51 33.3223 1096.19L28.1832 1101.33C24.6142 1097.31 22.3323 1092.12 22.0007 1086.41ZM45.151 1109.56C39.4366 1109.23 34.2487 1106.94 30.2311 1103.38L35.3702 1098.24C38.0519 1100.51 41.4356 1101.98 45.151 1102.29V1109.56ZM31.6353 1084.95C31.6353 1076.69 38.3346 1070 46.5942 1070C54.8538 1070 61.5532 1076.69 61.5532 1084.95C61.5532 1093.21 54.8538 1099.91 46.5942 1099.91C38.3346 1099.91 31.6353 1093.21 31.6353 1084.95ZM48.0473 1109.56V1102.29C51.7626 1101.99 55.1464 1100.51 57.8281 1098.24L62.9672 1103.38C58.9496 1106.94 53.7617 1109.23 48.0473 1109.56ZM65.015 1101.33L59.876 1096.19C62.1481 1093.51 63.6206 1090.12 63.9326 1086.41H71.1976C70.866 1092.12 68.5841 1097.31 65.015 1101.33ZM63.9326 1083.51C63.6303 1079.8 62.1481 1076.41 59.876 1073.73L65.015 1068.59C68.5841 1072.61 70.866 1077.8 71.1976 1083.51H63.9326Z" fill="#7DDACF"/>
<path d="M46.7284 1015.72C21.1305 1015.72 0.310791 994.888 0.310791 969.3C0.310791 943.712 21.1402 922.882 46.7284 922.882C72.3167 922.882 93.1461 943.712 93.1461 969.3C93.1461 994.888 72.3167 1015.72 46.7284 1015.72ZM46.7284 925.974C22.837 925.974 3.40203 945.409 3.40203 969.3C3.40203 993.191 22.837 1012.63 46.7284 1012.63C70.6199 1012.63 90.0548 993.191 90.0548 969.3C90.0548 945.409 70.6199 925.974 46.7284 925.974Z" fill="#9DADF2"/>
<path d="M61.7881 940.318C61.5541 940.318 61.32 940.269 61.1055 940.162C56.61 937.939 51.7732 936.808 46.7316 936.808C41.69 936.808 36.8533 937.939 32.3578 940.162C31.7629 940.455 31.051 940.338 30.583 939.87L22.6062 931.893C22.2648 931.551 22.1088 931.083 22.1673 930.606C22.2258 930.128 22.4989 929.708 22.9084 929.465C30.0954 925.154 38.3355 922.882 46.7414 922.882C55.1473 922.882 63.3874 925.164 70.5743 929.465C70.9839 929.708 71.2569 930.128 71.3155 930.606C71.374 931.083 71.2082 931.551 70.8766 931.893L62.8998 939.87C62.5975 940.162 62.2074 940.318 61.7979 940.318H61.7881ZM46.7316 933.716C51.8707 933.716 56.8245 934.789 61.4663 936.905L67.2393 931.132C60.9592 927.748 53.9088 925.974 46.7316 925.974C39.5544 925.974 32.5041 927.748 26.224 931.132L31.997 936.905C36.6387 934.789 41.5925 933.716 46.7316 933.716Z" fill="#9DADF2"/>
<path d="M46.7299 1015.72C38.324 1015.72 30.0839 1013.44 22.897 1009.14C22.4874 1008.89 22.2144 1008.47 22.1559 1007.99C22.0974 1007.52 22.2631 1007.05 22.5947 1006.71L30.5715 998.73C31.0396 998.262 31.7612 998.145 32.3463 998.438C36.8418 1000.66 41.6786 1001.79 46.7202 1001.79C51.7618 1001.79 56.5986 1000.66 61.0941 998.438C61.6889 998.145 62.4008 998.262 62.8688 998.73L70.8457 1006.71C71.187 1007.05 71.343 1007.52 71.2845 1007.99C71.226 1008.47 70.9529 1008.89 70.5434 1009.14C63.3564 1013.45 55.1164 1015.72 46.7105 1015.72H46.7299ZM26.2223 1007.47C32.5024 1010.85 39.5528 1012.63 46.7299 1012.63C53.9071 1012.63 60.9576 1010.85 67.2376 1007.47L61.4646 1001.69C56.8228 1003.81 51.869 1004.88 46.7299 1004.88C41.5908 1004.88 36.637 1003.81 31.9953 1001.69L26.2223 1007.47Z" fill="#9DADF2"/>
<path d="M85.2394 993.884C84.8298 993.884 84.4398 993.728 84.1472 993.435L76.1704 985.458C75.7023 984.99 75.5853 984.268 75.8779 983.683C78.1012 979.188 79.2324 974.351 79.2324 969.31C79.2324 964.268 78.1012 959.431 75.8779 954.936C75.5853 954.341 75.7023 953.619 76.1704 953.161L84.1472 945.184C84.4885 944.843 84.9566 944.687 85.4344 944.745C85.9123 944.804 86.3316 945.077 86.5754 945.486C90.8856 952.673 93.1577 960.913 93.1577 969.319C93.1577 977.725 90.8856 985.965 86.5754 993.152C86.3316 993.562 85.9123 993.835 85.4344 993.893C85.3662 993.893 85.3077 993.893 85.2394 993.893V993.884ZM79.1252 984.034L84.8981 989.807C88.2819 983.527 90.0567 976.477 90.0567 969.3C90.0567 962.123 88.2819 955.072 84.8981 948.792L79.1252 954.565C81.2413 959.207 82.3139 964.161 82.3139 969.3C82.3139 974.439 81.2413 979.393 79.1252 984.034Z" fill="#9DADF2"/>
<path d="M8.21909 993.884C8.15083 993.884 8.09231 993.884 8.0338 993.874C7.55598 993.816 7.13667 993.543 6.89288 993.133C2.58267 985.946 0.310547 977.706 0.310547 969.3C0.310547 960.894 2.58267 952.654 6.89288 945.467C7.13667 945.057 7.55598 944.784 8.0338 944.726C8.51163 944.667 8.97972 944.833 9.32102 945.165L17.2978 953.142C17.7659 953.61 17.8829 954.331 17.5904 954.916C15.367 959.412 14.2358 964.249 14.2358 969.29C14.2358 974.332 15.367 979.169 17.5904 983.664C17.8829 984.259 17.7659 984.981 17.2978 985.439L9.32102 993.416C9.02848 993.708 8.63842 993.874 8.22885 993.874L8.21909 993.884ZM8.56037 948.792C5.17656 955.072 3.40179 962.123 3.40179 969.3C3.40179 976.477 5.17656 983.528 8.56037 989.808L14.3334 984.035C12.2173 979.393 11.1446 974.439 11.1446 969.3C11.1446 964.161 12.2173 959.207 14.3334 954.565L8.56037 948.792Z" fill="#9DADF2"/>
<path d="M46.7295 933.707C27.1092 933.707 11.1361 949.67 11.1361 969.3C11.1361 988.93 27.0995 1004.89 46.7295 1004.89C66.3595 1004.89 82.3229 988.93 82.3229 969.3C82.3229 949.67 66.3595 933.707 46.7295 933.707ZM66.7593 957.608C68.4464 960.494 69.4703 963.644 69.8018 966.989C69.8116 967.125 69.753 967.252 69.636 967.32C67.0908 968.881 64.809 970.792 62.8392 973.025C62.7514 973.132 62.6051 973.171 62.4784 973.123L58.0804 971.689C57.9536 971.65 57.8658 971.543 57.8463 971.406C57.349 967.769 56.2178 964.288 54.482 961.05C54.4235 960.933 54.4333 960.796 54.5113 960.689L57.232 956.945C57.3002 956.857 57.4075 956.798 57.5148 956.798C57.544 956.798 57.5635 956.798 57.5928 956.798C60.4988 957.442 63.4828 957.656 66.4473 957.413C66.5838 957.403 66.7105 957.471 66.7788 957.588L66.7593 957.608ZM55.4474 972.021C55.4572 972.118 55.4279 972.216 55.3694 972.284C53.0583 974.946 50.1133 977.082 46.866 978.447C46.7783 978.486 46.6905 978.486 46.6027 978.447C43.3554 977.072 40.4105 974.936 38.0993 972.284C38.0408 972.216 38.0116 972.118 38.0213 972.021C38.4699 968.491 39.5718 965.116 41.2784 961.996C41.3271 961.908 41.4051 961.85 41.5026 961.83C43.2189 961.469 44.9742 961.284 46.7392 961.284C48.5043 961.284 50.2596 961.469 51.9759 961.83C52.0734 961.85 52.1514 961.908 52.2001 961.996C53.9067 965.116 54.9989 968.491 55.4572 972.021H55.4474ZM54.9209 947.817C54.9209 947.817 55.0379 947.72 55.1549 947.72C55.1939 947.72 55.2427 947.72 55.2914 947.749C58.88 949.173 62.0883 951.513 64.5847 954.507C64.7115 954.653 64.6627 954.809 64.6334 954.868C64.6139 954.916 64.5262 955.072 64.3214 955.072C62.1078 955.102 59.9039 954.848 57.7683 954.341C57.6806 954.321 57.6026 954.263 57.5538 954.185C56.4129 952.303 55.4962 950.275 54.8331 948.168C54.7746 947.983 54.8819 947.856 54.9306 947.817H54.9209ZM41.8049 946.647C45.0327 945.955 48.436 945.955 51.6638 946.647C51.7906 946.676 51.8979 946.774 51.9271 946.901C52.6195 949.797 53.7409 952.566 55.2524 955.131C55.3206 955.248 55.3109 955.394 55.2329 955.511L52.5317 959.236C52.4537 959.344 52.3172 959.402 52.1904 959.373C48.6213 958.651 44.8475 958.651 41.2784 959.373C41.1516 959.402 41.015 959.344 40.937 959.236L38.2359 955.511C38.1579 955.404 38.1481 955.248 38.2163 955.131C39.7278 952.566 40.8493 949.797 41.5416 946.901C41.5709 946.774 41.6782 946.676 41.8049 946.647ZM28.8841 954.507C31.3805 951.503 34.5888 949.163 38.1774 947.749C38.2261 947.729 38.2748 947.72 38.3138 947.72C38.4406 947.72 38.5186 947.788 38.5479 947.817C38.5966 947.866 38.7039 947.983 38.6454 948.168C37.9823 950.284 37.0656 952.303 35.9247 954.185C35.8759 954.263 35.7979 954.321 35.7102 954.341C33.5746 954.848 31.3707 955.102 29.1571 955.072C28.9523 955.072 28.8646 954.916 28.8451 954.868C28.8158 954.809 28.767 954.653 28.8938 954.507H28.8841ZM26.7095 957.608C26.768 957.5 26.885 957.432 27.0118 957.432C27.0118 957.432 27.0312 957.432 27.041 957.432C30.0152 957.666 32.9992 957.461 35.8955 956.818C36.032 956.789 36.1685 956.837 36.2465 956.954L38.9672 960.699C39.0453 960.806 39.055 960.953 38.9965 961.06C37.2607 964.297 36.1295 967.779 35.6321 971.416C35.6126 971.543 35.5249 971.65 35.3981 971.699L31.0001 973.132C30.8734 973.171 30.7271 973.132 30.6393 973.035C28.6695 970.802 26.3877 968.89 23.8425 967.33C23.7352 967.262 23.6669 967.135 23.6767 966.999C24.0082 963.654 25.0322 960.494 26.7192 957.618L26.7095 957.608ZM27.7724 981.636C27.7138 981.821 27.5481 981.86 27.4798 981.87C27.4116 981.87 27.2555 981.87 27.1482 981.714C25.0711 978.447 23.8425 974.663 23.5987 970.782C23.5889 970.587 23.7157 970.49 23.7742 970.46C23.8327 970.431 23.9888 970.363 24.1448 970.48C25.9488 971.757 27.5871 973.259 29.0206 974.927C29.0791 974.995 29.1083 975.083 29.0986 975.18C28.923 977.374 28.4745 979.549 27.7626 981.645L27.7724 981.636ZM37.4069 990.539C34.3644 989.203 31.6828 987.243 29.4399 984.727C29.3521 984.629 29.3229 984.483 29.3716 984.366C30.5126 981.616 31.2342 978.72 31.517 975.755C31.5267 975.619 31.6243 975.502 31.751 975.463L36.1003 974.049C36.1003 974.049 36.1685 974.029 36.2075 974.029C36.305 974.029 36.3928 974.068 36.4611 974.147C38.899 976.877 41.9512 979.1 45.296 980.573C45.4228 980.631 45.5008 980.748 45.5008 980.885V985.458C45.5008 985.595 45.4228 985.722 45.296 985.77C42.5656 986.95 40.0301 988.54 37.758 990.48C37.6605 990.568 37.5142 990.588 37.3972 990.529L37.4069 990.539ZM52.7462 991.504C52.7365 991.573 52.6878 991.729 52.4927 991.777C48.7286 992.733 44.7499 992.733 40.9858 991.777C40.8005 991.729 40.742 991.573 40.7323 991.504C40.7225 991.436 40.703 991.28 40.8688 991.153C42.6436 989.837 44.5744 988.735 46.6125 987.886C46.7002 987.847 46.788 987.847 46.8758 987.886C48.9041 988.735 50.835 989.837 52.6195 991.153C52.7755 991.27 52.7657 991.436 52.756 991.504H52.7462ZM64.0484 984.737C61.8055 987.253 59.1238 989.203 56.0813 990.539C55.9545 990.597 55.818 990.568 55.7205 990.49C53.4484 988.55 50.9227 986.96 48.1825 985.78C48.0557 985.722 47.9777 985.605 47.9777 985.468V980.895C47.9777 980.758 48.0557 980.631 48.1825 980.583C51.5273 979.11 54.5893 976.887 57.0174 974.156C57.0857 974.078 57.1735 974.039 57.271 974.039C57.31 974.039 57.3392 974.039 57.3782 974.059L61.7275 975.473C61.8542 975.512 61.9517 975.629 61.9615 975.765C62.2443 978.73 62.9659 981.616 64.1069 984.376C64.1556 984.493 64.1361 984.639 64.0386 984.737H64.0484ZM66.3303 981.723C66.223 981.889 66.0572 981.889 65.9987 981.88C65.9304 981.88 65.7744 981.831 65.7061 981.645C65.004 979.549 64.5555 977.374 64.3702 975.18C64.3702 975.092 64.3896 974.995 64.4481 974.927C65.8816 973.259 67.5199 971.767 69.3239 970.48C69.3922 970.431 69.4605 970.412 69.519 970.412C69.597 970.412 69.6555 970.441 69.6945 970.46C69.753 970.49 69.8896 970.587 69.8701 970.782C69.6263 974.663 68.3976 978.447 66.3205 981.714L66.3303 981.723Z" fill="#9DADF2"/>
<path d="M92.8547 854.699C92.8547 880.297 72.0252 901.126 46.4273 901.126C20.8293 901.126 -0.00012207 880.297 -0.00012207 854.699C-0.00012207 829.101 20.8293 808.271 46.4273 808.271C72.0252 808.271 92.8547 829.101 92.8547 854.699ZM3.34467 854.699C3.34467 878.454 22.6724 897.782 46.4273 897.782C70.1822 897.782 89.5099 878.454 89.5099 854.699C89.5099 830.944 70.1822 811.616 46.4273 811.616C22.6724 811.616 3.34467 830.944 3.34467 854.699Z" fill="#478BF9"/>
<path d="M92.8571 741.21C92.8571 742.136 92.1063 742.877 91.1896 742.877C90.273 742.877 89.5221 742.126 89.5221 741.21C89.5221 717.455 70.1944 698.127 46.4395 698.127C22.6846 698.127 3.35688 717.455 3.35688 741.21C3.35688 742.136 2.60599 742.877 1.68934 742.877C0.772686 742.877 0.0218506 742.126 0.0218506 741.21C0.0218506 715.612 20.8513 694.782 46.4492 694.782C72.0472 694.782 92.8766 715.612 92.8766 741.21H92.8571Z" fill="#478BF9"/>
<path d="M37.4862 846.498C37.4862 848.204 38.6467 849.687 40.3044 850.096L43.4542 850.886V842.782H41.2113C39.1635 842.782 37.496 844.45 37.496 846.498H37.4862Z" fill="#478BF9"/>
<path d="M49.4008 866.615H51.6437C53.6916 866.615 55.3591 864.948 55.3591 862.9C55.3591 861.193 54.1986 859.711 52.5409 859.302L49.3911 858.512V866.615H49.4008Z" fill="#478BF9"/>
<path d="M46.4281 816.921C25.5987 816.921 8.64062 833.869 8.64062 854.709C8.64062 875.548 25.5889 892.496 46.4281 892.496C67.2673 892.496 84.2156 875.548 84.2156 854.709C84.2156 833.869 67.2673 816.921 46.4281 816.921ZM61.3286 848.741H55.3703V845.757C55.3703 844.118 54.0344 842.773 52.3863 842.773H49.4023V852.368L53.9954 853.519C58.3056 854.601 61.3188 858.453 61.3188 862.9C61.3188 868.234 56.9794 872.574 51.6453 872.574H49.4023V880.121H43.4441V872.574H40.4601C35.5258 872.574 31.5179 868.566 31.5179 863.631V860.647H37.4761V863.631C37.4761 865.27 38.8121 866.615 40.4601 866.615H43.4441V857.02L38.8511 855.869C34.5409 854.787 31.5277 850.935 31.5277 846.488C31.5277 841.154 35.8671 836.814 41.2013 836.814H43.4441V829.267H49.4023V836.814H52.3863C57.3206 836.814 61.3286 840.822 61.3286 845.757V848.741Z" fill="#478BF9"/>
<path d="M92.9128 740.498V852.544C92.9128 853.47 92.162 854.211 91.2453 854.211C90.3287 854.211 89.5778 853.46 89.5778 852.544V740.498C89.5778 739.571 90.3287 738.83 91.2453 738.83C92.162 738.83 92.9128 739.581 92.9128 740.498Z" fill="#478BF9"/>
<path d="M3.40815 740.254V852.3C3.40815 853.226 2.65726 853.967 1.74061 853.967C0.823956 853.967 0.0731201 853.217 0.0731201 852.3V740.254C0.0731201 739.328 0.823956 738.586 1.74061 738.586C2.65726 738.586 3.40815 739.337 3.40815 740.254Z" fill="#478BF9"/>
<path d="M46.5932 666.119C34.6962 666.119 22.809 661.595 13.7498 652.536C-4.35897 634.427 -4.35897 604.967 13.7498 586.858C22.5262 578.082 34.1891 573.255 46.5932 573.255C58.9972 573.255 70.6602 578.082 79.4366 586.858C97.5454 604.967 97.5454 634.427 79.4366 652.536C70.3872 661.585 58.4901 666.119 46.5932 666.119ZM16.1877 650.098C32.9507 666.861 60.226 666.861 76.989 650.098C93.752 633.335 93.752 606.059 76.989 589.296C68.8659 581.173 58.0709 576.707 46.5835 576.707C35.0961 576.707 24.301 581.183 16.1779 589.296C-0.585109 606.059 -0.585109 633.335 16.1779 650.098H16.1877Z" fill="#9DADF2"/>
<path d="M45.979 637.069C46.1448 637.469 46.5348 637.703 46.9444 637.703C47.0809 637.703 47.2174 637.674 47.3539 637.625C50.6305 636.25 53.6145 634.124 55.9744 631.472C56.3547 631.043 56.3157 630.38 55.8866 630C55.4575 629.619 54.7944 629.658 54.4141 630.087C52.259 632.515 49.5383 634.456 46.5445 635.704C46.0179 635.929 45.7644 636.543 45.9887 637.069H45.979Z" fill="#9DADF2"/>
<path d="M64.2908 603.641L46.9719 596.717C46.7184 596.62 46.4454 596.62 46.1918 596.717L28.8729 603.641C28.4731 603.797 28.2196 604.177 28.2196 604.606V617.01C28.2391 628.459 35.4748 638.805 46.2211 642.745C46.3381 642.784 46.4551 642.803 46.5819 642.803C46.7087 642.803 46.8257 642.784 46.9427 642.745C57.689 638.795 64.9246 628.459 64.9441 617.01V604.606C64.9441 604.177 64.6906 603.797 64.2908 603.641ZM62.8573 617.01C62.8378 627.425 56.3042 636.913 46.5916 640.648C36.879 636.913 30.3357 627.425 30.3162 617.01V605.318L46.5916 598.814L62.8573 605.318V617.01Z" fill="#9DADF2"/>
<path d="M39.3566 605.269C39.103 605.162 38.8202 605.162 38.5569 605.269L34.432 606.917C34.0322 607.074 33.7787 607.454 33.7787 607.883V612.281C33.7787 612.856 34.2468 613.324 34.8221 613.324C35.3975 613.324 35.8655 612.856 35.8655 612.281V608.595L39.3274 607.21C39.5906 607.103 39.7856 606.908 39.9027 606.644C40.0099 606.391 40.0099 606.108 39.9027 605.845C39.7954 605.582 39.6004 605.386 39.3468 605.269H39.3566Z" fill="#9DADF2"/>
<path d="M72.971 593.324C65.9304 586.274 56.559 582.402 46.5929 582.402C36.6267 582.402 27.2652 586.283 20.2148 593.324C5.67515 607.864 5.67515 631.531 20.2148 646.08C27.4895 653.355 37.0363 656.982 46.5929 656.982C56.1495 656.982 65.6963 653.345 72.971 646.08C87.5107 631.541 87.5107 607.873 72.971 593.324ZM67.8124 617.011C67.8417 630.243 59.387 641.819 46.7782 645.827C46.6611 645.866 46.5344 645.866 46.4076 645.827C33.7988 641.819 25.3442 630.243 25.3734 617.011V602.373C25.3734 602.13 25.5197 601.905 25.7537 601.808L46.3686 593.568C46.4369 593.538 46.5149 593.529 46.5929 593.529C46.6709 593.529 46.749 593.538 46.8172 593.568L67.4321 601.818C67.6662 601.905 67.8124 602.13 67.8124 602.383V617.02V617.011Z" fill="#9DADF2"/>
<path d="M46.5932 547.501C20.9952 547.501 0.175537 526.672 0.175537 501.083C0.175537 475.495 21.005 454.666 46.5932 454.666C72.1814 454.666 93.0109 475.495 93.0109 501.083C93.0109 526.672 72.1814 547.501 46.5932 547.501ZM46.5932 457.757C22.7017 457.757 3.26678 477.192 3.26678 501.083C3.26678 524.975 22.7017 544.41 46.5932 544.41C70.4846 544.41 89.9196 524.975 89.9196 501.083C89.9196 477.192 70.4846 457.757 46.5932 457.757Z" fill="#7DDACF"/>
<path d="M76.8845 467.962L62.5144 482.332L65.3416 485.159L79.7116 470.789L76.8845 467.962Z" fill="#7DDACF"/>
<path d="M27.4166 517.428L13.0465 531.798L15.8736 534.625L30.2437 520.255L27.4166 517.428Z" fill="#7DDACF"/>
<path d="M65.7624 517.435L62.9353 520.262L77.3054 534.632L80.1325 531.805L65.7624 517.435Z" fill="#7DDACF"/>
<path d="M15.8701 467.536L13.043 470.363L27.4062 484.726L30.2333 481.899L15.8701 467.536Z" fill="#7DDACF"/>
<path d="M57.9146 502.332C58.8507 501.396 58.8507 499.884 57.9146 498.958L55.9252 496.978C54.9891 496.042 53.4776 496.042 52.5512 496.978L51.4785 498.051L50.2401 496.812C49.3039 495.876 47.7924 495.876 46.866 496.812L45.7933 497.895L44.5549 496.646C43.6187 495.71 42.1072 495.71 41.1808 496.646L34.5985 503.229C34.5497 503.278 34.5497 503.356 34.5985 503.414C35.4761 504.292 36.9096 504.292 37.797 503.414L42.0389 499.172C42.4973 498.714 43.2384 498.714 43.6967 499.172L44.0088 499.484C44.0673 499.543 44.0673 499.63 44.0088 499.689L40.4689 503.229C40.4202 503.278 40.4202 503.356 40.4689 503.414C41.3466 504.292 42.78 504.292 43.6674 503.414L47.7339 499.348C48.1922 498.889 48.9334 498.889 49.3917 499.348L49.7037 499.66C49.7525 499.708 49.7525 499.786 49.7037 499.845L46.2906 503.258C46.2419 503.307 46.2419 503.385 46.2906 503.443C47.1683 504.321 48.6018 504.321 49.4892 503.443L53.4191 499.513C53.8774 499.055 54.6185 499.055 55.0768 499.513L55.7497 500.186C56.013 500.45 56.013 500.888 55.7497 501.152L55.6424 501.259C55.3792 501.522 54.9403 501.522 54.677 501.259L53.8091 500.391C53.7604 500.342 53.6824 500.342 53.6239 500.391L52.1221 501.893C52.0734 501.942 52.0734 502.02 52.1221 502.078L53.4776 503.434C54.4137 504.37 55.9252 504.37 56.8516 503.434L57.9244 502.361L57.9146 502.332Z" fill="#7DDACF"/>
<path d="M46.5942 465.49C26.935 465.49 11.0009 481.424 11.0009 501.083C11.0009 520.743 26.935 536.677 46.5942 536.677C66.2535 536.677 82.1876 520.743 82.1876 501.083C82.1876 481.424 66.2535 465.49 46.5942 465.49ZM48.0473 476.48C53.7617 476.812 58.9496 479.094 62.9672 482.663L57.8281 487.802C55.1464 485.53 51.7626 484.057 48.0473 483.745V476.48ZM45.151 476.48V483.745C41.4356 484.047 38.0519 485.53 35.3702 487.802L30.2311 482.663C34.2487 479.094 39.4366 476.812 45.151 476.48ZM28.1832 484.71L33.3223 489.85C31.0502 492.531 29.5777 495.915 29.2657 499.63H22.0007C22.3323 493.916 24.6142 488.728 28.1832 484.71ZM22.0007 502.527H29.2657C29.568 506.242 31.0502 509.626 33.3223 512.307L28.1832 517.447C24.6142 513.429 22.3323 508.241 22.0007 502.527ZM45.151 525.677C39.4366 525.345 34.2487 523.064 30.2311 519.494L35.3702 514.355C38.0519 516.627 41.4356 518.1 45.151 518.412V525.677ZM31.6353 501.074C31.6353 492.814 38.3346 486.115 46.5942 486.115C54.8538 486.115 61.5532 492.814 61.5532 501.074C61.5532 509.333 54.8538 516.033 46.5942 516.033C38.3346 516.033 31.6353 509.333 31.6353 501.074ZM48.0473 525.677V518.412C51.7626 518.11 55.1464 516.627 57.8281 514.355L62.9672 519.494C58.9496 523.064 53.7617 525.345 48.0473 525.677ZM65.015 517.447L59.876 512.307C62.1481 509.626 63.6206 506.242 63.9326 502.527H71.1976C70.866 508.241 68.5841 513.429 65.015 517.447ZM63.9326 499.63C63.6303 495.915 62.1481 492.531 59.876 489.85L65.015 484.71C68.5841 488.728 70.866 493.916 71.1976 499.63H63.9326Z" fill="#7DDACF"/>
<path d="M46.7284 431.837C21.1305 431.837 0.310791 411.008 0.310791 385.419C0.310791 359.831 21.1402 339.002 46.7284 339.002C72.3167 339.002 93.1461 359.831 93.1461 385.419C93.1461 411.008 72.3167 431.837 46.7284 431.837ZM46.7284 342.093C22.837 342.093 3.40203 361.528 3.40203 385.419C3.40203 409.311 22.837 428.746 46.7284 428.746C70.6199 428.746 90.0548 409.311 90.0548 385.419C90.0548 361.528 70.6199 342.093 46.7284 342.093Z" fill="#9DADF2"/>
<path d="M61.7881 356.438C61.5541 356.438 61.32 356.389 61.1055 356.282C56.61 354.058 51.7732 352.927 46.7316 352.927C41.69 352.927 36.8533 354.058 32.3578 356.282C31.7629 356.574 31.051 356.457 30.583 355.989L22.6062 348.012C22.2648 347.671 22.1088 347.203 22.1673 346.725C22.2258 346.247 22.4989 345.828 22.9084 345.584C30.0954 341.274 38.3355 339.002 46.7414 339.002C55.1473 339.002 63.3874 341.284 70.5743 345.584C70.9839 345.828 71.2569 346.247 71.3155 346.725C71.374 347.203 71.2082 347.671 70.8766 348.012L62.8998 355.989C62.5975 356.282 62.2074 356.438 61.7979 356.438H61.7881ZM46.7316 349.836C51.8707 349.836 56.8245 350.908 61.4663 353.025L67.2393 347.252C60.9592 343.868 53.9088 342.093 46.7316 342.093C39.5544 342.093 32.5041 343.868 26.224 347.252L31.997 353.025C36.6387 350.908 41.5925 349.836 46.7316 349.836Z" fill="#9DADF2"/>
<path d="M46.7299 431.837C38.324 431.837 30.0839 429.555 22.897 425.255C22.4874 425.011 22.2144 424.592 22.1559 424.114C22.0974 423.636 22.2631 423.168 22.5947 422.827L30.5715 414.85C31.0396 414.382 31.7612 414.265 32.3463 414.557C36.8418 416.781 41.6786 417.912 46.7202 417.912C51.7618 417.912 56.5986 416.781 61.0941 414.557C61.6889 414.265 62.4008 414.382 62.8688 414.85L70.8457 422.827C71.187 423.168 71.343 423.636 71.2845 424.114C71.226 424.592 70.9529 425.011 70.5434 425.255C63.3564 429.565 55.1164 431.837 46.7105 431.837H46.7299ZM26.2223 423.587C32.5024 426.971 39.5528 428.746 46.7299 428.746C53.9071 428.746 60.9576 426.971 67.2376 423.587L61.4646 417.814C56.8228 419.93 51.869 421.003 46.7299 421.003C41.5908 421.003 36.637 419.93 31.9953 417.814L26.2223 423.587Z" fill="#9DADF2"/>
<path d="M85.2394 410.003C84.8298 410.003 84.4398 409.847 84.1472 409.554L76.1704 401.578C75.7023 401.109 75.5853 400.388 75.8779 399.803C78.1012 395.307 79.2324 390.47 79.2324 385.429C79.2324 380.387 78.1012 375.551 75.8779 371.055C75.5853 370.46 75.7023 369.739 76.1704 369.28L84.1472 361.303C84.4885 360.962 84.9566 360.806 85.4344 360.865C85.9123 360.923 86.3316 361.196 86.5754 361.606C90.8856 368.793 93.1577 377.033 93.1577 385.439C93.1577 393.845 90.8856 402.085 86.5754 409.272C86.3316 409.681 85.9123 409.954 85.4344 410.013C85.3662 410.013 85.3077 410.013 85.2394 410.013V410.003ZM79.1252 400.154L84.8981 405.927C88.2819 399.647 90.0567 392.596 90.0567 385.419C90.0567 378.242 88.2819 371.192 84.8981 364.912L79.1252 370.684C81.2413 375.326 82.3139 380.28 82.3139 385.419C82.3139 390.558 81.2413 395.512 79.1252 400.154Z" fill="#9DADF2"/>
<path d="M8.21909 410.003C8.15083 410.003 8.09231 410.003 8.0338 409.993C7.55598 409.935 7.13667 409.662 6.89288 409.252C2.58267 402.065 0.310547 393.825 0.310547 385.419C0.310547 377.013 2.58267 368.773 6.89288 361.586C7.13667 361.177 7.55598 360.904 8.0338 360.845C8.51163 360.787 8.97972 360.953 9.32102 361.284L17.2978 369.261C17.7659 369.729 17.8829 370.451 17.5904 371.036C15.367 375.531 14.2358 380.368 14.2358 385.41C14.2358 390.451 15.367 395.288 17.5904 399.783C17.8829 400.378 17.7659 401.1 17.2978 401.558L9.32102 409.535C9.02848 409.828 8.63842 409.993 8.22885 409.993L8.21909 410.003ZM8.56037 364.912C5.17656 371.192 3.40179 378.242 3.40179 385.419C3.40179 392.597 5.17656 399.647 8.56037 405.927L14.3334 400.154C12.2173 395.512 11.1446 390.558 11.1446 385.419C11.1446 380.28 12.2173 375.326 14.3334 370.685L8.56037 364.912Z" fill="#9DADF2"/>
<path d="M46.7295 349.826C27.1092 349.826 11.1361 365.789 11.1361 385.419C11.1361 405.049 27.0995 421.013 46.7295 421.013C66.3595 421.013 82.3229 405.049 82.3229 385.419C82.3229 365.789 66.3595 349.826 46.7295 349.826ZM66.7593 373.727C68.4464 376.614 69.4703 379.763 69.8018 383.108C69.8116 383.245 69.753 383.371 69.636 383.44C67.0908 385 64.809 386.911 62.8392 389.144C62.7514 389.252 62.6051 389.291 62.4784 389.242L58.0804 387.808C57.9536 387.769 57.8658 387.662 57.8463 387.526C57.349 383.888 56.2178 380.407 54.482 377.169C54.4235 377.052 54.4333 376.916 54.5113 376.809L57.232 373.064C57.3002 372.976 57.4075 372.918 57.5148 372.918C57.544 372.918 57.5635 372.918 57.5928 372.918C60.4988 373.561 63.4828 373.776 66.4473 373.532C66.5838 373.522 66.7105 373.591 66.7788 373.708L66.7593 373.727ZM55.4474 388.14C55.4572 388.237 55.4279 388.335 55.3694 388.403C53.0583 391.065 50.1133 393.201 46.866 394.566C46.7783 394.605 46.6905 394.605 46.6027 394.566C43.3554 393.191 40.4105 391.056 38.0993 388.403C38.0408 388.335 38.0116 388.237 38.0213 388.14C38.4699 384.61 39.5718 381.236 41.2784 378.115C41.3271 378.028 41.4051 377.969 41.5026 377.95C43.2189 377.589 44.9742 377.404 46.7392 377.404C48.5043 377.404 50.2596 377.589 51.9759 377.95C52.0734 377.969 52.1514 378.028 52.2001 378.115C53.9067 381.236 54.9989 384.61 55.4572 388.14H55.4474ZM54.9209 363.937C54.9209 363.937 55.0379 363.839 55.1549 363.839C55.1939 363.839 55.2427 363.839 55.2914 363.868C58.88 365.292 62.0883 367.632 64.5847 370.626C64.7115 370.772 64.6627 370.928 64.6334 370.987C64.6139 371.036 64.5262 371.192 64.3214 371.192C62.1078 371.221 59.9039 370.967 57.7683 370.46C57.6806 370.441 57.6026 370.382 57.5538 370.304C56.4129 368.422 55.4962 366.394 54.8331 364.288C54.7746 364.102 54.8819 363.976 54.9306 363.937H54.9209ZM41.8049 362.766C45.0327 362.074 48.436 362.074 51.6638 362.766C51.7906 362.796 51.8979 362.893 51.9271 363.02C52.6195 365.916 53.7409 368.686 55.2524 371.25C55.3206 371.367 55.3109 371.513 55.2329 371.631L52.5317 375.356C52.4537 375.463 52.3172 375.521 52.1904 375.492C48.6213 374.771 44.8475 374.771 41.2784 375.492C41.1516 375.521 41.015 375.463 40.937 375.356L38.2359 371.631C38.1579 371.523 38.1481 371.367 38.2163 371.25C39.7278 368.686 40.8493 365.916 41.5416 363.02C41.5709 362.893 41.6782 362.796 41.8049 362.766ZM28.8841 370.626C31.3805 367.623 34.5888 365.282 38.1774 363.868C38.2261 363.849 38.2748 363.839 38.3138 363.839C38.4406 363.839 38.5186 363.907 38.5479 363.937C38.5966 363.985 38.7039 364.102 38.6454 364.288C37.9823 366.404 37.0656 368.422 35.9247 370.304C35.8759 370.382 35.7979 370.441 35.7102 370.46C33.5746 370.967 31.3707 371.221 29.1571 371.192C28.9523 371.192 28.8646 371.036 28.8451 370.987C28.8158 370.928 28.767 370.772 28.8938 370.626H28.8841ZM26.7095 373.727C26.768 373.62 26.885 373.552 27.0118 373.552C27.0118 373.552 27.0312 373.552 27.041 373.552C30.0152 373.786 32.9992 373.581 35.8955 372.937C36.032 372.908 36.1685 372.957 36.2465 373.074L38.9672 376.818C39.0453 376.926 39.055 377.072 38.9965 377.179C37.2607 380.417 36.1295 383.898 35.6321 387.535C35.6126 387.662 35.5249 387.769 35.3981 387.818L31.0001 389.252C30.8734 389.291 30.7271 389.252 30.6393 389.154C28.6695 386.921 26.3877 385.01 23.8425 383.449C23.7352 383.381 23.6669 383.254 23.6767 383.118C24.0082 379.773 25.0322 376.614 26.7192 373.737L26.7095 373.727ZM27.7724 397.755C27.7138 397.94 27.5481 397.979 27.4798 397.989C27.4116 397.989 27.2555 397.989 27.1482 397.833C25.0711 394.566 23.8425 390.783 23.5987 386.902C23.5889 386.707 23.7157 386.609 23.7742 386.58C23.8327 386.55 23.9888 386.482 24.1448 386.599C25.9488 387.877 27.5871 389.378 29.0206 391.046C29.0791 391.114 29.1083 391.202 29.0986 391.3C28.923 393.494 28.4745 395.668 27.7626 397.765L27.7724 397.755ZM37.4069 406.658C34.3644 405.322 31.6828 403.362 29.4399 400.846C29.3521 400.749 29.3229 400.603 29.3716 400.486C30.5126 397.736 31.2342 394.839 31.517 391.875C31.5267 391.738 31.6243 391.621 31.751 391.582L36.1003 390.168C36.1003 390.168 36.1685 390.149 36.2075 390.149C36.305 390.149 36.3928 390.188 36.4611 390.266C38.899 392.996 41.9512 395.22 45.296 396.692C45.4228 396.751 45.5008 396.868 45.5008 397.004V401.578C45.5008 401.714 45.4228 401.841 45.296 401.89C42.5656 403.07 40.0301 404.659 37.758 406.6C37.6605 406.688 37.5142 406.707 37.3972 406.649L37.4069 406.658ZM52.7462 407.624C52.7365 407.692 52.6878 407.848 52.4927 407.897C48.7286 408.852 44.7499 408.852 40.9858 407.897C40.8005 407.848 40.742 407.692 40.7323 407.624C40.7225 407.555 40.703 407.399 40.8688 407.273C42.6436 405.956 44.5744 404.854 46.6125 404.006C46.7002 403.967 46.788 403.967 46.8758 404.006C48.9041 404.854 50.835 405.956 52.6195 407.273C52.7755 407.39 52.7657 407.555 52.756 407.624H52.7462ZM64.0484 400.856C61.8055 403.372 59.1238 405.322 56.0813 406.658C55.9545 406.717 55.818 406.688 55.7205 406.61C53.4484 404.669 50.9227 403.079 48.1825 401.9C48.0557 401.841 47.9777 401.724 47.9777 401.587V397.014C47.9777 396.877 48.0557 396.751 48.1825 396.702C51.5273 395.229 54.5893 393.006 57.0174 390.276C57.0857 390.198 57.1735 390.159 57.271 390.159C57.31 390.159 57.3392 390.159 57.3782 390.178L61.7275 391.592C61.8542 391.631 61.9517 391.748 61.9615 391.885C62.2443 394.849 62.9659 397.736 64.1069 400.495C64.1556 400.612 64.1361 400.759 64.0386 400.856H64.0484ZM66.3303 397.843C66.223 398.009 66.0572 398.009 65.9987 397.999C65.9304 397.999 65.7744 397.95 65.7061 397.765C65.004 395.668 64.5555 393.494 64.3702 391.3C64.3702 391.212 64.3896 391.114 64.4481 391.046C65.8816 389.378 67.5199 387.886 69.3239 386.599C69.3922 386.551 69.4605 386.531 69.519 386.531C69.597 386.531 69.6555 386.56 69.6945 386.58C69.753 386.609 69.8896 386.707 69.8701 386.902C69.6263 390.783 68.3976 394.566 66.3205 397.833L66.3303 397.843Z" fill="#9DADF2"/>
<path d="M92.8547 270.819C92.8547 296.416 72.0252 317.246 46.4273 317.246C20.8293 317.246 -0.00012207 296.416 -0.00012207 270.819C-0.00012207 245.221 20.8293 224.391 46.4273 224.391C72.0252 224.391 92.8547 245.221 92.8547 270.819ZM3.34467 270.819C3.34467 294.573 22.6724 313.901 46.4273 313.901C70.1822 313.901 89.5099 294.573 89.5099 270.819C89.5099 247.064 70.1822 227.736 46.4273 227.736C22.6724 227.736 3.34467 247.064 3.34467 270.819Z" fill="#478BF9"/>
<path d="M92.8571 157.329C92.8571 158.256 92.1063 158.997 91.1896 158.997C90.273 158.997 89.5221 158.246 89.5221 157.329C89.5221 133.574 70.1944 114.247 46.4395 114.247C22.6846 114.247 3.35688 133.574 3.35688 157.329C3.35688 158.256 2.60599 158.997 1.68934 158.997C0.772686 158.997 0.0218506 158.246 0.0218506 157.329C0.0218506 131.731 20.8513 110.902 46.4492 110.902C72.0472 110.902 92.8766 131.731 92.8766 157.329H92.8571Z" fill="#478BF9"/>
<path d="M37.4862 262.617C37.4862 264.324 38.6467 265.806 40.3044 266.216L43.4542 267.006V258.902H41.2113C39.1635 258.902 37.496 260.57 37.496 262.617H37.4862Z" fill="#478BF9"/>
<path d="M49.4008 282.735H51.6437C53.6916 282.735 55.3591 281.067 55.3591 279.02C55.3591 277.313 54.1986 275.831 52.5409 275.421L49.3911 274.631V282.735H49.4008Z" fill="#478BF9"/>
<path d="M46.4281 233.041C25.5987 233.041 8.64062 249.989 8.64062 270.828C8.64062 291.667 25.5889 308.616 46.4281 308.616C67.2673 308.616 84.2156 291.667 84.2156 270.828C84.2156 249.989 67.2673 233.041 46.4281 233.041ZM61.3286 264.86H55.3703V261.876C55.3703 260.238 54.0344 258.892 52.3863 258.892H49.4023V268.488L53.9954 269.639C58.3056 270.721 61.3188 274.573 61.3188 279.02C61.3188 284.354 56.9794 288.693 51.6453 288.693H49.4023V296.241H43.4441V288.693H40.4601C35.5258 288.693 31.5179 284.685 31.5179 279.751V276.767H37.4761V279.751C37.4761 281.389 38.8121 282.735 40.4601 282.735H43.4441V273.139L38.8511 271.989C34.5409 270.906 31.5277 267.054 31.5277 262.608C31.5277 257.274 35.8671 252.934 41.2013 252.934H43.4441V245.386H49.4023V252.934H52.3863C57.3206 252.934 61.3286 256.942 61.3286 261.876V264.86Z" fill="#478BF9"/>
<path d="M92.9128 156.617V268.663C92.9128 269.59 92.162 270.331 91.2453 270.331C90.3287 270.331 89.5778 269.58 89.5778 268.663V156.617C89.5778 155.691 90.3287 154.95 91.2453 154.95C92.162 154.95 92.9128 155.701 92.9128 156.617Z" fill="#478BF9"/>
<path d="M3.40815 156.374V268.42C3.40815 269.346 2.65726 270.087 1.74061 270.087C0.823956 270.087 0.0731201 269.336 0.0731201 268.42V156.374C0.0731201 155.447 0.823956 154.706 1.74061 154.706C2.65726 154.706 3.40815 155.457 3.40815 156.374Z" fill="#478BF9"/>
<path d="M46.5932 92.8646C34.6962 92.8646 22.809 88.3399 13.7498 79.2806C-4.35897 61.1719 -4.35897 31.7122 13.7498 13.6035C22.5262 4.82706 34.1891 0 46.5932 0C58.9972 0 70.6602 4.82706 79.4366 13.6035C97.5454 31.7122 97.5454 61.1719 79.4366 79.2806C70.3872 88.3301 58.4901 92.8646 46.5932 92.8646ZM16.1877 76.8427C32.9507 93.6058 60.226 93.6058 76.989 76.8427C93.752 60.0797 93.752 32.8044 76.989 16.0414C68.8659 7.91832 58.0709 3.45211 46.5835 3.45211C35.0961 3.45211 24.301 7.92807 16.1779 16.0414C-0.585109 32.8044 -0.585109 60.0797 16.1779 76.8427H16.1877Z" fill="#9DADF2"/>
<path d="M45.979 63.8146C46.1448 64.2144 46.5348 64.4483 46.9444 64.4483C47.0809 64.4483 47.2174 64.4191 47.3539 64.3704C50.6305 62.9954 53.6145 60.8695 55.9744 58.217C56.3547 57.788 56.3157 57.125 55.8866 56.7447C55.4575 56.3644 54.7944 56.4033 54.4141 56.8324C52.259 59.2605 49.5383 61.2011 46.5445 62.4493C46.0179 62.6736 45.7644 63.288 45.9887 63.8146H45.979Z" fill="#9DADF2"/>
<path d="M64.2908 30.3862L46.9719 23.4625C46.7184 23.365 46.4454 23.365 46.1918 23.4625L28.8729 30.3862C28.4731 30.5422 28.2196 30.9225 28.2196 31.3516V43.7556C28.2391 55.204 35.4748 65.5505 46.2211 69.4902C46.3381 69.5292 46.4551 69.5487 46.5819 69.5487C46.7087 69.5487 46.8257 69.5292 46.9427 69.4902C57.689 65.5407 64.9246 55.204 64.9441 43.7556V31.3516C64.9441 30.9225 64.6906 30.5422 64.2908 30.3862ZM62.8573 43.7556C62.8378 54.1704 56.3042 63.6587 46.5916 67.3935C36.879 63.6587 30.3357 54.1704 30.3162 43.7556V32.0635L46.5916 25.5592L62.8573 32.0635V43.7556Z" fill="#9DADF2"/>
<path d="M39.3566 32.0145C39.103 31.9073 38.8202 31.9073 38.5569 32.0145L34.432 33.6626C34.0322 33.8186 33.7787 34.1989 33.7787 34.628V39.026C33.7787 39.6013 34.2468 40.0694 34.8221 40.0694C35.3975 40.0694 35.8655 39.6013 35.8655 39.026V35.3399L39.3274 33.9552C39.5906 33.8479 39.7856 33.6528 39.9027 33.3895C40.0099 33.136 40.0099 32.8533 39.9027 32.59C39.7954 32.3267 39.6004 32.1316 39.3468 32.0145H39.3566Z" fill="#9DADF2"/>
<path d="M72.971 20.069C65.9304 13.0186 56.559 9.14722 46.5929 9.14722C36.6267 9.14722 27.2652 13.0284 20.2148 20.069C5.67515 34.6087 5.67515 58.2759 20.2148 72.8253C27.4895 80.1 37.0363 83.7275 46.5929 83.7275C56.1495 83.7275 65.6963 80.0902 72.971 72.8253C87.5107 58.2856 87.5107 34.6184 72.971 20.069ZM67.8124 43.7557C67.8417 56.9886 59.387 68.5638 46.7782 72.5717C46.6611 72.6107 46.5344 72.6107 46.4076 72.5717C33.7988 68.5638 25.3442 56.9886 25.3734 43.7557V29.1185C25.3734 28.8747 25.5197 28.6505 25.7537 28.5529L46.3686 20.3128C46.4369 20.2836 46.5149 20.2738 46.5929 20.2738C46.6709 20.2738 46.749 20.2836 46.8172 20.3128L67.4321 28.5627C67.6662 28.6505 67.8124 28.8747 67.8124 29.1283V43.7654V43.7557Z" fill="#9DADF2"/>
</g>
</svg>
