<svg width="100" height="1298" viewBox="0 0 100 1298" fill="none" xmlns="http://www.w3.org/2000/svg">
<g opacity="0.4">
<path d="M47.1198 1217C35.2228 1217 23.3356 1212.48 14.2764 1203.42C-3.83236 1185.31 -3.83236 1155.85 14.2764 1137.74C23.0528 1128.96 34.7157 1124.14 47.1198 1124.14C59.5238 1124.14 71.1868 1128.96 79.9632 1137.74C98.0719 1155.85 98.0719 1185.31 79.9632 1203.42C70.9137 1212.47 59.0168 1217 47.1198 1217ZM16.7143 1200.98C33.4773 1217.74 60.7525 1217.74 77.5155 1200.98C94.2786 1184.21 94.2786 1156.94 77.5155 1140.18C69.3925 1132.05 58.5974 1127.59 47.11 1127.59C35.6226 1127.59 24.8276 1132.06 16.7045 1140.18C-0.0584979 1156.94 -0.0584979 1184.21 16.7045 1200.98H16.7143Z" fill="#9DADF2"/>
<path d="M46.5057 1187.95C46.6714 1188.35 47.0615 1188.58 47.4711 1188.58C47.6076 1188.58 47.7441 1188.55 47.8807 1188.51C51.1572 1187.13 54.1412 1185 56.5011 1182.35C56.8814 1181.92 56.8424 1181.26 56.4133 1180.88C55.9843 1180.5 55.3211 1180.54 54.9408 1180.97C52.7857 1183.4 50.065 1185.34 47.0713 1186.58C46.5447 1186.81 46.2911 1187.42 46.5154 1187.95H46.5057Z" fill="#9DADF2"/>
<path d="M64.8178 1154.52L47.499 1147.6C47.2454 1147.5 46.9724 1147.5 46.7189 1147.6L29.4 1154.52C29.0002 1154.68 28.7466 1155.06 28.7466 1155.49V1167.89C28.7661 1179.34 36.0018 1189.69 46.7481 1193.63C46.8651 1193.66 46.9821 1193.68 47.1089 1193.68C47.2357 1193.68 47.3527 1193.66 47.4697 1193.63C58.216 1189.68 65.4517 1179.34 65.4712 1167.89V1155.49C65.4712 1155.06 65.2177 1154.68 64.8178 1154.52ZM63.3843 1167.89C63.3648 1178.31 56.8312 1187.79 47.1186 1191.53C37.406 1187.79 30.8627 1178.31 30.8432 1167.89V1156.2L47.1186 1149.69L63.3843 1156.2V1167.89Z" fill="#9DADF2"/>
<path d="M39.8834 1156.15C39.6298 1156.04 39.347 1156.04 39.0837 1156.15L34.9588 1157.8C34.559 1157.95 34.3054 1158.33 34.3054 1158.76V1163.16C34.3054 1163.74 34.7735 1164.2 35.3488 1164.2C35.9242 1164.2 36.3923 1163.74 36.3923 1163.16V1159.47L39.8541 1158.09C40.1174 1157.98 40.3124 1157.79 40.4295 1157.52C40.5367 1157.27 40.5367 1156.99 40.4295 1156.72C40.3222 1156.46 40.1272 1156.27 39.8736 1156.15H39.8834Z" fill="#9DADF2"/>
<path d="M73.4866 1144.2C66.4459 1137.15 57.0747 1133.28 47.1085 1133.28C37.1424 1133.28 27.7808 1137.16 20.7304 1144.2C6.19077 1158.74 6.19077 1182.41 20.7304 1196.96C28.0051 1204.23 37.5519 1207.86 47.1085 1207.86C56.6651 1207.86 66.2119 1204.23 73.4866 1196.96C88.0263 1182.42 88.0263 1158.75 73.4866 1144.2ZM68.328 1167.89C68.3573 1181.12 59.9026 1192.7 47.2938 1196.71C47.1768 1196.75 47.05 1196.75 46.9232 1196.71C34.3144 1192.7 25.8597 1181.12 25.889 1167.89V1153.25C25.889 1153.01 26.0353 1152.79 26.2693 1152.69L46.8842 1144.45C46.9525 1144.42 47.0305 1144.41 47.1085 1144.41C47.1865 1144.41 47.2645 1144.42 47.3328 1144.45L67.9477 1152.7C68.1817 1152.79 68.328 1153.01 68.328 1153.26V1167.9V1167.89Z" fill="#9DADF2"/>
<path d="M47.2553 1098.38C21.6574 1098.38 0.837646 1077.55 0.837646 1051.96C0.837646 1026.38 21.6671 1005.55 47.2553 1005.55C72.8436 1005.55 93.673 1026.38 93.673 1051.96C93.673 1077.55 72.8436 1098.38 47.2553 1098.38ZM47.2553 1008.64C23.3639 1008.64 3.92895 1028.07 3.92895 1051.96C3.92895 1075.85 23.3639 1095.29 47.2553 1095.29C71.1468 1095.29 90.5817 1075.85 90.5817 1051.96C90.5817 1028.07 71.1468 1008.64 47.2553 1008.64Z" fill="white"/>
<path d="M62.3113 1022.97C62.0773 1022.97 61.8432 1022.92 61.6287 1022.82C57.1332 1020.59 52.2964 1019.46 47.2548 1019.46C42.2132 1019.46 37.3764 1020.59 32.881 1022.82C32.2861 1023.11 31.5742 1022.99 31.1062 1022.52L23.1293 1014.55C22.788 1014.21 22.632 1013.74 22.6905 1013.26C22.749 1012.78 23.0221 1012.36 23.4316 1012.12C30.6186 1007.81 38.8587 1005.54 47.2646 1005.54C55.6705 1005.54 63.9106 1007.82 71.0975 1012.12C71.5071 1012.36 71.7801 1012.78 71.8386 1013.26C71.8971 1013.74 71.7314 1014.21 71.3998 1014.55L63.4229 1022.52C63.1206 1022.82 62.7306 1022.97 62.3211 1022.97H62.3113ZM47.2548 1016.37C52.3939 1016.37 57.3477 1017.44 61.9895 1019.56L67.7624 1013.79C61.4824 1010.4 54.432 1008.63 47.2548 1008.63C40.0776 1008.63 33.0272 1010.4 26.7472 1013.79L32.5201 1019.56C37.1619 1017.44 42.1157 1016.37 47.2548 1016.37Z" fill="white"/>
<path d="M47.2531 1098.38C38.8472 1098.38 30.6071 1096.1 23.4202 1091.8C23.0106 1091.56 22.7376 1091.14 22.6791 1090.66C22.6206 1090.18 22.7863 1089.71 23.1179 1089.37L31.0947 1081.39C31.5628 1080.93 32.2844 1080.81 32.8695 1081.1C37.365 1083.32 42.2018 1084.46 47.2434 1084.46C52.285 1084.46 57.1217 1083.32 61.6172 1081.1C62.2121 1080.81 62.924 1080.93 63.392 1081.39L71.3688 1089.37C71.7101 1089.71 71.8662 1090.18 71.8077 1090.66C71.7492 1091.14 71.4761 1091.56 71.0665 1091.8C63.8796 1096.11 55.6395 1098.38 47.2336 1098.38H47.2531ZM26.7455 1090.13C33.0255 1093.52 40.0759 1095.29 47.2531 1095.29C54.4303 1095.29 61.4807 1093.52 67.7607 1090.13L61.9878 1084.36C57.346 1086.47 52.3922 1087.55 47.2531 1087.55C42.114 1087.55 37.1602 1086.47 32.5185 1084.36L26.7455 1090.13Z" fill="white"/>
<path d="M85.7661 1076.54C85.3566 1076.54 84.9665 1076.38 84.674 1076.09L76.6972 1068.11C76.2291 1067.64 76.1121 1066.92 76.4046 1066.34C78.628 1061.84 79.7591 1057.01 79.7591 1051.96C79.7591 1046.92 78.628 1042.09 76.4046 1037.59C76.1121 1036.99 76.2291 1036.27 76.6972 1035.81L84.674 1027.84C85.0153 1027.5 85.4834 1027.34 85.9612 1027.4C86.439 1027.46 86.8583 1027.73 87.1021 1028.14C91.4123 1035.33 93.6844 1043.57 93.6844 1051.97C93.6844 1060.38 91.4123 1068.62 87.1021 1075.81C86.8583 1076.22 86.439 1076.49 85.9612 1076.55C85.8929 1076.55 85.8344 1076.55 85.7661 1076.55V1076.54ZM79.6519 1066.69L85.4249 1072.46C88.8087 1066.18 90.5834 1059.13 90.5834 1051.95C90.5834 1044.78 88.8087 1037.73 85.4249 1031.45L79.6519 1037.22C81.768 1041.86 82.8407 1046.81 82.8407 1051.95C82.8407 1057.09 81.768 1062.05 79.6519 1066.69Z" fill="white"/>
<path d="M8.74625 1076.54C8.67799 1076.54 8.61947 1076.54 8.56096 1076.53C8.08314 1076.47 7.66377 1076.2 7.41998 1075.79C3.10977 1068.6 0.837646 1060.36 0.837646 1051.95C0.837646 1043.55 3.10977 1035.31 7.41998 1028.12C7.66377 1027.71 8.08314 1027.44 8.56096 1027.38C9.03879 1027.32 9.50688 1027.49 9.84818 1027.82L17.825 1035.8C18.2931 1036.26 18.4101 1036.99 18.1175 1037.57C15.8942 1042.07 14.763 1046.9 14.763 1051.94C14.763 1056.99 15.8942 1061.82 18.1175 1066.32C18.4101 1066.91 18.2931 1067.63 17.825 1068.09L9.84818 1076.07C9.55564 1076.36 9.16552 1076.53 8.75595 1076.53L8.74625 1076.54ZM9.08753 1031.45C5.70372 1037.73 3.92895 1044.78 3.92895 1051.95C3.92895 1059.13 5.70372 1066.18 9.08753 1072.46L14.8605 1066.69C12.7444 1062.05 11.6717 1057.09 11.6717 1051.95C11.6717 1046.81 12.7444 1041.86 14.8605 1037.22L9.08753 1031.45Z" fill="white"/>
<path d="M47.2562 1016.37C27.636 1016.37 11.6628 1032.33 11.6628 1051.96C11.6628 1071.59 27.6262 1087.56 47.2562 1087.56C66.8862 1087.56 82.8496 1071.59 82.8496 1051.96C82.8496 1032.33 66.8862 1016.37 47.2562 1016.37ZM67.286 1040.27C68.973 1043.16 69.9969 1046.31 70.3285 1049.65C70.3383 1049.79 70.2798 1049.92 70.1627 1049.98C67.6176 1051.54 65.3357 1053.46 63.3658 1055.69C63.2781 1055.8 63.1318 1055.83 63.005 1055.79L58.6071 1054.35C58.4803 1054.31 58.3925 1054.21 58.373 1054.07C57.8757 1050.43 56.7445 1046.95 55.0088 1043.71C54.9503 1043.6 54.96 1043.46 55.038 1043.35L57.7587 1039.61C57.8269 1039.52 57.9342 1039.46 58.0415 1039.46C58.0708 1039.46 58.0903 1039.46 58.1195 1039.46C61.0255 1040.11 64.0095 1040.32 66.9739 1040.08C67.1105 1040.07 67.2373 1040.13 67.3055 1040.25L67.286 1040.27ZM55.9742 1054.68C55.9839 1054.78 55.9546 1054.88 55.8961 1054.95C53.585 1057.61 50.64 1059.75 47.3928 1061.11C47.305 1061.15 47.2172 1061.15 47.1294 1061.11C43.8822 1059.74 40.9371 1057.6 38.626 1054.95C38.5675 1054.88 38.5383 1054.78 38.548 1054.68C38.9966 1051.15 40.0985 1047.78 41.805 1044.66C41.8538 1044.57 41.9319 1044.51 42.0294 1044.49C43.7457 1044.13 45.5009 1043.95 47.266 1043.95C49.031 1043.95 50.7863 1044.13 52.5026 1044.49C52.6001 1044.51 52.6781 1044.57 52.7269 1044.66C54.4334 1047.78 55.5256 1051.15 55.9839 1054.68H55.9742ZM55.4475 1030.48C55.4475 1030.48 55.5646 1030.38 55.6816 1030.38C55.7206 1030.38 55.7693 1030.38 55.8181 1030.41C59.4067 1031.84 62.615 1034.18 65.1114 1037.17C65.2382 1037.32 65.1894 1037.47 65.1602 1037.53C65.1407 1037.58 65.0529 1037.74 64.8481 1037.74C62.6345 1037.77 60.4307 1037.51 58.295 1037C58.2073 1036.99 58.1292 1036.93 58.0805 1036.85C56.9395 1034.97 56.0229 1032.94 55.3598 1030.83C55.3013 1030.65 55.4085 1030.52 55.4573 1030.48H55.4475ZM42.3317 1029.31C45.5595 1028.62 48.9627 1028.62 52.1905 1029.31C52.3173 1029.34 52.4245 1029.44 52.4538 1029.56C53.1461 1032.46 54.2676 1035.23 55.7791 1037.79C55.8474 1037.91 55.8376 1038.06 55.7596 1038.17L53.0584 1041.9C52.9804 1042.01 52.8439 1042.07 52.7171 1042.04C49.148 1041.31 45.3741 1041.31 41.805 1042.04C41.6783 1042.07 41.5418 1042.01 41.4638 1041.9L38.7625 1038.17C38.6845 1038.07 38.6748 1037.91 38.743 1037.79C40.2545 1035.23 41.376 1032.46 42.0684 1029.56C42.0976 1029.44 42.2049 1029.34 42.3317 1029.31ZM29.4108 1037.17C31.9072 1034.17 35.1154 1031.83 38.704 1030.41C38.7528 1030.39 38.8016 1030.38 38.8406 1030.38C38.9673 1030.38 39.0453 1030.45 39.0746 1030.48C39.1234 1030.53 39.2306 1030.65 39.1721 1030.83C38.509 1032.95 37.5924 1034.97 36.4514 1036.85C36.4027 1036.93 36.3247 1036.99 36.2369 1037C34.1013 1037.51 31.8974 1037.77 29.6838 1037.74C29.479 1037.74 29.3912 1037.58 29.3717 1037.53C29.3425 1037.47 29.2937 1037.32 29.4205 1037.17H29.4108ZM27.2361 1040.27C27.2946 1040.16 27.4117 1040.1 27.5384 1040.1C27.5384 1040.1 27.558 1040.1 27.5677 1040.1C30.542 1040.33 33.526 1040.13 36.4222 1039.48C36.5587 1039.45 36.6952 1039.5 36.7732 1039.62L39.4939 1043.36C39.5719 1043.47 39.5817 1043.62 39.5232 1043.72C37.7874 1046.96 36.6562 1050.44 36.1589 1054.08C36.1394 1054.21 36.0516 1054.31 35.9249 1054.36L31.5269 1055.8C31.4001 1055.83 31.2538 1055.8 31.1661 1055.7C29.1962 1053.47 26.9143 1051.55 24.3692 1049.99C24.2619 1049.93 24.1936 1049.8 24.2034 1049.66C24.535 1046.32 25.5589 1043.16 27.2459 1040.28L27.2361 1040.27ZM28.2991 1064.3C28.2406 1064.48 28.0748 1064.52 28.0065 1064.53C27.9383 1064.53 27.7822 1064.53 27.675 1064.38C25.5979 1061.11 24.3692 1057.33 24.1254 1053.45C24.1156 1053.25 24.2424 1053.15 24.3009 1053.12C24.3594 1053.09 24.5154 1053.03 24.6715 1053.14C26.4755 1054.42 28.1138 1055.92 29.5473 1057.59C29.6058 1057.66 29.635 1057.75 29.6253 1057.84C29.4498 1060.04 29.0012 1062.21 28.2893 1064.31L28.2991 1064.3ZM37.9337 1073.2C34.8912 1071.87 32.2094 1069.91 29.9666 1067.39C29.8788 1067.29 29.8496 1067.15 29.8984 1067.03C31.0393 1064.28 31.7609 1061.38 32.0437 1058.42C32.0534 1058.28 32.151 1058.17 32.2778 1058.13L36.6269 1056.71C36.6269 1056.71 36.6952 1056.69 36.7342 1056.69C36.8317 1056.69 36.9195 1056.73 36.9877 1056.81C39.4256 1059.54 42.4779 1061.76 45.8227 1063.24C45.9495 1063.29 46.0275 1063.41 46.0275 1063.55V1068.12C46.0275 1068.26 45.9495 1068.39 45.8227 1068.43C43.0923 1069.61 40.5569 1071.2 38.2847 1073.14C38.1872 1073.23 38.0409 1073.25 37.9239 1073.19L37.9337 1073.2ZM53.2729 1074.17C53.2632 1074.24 53.2144 1074.39 53.0194 1074.44C49.2553 1075.4 45.2766 1075.4 41.5125 1074.44C41.3272 1074.39 41.2687 1074.24 41.259 1074.17C41.2492 1074.1 41.2297 1073.94 41.3955 1073.82C43.1703 1072.5 45.1011 1071.4 47.1392 1070.55C47.227 1070.51 47.3147 1070.51 47.4025 1070.55C49.4308 1071.4 51.3616 1072.5 53.1462 1073.82C53.3022 1073.93 53.2925 1074.1 53.2827 1074.17H53.2729ZM64.5751 1067.4C62.3322 1069.92 59.6505 1071.87 56.608 1073.2C56.4812 1073.26 56.3447 1073.23 56.2472 1073.15C53.975 1071.21 51.4494 1069.62 48.7092 1068.44C48.5824 1068.39 48.5044 1068.27 48.5044 1068.13V1063.56C48.5044 1063.42 48.5824 1063.29 48.7092 1063.25C52.054 1061.77 55.116 1059.55 57.5442 1056.82C57.6124 1056.74 57.7002 1056.7 57.7977 1056.7C57.8367 1056.7 57.866 1056.7 57.905 1056.72L62.2542 1058.14C62.381 1058.18 62.4785 1058.29 62.4882 1058.43C62.771 1061.39 63.4927 1064.28 64.6336 1067.04C64.6824 1067.16 64.6628 1067.3 64.5653 1067.4H64.5751ZM66.8569 1064.39C66.7497 1064.55 66.5839 1064.55 66.5254 1064.54C66.4571 1064.54 66.3011 1064.49 66.2328 1064.31C65.5307 1062.21 65.0821 1060.04 64.8968 1057.84C64.8968 1057.76 64.9164 1057.66 64.9749 1057.59C66.4084 1055.92 68.0466 1054.43 69.8507 1053.14C69.9189 1053.09 69.9872 1053.08 70.0457 1053.08C70.1237 1053.08 70.1822 1053.1 70.2212 1053.12C70.2798 1053.15 70.4163 1053.25 70.3968 1053.45C70.153 1057.33 68.9243 1061.11 66.8472 1064.38L66.8569 1064.39Z" fill="white"/>
<path d="M47.1198 982.718C35.2228 982.718 23.3356 978.193 14.2764 969.134C-3.83236 951.025 -3.83236 921.565 14.2764 903.457C23.0528 894.68 34.7157 889.853 47.1198 889.853C59.5238 889.853 71.1868 894.68 79.9632 903.457C98.0719 921.565 98.0719 951.025 79.9632 969.134C70.9137 978.183 59.0168 982.718 47.1198 982.718ZM16.7143 966.696C33.4773 983.459 60.7525 983.459 77.5155 966.696C94.2786 949.933 94.2786 922.657 77.5155 905.894C69.3925 897.771 58.5974 893.305 47.11 893.305C35.6226 893.305 24.8276 897.781 16.7045 905.894C-0.0584979 922.657 -0.0584979 949.933 16.7045 966.696H16.7143Z" fill="#9DADF2"/>
<path d="M46.5057 953.677C46.6714 954.077 47.0615 954.311 47.4711 954.311C47.6076 954.311 47.7441 954.282 47.8807 954.233C51.1572 952.858 54.1412 950.732 56.5011 948.08C56.8814 947.651 56.8424 946.988 56.4133 946.607C55.9843 946.227 55.3211 946.266 54.9408 946.695C52.7857 949.123 50.065 951.064 47.0713 952.312C46.5447 952.536 46.2911 953.151 46.5154 953.677H46.5057Z" fill="#9DADF2"/>
<path d="M64.8178 920.239L47.499 913.315C47.2454 913.218 46.9724 913.218 46.7189 913.315L29.4 920.239C29.0002 920.395 28.7466 920.775 28.7466 921.204V933.608C28.7661 945.057 36.0018 955.403 46.7481 959.343C46.8651 959.382 46.9821 959.401 47.1089 959.401C47.2357 959.401 47.3527 959.382 47.4697 959.343C58.216 955.393 65.4517 945.057 65.4712 933.608V921.204C65.4712 920.775 65.2177 920.395 64.8178 920.239ZM63.3843 933.608C63.3648 944.023 56.8312 953.511 47.1186 957.246C37.406 953.511 30.8627 944.023 30.8432 933.608V921.916L47.1186 915.412L63.3843 921.916V933.608Z" fill="#9DADF2"/>
<path d="M39.8834 921.867C39.6298 921.76 39.347 921.76 39.0837 921.867L34.9588 923.515C34.559 923.671 34.3054 924.052 34.3054 924.481V928.879C34.3054 929.454 34.7735 929.922 35.3488 929.922C35.9242 929.922 36.3923 929.454 36.3923 928.879V925.193L39.8541 923.808C40.1174 923.701 40.3124 923.506 40.4295 923.242C40.5367 922.989 40.5367 922.706 40.4295 922.443C40.3222 922.179 40.1272 921.984 39.8736 921.867H39.8834Z" fill="#9DADF2"/>
<path d="M73.4866 909.922C66.4459 902.871 57.0747 899 47.1085 899C37.1424 899 27.7808 902.881 20.7304 909.922C6.19077 924.461 6.19077 948.128 20.7304 962.678C28.0051 969.952 37.5519 973.58 47.1085 973.58C56.6651 973.58 66.2119 969.943 73.4866 962.678C88.0263 948.138 88.0263 924.471 73.4866 909.922ZM68.328 933.608C68.3573 946.841 59.9026 958.416 47.2938 962.424C47.1768 962.463 47.05 962.463 46.9232 962.424C34.3144 958.416 25.8597 946.841 25.889 933.608V918.971C25.889 918.727 26.0353 918.503 26.2693 918.405L46.8842 910.165C46.9525 910.136 47.0305 910.126 47.1085 910.126C47.1865 910.126 47.2645 910.136 47.3328 910.165L67.9477 918.415C68.1817 918.503 68.328 918.727 68.328 918.981V933.618V933.608Z" fill="#9DADF2"/>
<path d="M47.5078 868.126C21.9098 868.126 1.09009 847.297 1.09009 821.709C1.09009 796.12 21.9196 775.291 47.5078 775.291C73.096 775.291 93.9254 796.12 93.9254 821.709C93.9254 847.297 73.096 868.126 47.5078 868.126ZM47.5078 778.382C23.6163 778.382 4.18133 797.817 4.18133 821.709C4.18133 845.6 23.6163 865.035 47.5078 865.035C71.3992 865.035 90.8342 845.6 90.8342 821.709C90.8342 797.817 71.3992 778.382 47.5078 778.382Z" fill="#478BF9"/>
<path d="M77.7883 788.593L63.4182 802.963L66.2454 805.79L80.6155 791.42L77.7883 788.593Z" fill="#478BF9"/>
<path d="M28.3276 838.052L13.9575 852.422L16.7846 855.249L31.1547 840.879L28.3276 838.052Z" fill="#478BF9"/>
<path d="M66.6809 838.066L63.8538 840.894L78.2238 855.264L81.051 852.436L66.6809 838.066Z" fill="#478BF9"/>
<path d="M16.7812 788.16L13.9541 790.988L28.3173 805.351L31.1444 802.524L16.7812 788.16Z" fill="#478BF9"/>
<path d="M58.829 822.957C59.7652 822.021 59.7652 820.509 58.829 819.583L56.8397 817.603C55.9035 816.667 54.392 816.667 53.4656 817.603L52.3929 818.676L51.1545 817.437C50.2184 816.501 48.7068 816.501 47.7804 817.437L46.7078 818.52L45.4693 817.271C44.5331 816.335 43.0216 816.335 42.0952 817.271L35.5129 823.854C35.4641 823.903 35.4641 823.981 35.5129 824.039C36.3905 824.917 37.824 824.917 38.7114 824.039L42.9534 819.797C43.4117 819.339 44.1528 819.339 44.6112 819.797L44.9232 820.109C44.9817 820.168 44.9817 820.255 44.9232 820.314L41.3834 823.854C41.3346 823.903 41.3346 823.981 41.3834 824.039C42.261 824.917 43.6945 824.917 44.5819 824.039L48.6483 819.973C49.1067 819.514 49.8478 819.514 50.3061 819.973L50.6182 820.285C50.6669 820.333 50.6669 820.411 50.6182 820.47L47.2051 823.883C47.1564 823.932 47.1564 824.01 47.2051 824.068C48.0828 824.946 49.5162 824.946 50.4036 824.068L54.3335 820.138C54.7919 819.68 55.5329 819.68 55.9913 820.138L56.6641 820.811C56.9274 821.075 56.9274 821.513 56.6641 821.777L56.5569 821.884C56.2936 822.147 55.8548 822.147 55.5915 821.884L54.7236 821.016C54.6748 820.967 54.5968 820.967 54.5383 821.016L53.0366 822.518C52.9878 822.567 52.9878 822.645 53.0366 822.703L54.392 824.059C55.3282 824.995 56.8397 824.995 57.7661 824.059L58.8388 822.986L58.829 822.957Z" fill="#478BF9"/>
<path d="M47.5089 786.115C27.8497 786.115 11.9155 802.049 11.9155 821.709C11.9155 841.368 27.8497 857.302 47.5089 857.302C67.1682 857.302 83.1023 841.368 83.1023 821.709C83.1023 802.049 67.1682 786.115 47.5089 786.115ZM48.9619 797.105C54.6763 797.437 59.8642 799.719 63.8818 803.288L58.7427 808.427C56.061 806.155 52.6772 804.682 48.9619 804.37V797.105ZM46.0656 797.105V804.37C42.3503 804.673 38.9665 806.155 36.2848 808.427L31.1457 803.288C35.1633 799.719 40.3512 797.437 46.0656 797.105ZM29.0979 805.336L34.2369 810.475C31.9648 813.156 30.4923 816.54 30.1803 820.256H22.9153C23.2469 814.541 25.5288 809.353 29.0979 805.336ZM22.9153 823.152H30.1803C30.4826 826.867 31.9648 830.251 34.2369 832.933L29.0979 838.072C25.5288 834.054 23.2469 828.866 22.9153 823.152ZM46.0656 846.302C40.3512 845.971 35.1633 843.689 31.1457 840.12L36.2848 834.981C38.9665 837.253 42.3503 838.725 46.0656 839.037V846.302ZM32.5499 821.699C32.5499 813.439 39.2493 806.74 47.5089 806.74C55.7685 806.74 62.4678 813.439 62.4678 821.699C62.4678 829.958 55.7685 836.658 47.5089 836.658C39.2493 836.658 32.5499 829.958 32.5499 821.699ZM48.9619 846.302V839.037C52.6772 838.735 56.061 837.253 58.7427 834.981L63.8818 840.12C59.8642 843.689 54.6763 845.971 48.9619 846.302ZM65.9297 838.072L60.7906 832.933C63.0627 830.251 64.5352 826.867 64.8472 823.152H72.1122C71.7806 828.866 69.4987 834.054 65.9297 838.072ZM64.8472 820.256C64.5449 816.54 63.0627 813.156 60.7906 810.475L65.9297 805.336C69.4987 809.353 71.7806 814.541 72.1122 820.256H64.8472Z" fill="#478BF9"/>
<path d="M14.8067 732.878C-3.45281 714.618 -3.45281 684.911 14.8067 666.652C33.0661 648.392 62.7733 648.392 81.0327 666.652C99.2922 684.911 99.2922 714.618 81.0327 732.878C62.7733 751.137 33.0661 751.137 14.8067 732.878ZM78.8258 668.859C61.783 651.816 34.0564 651.816 17.018 668.859C-0.0247248 685.901 -0.0247248 713.628 17.018 730.666C34.0608 747.709 61.7875 747.709 78.8258 730.666C95.8686 713.624 95.8686 685.897 78.8258 668.859Z" fill="white"/>
<path d="M79.3311 689.831C79.1668 689.667 79.0336 689.458 78.9581 689.228C77.3373 684.432 74.6907 680.182 71.0939 676.585C67.5015 672.993 63.2475 670.346 58.4517 668.721C57.8167 668.504 57.3904 667.913 57.3904 667.242V655.861C57.3904 655.382 57.6124 654.929 57.9898 654.631C58.3717 654.334 58.8646 654.232 59.3264 654.347C67.5237 656.399 75.0282 660.653 81.0229 666.652C87.0176 672.651 91.2717 680.151 93.3232 688.348C93.4386 688.815 93.3321 689.307 93.039 689.689C92.7415 690.071 92.2885 690.289 91.809 690.289H80.4279C80.0016 690.289 79.6108 690.116 79.3222 689.827L79.3311 689.831ZM73.3008 674.378C76.9687 678.046 79.7351 682.345 81.538 687.167H89.7708C87.7015 680.275 83.9403 673.979 78.8204 668.859C73.7005 663.739 67.4038 659.978 60.5165 657.913V666.146C65.339 667.944 69.6374 670.711 73.3052 674.383L73.3008 674.378Z" fill="white"/>
<path d="M14.8052 732.878C8.81051 726.883 4.55203 719.378 2.5005 711.181C2.38505 710.715 2.49163 710.222 2.78471 709.845C3.08222 709.463 3.53514 709.245 4.01471 709.245H15.3958C16.0663 709.245 16.6614 709.671 16.8745 710.306C18.4953 715.102 21.1418 719.352 24.7387 722.949C28.3311 726.541 32.5851 729.188 37.3809 730.813C38.0159 731.026 38.4422 731.621 38.4422 732.291V743.673C38.4422 744.152 38.2201 744.605 37.8427 744.903C37.4608 745.2 36.9679 745.302 36.5016 745.187C28.3044 743.135 20.8044 738.881 14.8052 732.887V732.878ZM6.06182 712.362C8.13111 719.254 11.8922 725.551 17.0122 730.671C22.1321 735.791 28.4288 739.552 35.3205 741.621V733.388C30.4981 731.59 26.1996 728.823 22.5317 725.156C18.8639 721.488 16.0974 717.189 14.2946 712.367H6.06182V712.362Z" fill="white"/>
<path d="M57.8551 744.77C57.562 744.477 57.3977 744.081 57.3977 743.664V732.283C57.3977 731.612 57.824 731.017 58.459 730.804C63.2548 729.183 67.5043 726.537 71.1012 722.94C74.698 719.343 77.3401 715.094 78.9653 710.298C79.1785 709.663 79.7736 709.237 80.4441 709.237H91.8252C92.3047 709.237 92.7577 709.459 93.0552 709.836C93.3527 710.213 93.4549 710.711 93.3394 711.173C91.2834 719.37 87.0294 726.87 81.0346 732.869C75.0399 738.868 67.5354 743.122 59.3382 745.174C58.872 745.289 58.3791 745.183 58.0016 744.89C57.9528 744.845 57.9039 744.805 57.8595 744.761L57.8551 744.77ZM60.5194 733.384V741.617C67.4111 739.548 73.7078 735.787 78.8277 730.667C83.9477 725.547 87.7044 719.25 89.7781 712.358H81.5453C79.7469 717.181 76.9804 721.475 73.3081 725.147C69.6402 728.815 65.3418 731.586 60.5194 733.384Z" fill="white"/>
<path d="M2.90972 689.831C2.86532 689.787 2.82093 689.738 2.7854 689.689C2.48789 689.312 2.38575 688.815 2.5012 688.348C4.55273 680.151 8.80677 672.647 14.8059 666.652C20.8051 660.657 28.3051 656.399 36.5023 654.347C36.9686 654.232 37.4615 654.338 37.8389 654.631C38.2164 654.929 38.4385 655.382 38.4385 655.861V667.242C38.4385 667.913 38.0122 668.508 37.3772 668.721C32.5814 670.342 28.3318 672.989 24.7349 676.585C21.1425 680.178 18.496 684.432 16.8708 689.228C16.6576 689.863 16.0626 690.289 15.3921 690.289H4.01099C3.59358 690.289 3.19391 690.125 2.90528 689.836L2.90972 689.831ZM35.3168 657.913C28.425 659.982 22.1283 663.743 17.0084 668.863C11.8885 673.983 8.1318 680.28 6.05807 687.172H14.2908C16.0892 682.349 18.8557 678.055 22.528 674.383C26.1959 670.715 30.4943 667.949 35.3168 666.146V657.913Z" fill="white"/>
<path d="M73.3046 674.378C59.308 660.382 36.5281 660.377 22.5316 674.378C8.53056 688.379 8.535 711.155 22.5316 725.151C36.5281 739.148 59.3036 739.152 73.3046 725.151C87.3056 711.15 87.3011 688.375 73.3046 674.378Z" fill="white"/>
<path d="M60.8656 712.579L35.0755 712.75C33.9891 712.757 33.1142 713.644 33.1214 714.73L33.1275 715.649C33.1347 716.736 34.0213 717.611 35.1077 717.604L60.8978 717.432C61.9842 717.425 62.859 716.539 62.8518 715.452L62.8457 714.533C62.8385 713.447 61.952 712.572 60.8656 712.579Z" fill="#110A1D"/>
<path d="M38.5892 697.012C38.3095 697.012 38.0253 696.95 37.7677 696.825L35.7561 695.853C34.8814 695.427 34.4817 694.392 34.8458 693.49L35.7695 691.19C36.0537 690.489 36.7242 690.031 37.4791 690.027C37.8032 690.027 38.1229 690.107 38.4071 690.271L40.805 691.639C41.2535 691.892 41.5777 692.331 41.6931 692.838C41.8086 693.344 41.7065 693.877 41.4134 694.303L40.099 696.208C39.7571 696.705 39.1887 697.007 38.5848 697.007L38.5892 697.012Z" fill="#110A1D"/>
<path d="M57.1534 696.887C56.5495 696.887 55.9767 696.599 55.6303 696.106L54.3292 694.272C54.0273 693.85 53.9207 693.317 54.0273 692.811C54.1339 692.305 54.4536 691.861 54.9021 691.599L57.3754 690.147C57.6552 689.982 57.9749 689.894 58.2991 689.889C59.054 689.885 59.7334 690.333 60.0265 691.03L60.959 693.264C61.332 694.161 60.9457 695.205 60.0798 695.64L57.975 696.692C57.7218 696.816 57.4376 696.887 57.1579 696.887H57.1534Z" fill="#110A1D"/>
<path d="M36.5633 711.026C35.431 711.035 34.4141 710.324 34.0278 709.259L29.7249 697.416C29.4496 697.549 29.1565 697.651 28.859 697.727C28.5082 697.816 28.1529 697.86 27.7933 697.86C27.5846 697.86 27.3803 697.851 27.1805 697.824C24.938 697.54 23.2373 695.617 23.224 693.353C23.2062 690.848 25.2311 688.797 27.7355 688.779C30.24 688.761 32.2915 690.786 32.3049 693.291C32.3049 693.868 32.2071 694.423 32.0029 694.942C31.8919 695.227 31.7542 695.498 31.5944 695.755L39.7783 699.716L46.0395 690.644C45.7775 690.533 45.5243 690.395 45.2845 690.231C44.8316 689.925 44.4364 689.543 44.1167 689.094C43.5749 688.331 43.2818 687.429 43.2774 686.497C43.2596 683.992 45.2845 681.941 47.789 681.923C47.9 681.923 48.0155 681.923 48.1265 681.932C50.3689 682.083 52.1807 683.881 52.345 686.124C52.4205 687.185 52.1407 688.202 51.5368 689.068C51.2171 689.521 50.8263 689.907 50.3778 690.213C50.1425 690.378 49.8894 690.515 49.6274 690.626L55.9995 699.605L64.0502 695.577C63.8992 695.289 63.7794 694.987 63.6906 694.672C63.584 694.29 63.5263 693.89 63.5263 693.486C63.5263 693.304 63.5351 693.122 63.5529 692.944C63.8104 690.662 65.7376 688.93 68.0334 688.917C70.5378 688.899 72.5894 690.924 72.6027 693.428C72.6205 695.817 70.7643 697.824 68.3797 697.989L68.0955 697.998C67.6337 697.998 67.1808 697.935 66.7412 697.802C66.457 697.713 66.1817 697.602 65.9241 697.46L61.8832 709.072C61.5147 710.142 60.5022 710.862 59.3699 710.871L36.5633 711.022V711.026Z" fill="#110A1D"/>
<path d="M47.1198 633.119C35.2228 633.119 23.3356 628.595 14.2764 619.536C-3.83236 601.427 -3.83236 571.967 14.2764 553.858C23.0528 545.082 34.7157 540.255 47.1198 540.255C59.5238 540.255 71.1868 545.082 79.9632 553.858C98.0719 571.967 98.0719 601.427 79.9632 619.536C70.9137 628.585 59.0168 633.119 47.1198 633.119ZM16.7143 617.098C33.4773 633.861 60.7525 633.861 77.5155 617.098C94.2786 600.335 94.2786 573.059 77.5155 556.296C69.3925 548.173 58.5974 543.707 47.11 543.707C35.6226 543.707 24.8276 548.183 16.7045 556.296C-0.0584979 573.059 -0.0584979 600.335 16.7045 617.098H16.7143Z" fill="#9DADF2"/>
<path d="M46.5057 604.069C46.6714 604.469 47.0615 604.703 47.4711 604.703C47.6076 604.703 47.7441 604.674 47.8807 604.625C51.1572 603.25 54.1412 601.124 56.5011 598.472C56.8814 598.043 56.8424 597.38 56.4133 597C55.9843 596.619 55.3211 596.658 54.9408 597.087C52.7857 599.515 50.065 601.456 47.0713 602.704C46.5447 602.929 46.2911 603.543 46.5154 604.069H46.5057Z" fill="#9DADF2"/>
<path d="M64.8178 570.641L47.499 563.717C47.2454 563.62 46.9724 563.62 46.7189 563.717L29.4 570.641C29.0002 570.797 28.7466 571.177 28.7466 571.607V584.011C28.7661 595.459 36.0018 605.805 46.7481 609.745C46.8651 609.784 46.9821 609.804 47.1089 609.804C47.2357 609.804 47.3527 609.784 47.4697 609.745C58.216 605.796 65.4517 595.459 65.4712 584.011V571.607C65.4712 571.177 65.2177 570.797 64.8178 570.641ZM63.3843 584.011C63.3648 594.425 56.8312 603.914 47.1186 607.648C37.406 603.914 30.8627 594.425 30.8432 584.011V572.318L47.1186 565.814L63.3843 572.318V584.011Z" fill="#9DADF2"/>
<path d="M39.8834 572.269C39.6298 572.162 39.347 572.162 39.0837 572.269L34.9588 573.917C34.559 574.074 34.3054 574.454 34.3054 574.883V579.281C34.3054 579.856 34.7735 580.324 35.3488 580.324C35.9242 580.324 36.3923 579.856 36.3923 579.281V575.595L39.8541 574.21C40.1174 574.103 40.3124 573.908 40.4295 573.644C40.5367 573.391 40.5367 573.108 40.4295 572.845C40.3222 572.582 40.1272 572.386 39.8736 572.269H39.8834Z" fill="#9DADF2"/>
<path d="M73.4866 560.324C66.4459 553.274 57.0747 549.402 47.1085 549.402C37.1424 549.402 27.7808 553.283 20.7304 560.324C6.19077 574.864 6.19077 598.531 20.7304 613.08C28.0051 620.355 37.5519 623.982 47.1085 623.982C56.6651 623.982 66.2119 620.345 73.4866 613.08C88.0263 598.541 88.0263 574.873 73.4866 560.324ZM68.328 584.011C68.3573 597.243 59.9026 608.819 47.2938 612.827C47.1768 612.866 47.05 612.866 46.9232 612.827C34.3144 608.819 25.8597 597.243 25.889 584.011V569.373C25.889 569.13 26.0353 568.905 26.2693 568.808L46.8842 560.568C46.9525 560.538 47.0305 560.529 47.1085 560.529C47.1865 560.529 47.2645 560.538 47.3328 560.568L67.9477 568.818C68.1817 568.905 68.328 569.13 68.328 569.383V584.02V584.011Z" fill="#9DADF2"/>
<path d="M47.2553 514.501C21.6574 514.501 0.837646 493.671 0.837646 468.083C0.837646 442.495 21.6671 421.666 47.2553 421.666C72.8436 421.666 93.673 442.495 93.673 468.083C93.673 493.671 72.8436 514.501 47.2553 514.501ZM47.2553 424.757C23.3639 424.757 3.92895 444.192 3.92895 468.083C3.92895 491.975 23.3639 511.41 47.2553 511.41C71.1468 511.41 90.5817 491.975 90.5817 468.083C90.5817 444.192 71.1468 424.757 47.2553 424.757Z" fill="white"/>
<path d="M62.3113 439.092C62.0773 439.092 61.8432 439.043 61.6287 438.936C57.1332 436.712 52.2964 435.581 47.2548 435.581C42.2132 435.581 37.3764 436.712 32.881 438.936C32.2861 439.228 31.5742 439.111 31.1062 438.643L23.1293 430.666C22.788 430.325 22.632 429.857 22.6905 429.379C22.749 428.901 23.0221 428.482 23.4316 428.238C30.6186 423.928 38.8587 421.656 47.2646 421.656C55.6705 421.656 63.9106 423.938 71.0975 428.238C71.5071 428.482 71.7801 428.901 71.8386 429.379C71.8971 429.857 71.7314 430.325 71.3998 430.666L63.4229 438.643C63.1206 438.936 62.7306 439.092 62.3211 439.092H62.3113ZM47.2548 432.49C52.3939 432.49 57.3477 433.562 61.9895 435.679L67.7624 429.906C61.4824 426.522 54.432 424.747 47.2548 424.747C40.0776 424.747 33.0272 426.522 26.7472 429.906L32.5201 435.679C37.1619 433.562 42.1157 432.49 47.2548 432.49Z" fill="white"/>
<path d="M47.2531 514.501C38.8472 514.501 30.6071 512.219 23.4202 507.918C23.0106 507.675 22.7376 507.255 22.6791 506.777C22.6206 506.3 22.7863 505.831 23.1179 505.49L31.0947 497.513C31.5628 497.045 32.2844 496.928 32.8695 497.221C37.365 499.444 42.2018 500.575 47.2434 500.575C52.285 500.575 57.1217 499.444 61.6172 497.221C62.2121 496.928 62.924 497.045 63.392 497.513L71.3688 505.49C71.7101 505.831 71.8662 506.3 71.8077 506.777C71.7492 507.255 71.4761 507.675 71.0665 507.918C63.8796 512.229 55.6395 514.501 47.2336 514.501H47.2531ZM26.7455 506.251C33.0255 509.635 40.0759 511.409 47.2531 511.409C54.4303 511.409 61.4807 509.635 67.7607 506.251L61.9878 500.478C57.346 502.594 52.3922 503.667 47.2531 503.667C42.114 503.667 37.1602 502.594 32.5185 500.478L26.7455 506.251Z" fill="white"/>
<path d="M85.7661 492.657C85.3566 492.657 84.9665 492.501 84.674 492.209L76.6972 484.232C76.2291 483.764 76.1121 483.042 76.4046 482.457C78.628 477.962 79.7591 473.125 79.7591 468.083C79.7591 463.042 78.628 458.205 76.4046 453.709C76.1121 453.114 76.2291 452.393 76.6972 451.935L84.674 443.958C85.0153 443.616 85.4834 443.46 85.9612 443.519C86.439 443.577 86.8583 443.85 87.1021 444.26C91.4123 451.447 93.6844 459.687 93.6844 468.093C93.6844 476.499 91.4123 484.739 87.1021 491.926C86.8583 492.335 86.439 492.609 85.9612 492.667C85.8929 492.667 85.8344 492.667 85.7661 492.667V492.657ZM79.6519 482.808L85.4249 488.581C88.8087 482.301 90.5834 475.251 90.5834 468.073C90.5834 460.896 88.8087 453.846 85.4249 447.566L79.6519 453.339C81.768 457.981 82.8407 462.934 82.8407 468.073C82.8407 473.213 81.768 478.166 79.6519 482.808Z" fill="white"/>
<path d="M8.74625 492.657C8.67799 492.657 8.61947 492.657 8.56096 492.647C8.08314 492.589 7.66377 492.316 7.41998 491.906C3.10977 484.719 0.837646 476.479 0.837646 468.073C0.837646 459.667 3.10977 451.427 7.41998 444.241C7.66377 443.831 8.08314 443.558 8.56096 443.499C9.03879 443.441 9.50688 443.607 9.84818 443.938L17.825 451.915C18.2931 452.383 18.4101 453.105 18.1175 453.69C15.8942 458.185 14.763 463.022 14.763 468.064C14.763 473.105 15.8942 477.942 18.1175 482.438C18.4101 483.032 18.2931 483.754 17.825 484.212L9.84818 492.189C9.55564 492.482 9.16552 492.647 8.75595 492.647L8.74625 492.657ZM9.08753 447.566C5.70372 453.846 3.92895 460.896 3.92895 468.073C3.92895 475.251 5.70372 482.301 9.08753 488.581L14.8605 482.808C12.7444 478.166 11.6717 473.212 11.6717 468.073C11.6717 462.934 12.7444 457.98 14.8605 453.339L9.08753 447.566Z" fill="white"/>
<path d="M47.2562 432.49C27.636 432.49 11.6628 448.453 11.6628 468.083C11.6628 487.713 27.6262 503.677 47.2562 503.677C66.8862 503.677 82.8496 487.713 82.8496 468.083C82.8496 448.453 66.8862 432.49 47.2562 432.49ZM67.286 456.391C68.973 459.277 69.9969 462.427 70.3285 465.772C70.3383 465.909 70.2798 466.035 70.1627 466.104C67.6176 467.664 65.3357 469.575 63.3658 471.808C63.2781 471.916 63.1318 471.955 63.005 471.906L58.6071 470.472C58.4803 470.433 58.3925 470.326 58.373 470.19C57.8757 466.552 56.7445 463.071 55.0088 459.833C54.9503 459.716 54.96 459.58 55.038 459.472L57.7587 455.728C57.8269 455.64 57.9342 455.582 58.0415 455.582C58.0708 455.582 58.0903 455.582 58.1195 455.582C61.0255 456.225 64.0095 456.44 66.9739 456.196C67.1105 456.186 67.2373 456.254 67.3055 456.371L67.286 456.391ZM55.9742 470.804C55.9839 470.901 55.9546 470.999 55.8961 471.067C53.585 473.729 50.64 475.865 47.3928 477.23C47.305 477.269 47.2172 477.269 47.1294 477.23C43.8822 475.855 40.9371 473.72 38.626 471.067C38.5675 470.999 38.5383 470.901 38.548 470.804C38.9966 467.274 40.0985 463.9 41.805 460.779C41.8538 460.691 41.9319 460.633 42.0294 460.613C43.7457 460.253 45.5009 460.067 47.266 460.067C49.031 460.067 50.7863 460.253 52.5026 460.613C52.6001 460.633 52.6781 460.691 52.7269 460.779C54.4334 463.9 55.5256 467.274 55.9839 470.804H55.9742ZM55.4475 446.6C55.4475 446.6 55.5646 446.503 55.6816 446.503C55.7206 446.503 55.7693 446.503 55.8181 446.532C59.4067 447.956 62.615 450.296 65.1114 453.29C65.2382 453.436 65.1894 453.592 65.1602 453.651C65.1407 453.7 65.0529 453.856 64.8481 453.856C62.6345 453.885 60.4307 453.631 58.295 453.124C58.2073 453.105 58.1292 453.046 58.0805 452.968C56.9395 451.086 56.0229 449.058 55.3598 446.951C55.3013 446.766 55.4085 446.639 55.4573 446.6H55.4475ZM42.3317 445.43C45.5595 444.738 48.9627 444.738 52.1905 445.43C52.3173 445.459 52.4245 445.557 52.4538 445.684C53.1461 448.58 54.2676 451.349 55.7791 453.914C55.8474 454.031 55.8376 454.177 55.7596 454.294L53.0584 458.019C52.9804 458.127 52.8439 458.185 52.7171 458.156C49.148 457.434 45.3741 457.434 41.805 458.156C41.6783 458.185 41.5418 458.127 41.4638 458.019L38.7625 454.294C38.6845 454.187 38.6748 454.031 38.743 453.914C40.2545 451.349 41.376 448.58 42.0684 445.684C42.0976 445.557 42.2049 445.459 42.3317 445.43ZM29.4108 453.29C31.9072 450.286 35.1154 447.946 38.704 446.532C38.7528 446.513 38.8016 446.503 38.8406 446.503C38.9673 446.503 39.0453 446.571 39.0746 446.6C39.1234 446.649 39.2306 446.766 39.1721 446.951C38.509 449.068 37.5924 451.086 36.4514 452.968C36.4027 453.046 36.3247 453.105 36.2369 453.124C34.1013 453.631 31.8974 453.885 29.6838 453.856C29.479 453.856 29.3912 453.7 29.3717 453.651C29.3425 453.592 29.2937 453.436 29.4205 453.29H29.4108ZM27.2361 456.391C27.2946 456.284 27.4117 456.215 27.5384 456.215C27.5384 456.215 27.558 456.215 27.5677 456.215C30.542 456.449 33.526 456.245 36.4222 455.601C36.5587 455.572 36.6952 455.621 36.7732 455.738L39.4939 459.482C39.5719 459.589 39.5817 459.736 39.5232 459.843C37.7874 463.081 36.6562 466.562 36.1589 470.199C36.1394 470.326 36.0516 470.433 35.9249 470.482L31.5269 471.915C31.4001 471.955 31.2538 471.916 31.1661 471.818C29.1962 469.585 26.9143 467.674 24.3692 466.113C24.2619 466.045 24.1936 465.918 24.2034 465.782C24.535 462.437 25.5589 459.277 27.2459 456.401L27.2361 456.391ZM28.2991 480.419C28.2406 480.604 28.0748 480.643 28.0065 480.653C27.9383 480.653 27.7822 480.653 27.675 480.497C25.5979 477.23 24.3692 473.447 24.1254 469.565C24.1156 469.37 24.2424 469.273 24.3009 469.244C24.3594 469.214 24.5154 469.146 24.6715 469.263C26.4755 470.541 28.1138 472.042 29.5473 473.71C29.6058 473.778 29.635 473.866 29.6253 473.963C29.4498 476.157 29.0012 478.332 28.2893 480.429L28.2991 480.419ZM37.9337 489.322C34.8912 487.986 32.2094 486.026 29.9666 483.51C29.8788 483.413 29.8496 483.266 29.8984 483.149C31.0393 480.399 31.7609 477.503 32.0437 474.539C32.0534 474.402 32.151 474.285 32.2778 474.246L36.6269 472.832C36.6269 472.832 36.6952 472.813 36.7342 472.813C36.8317 472.813 36.9195 472.852 36.9877 472.93C39.4256 475.66 42.4779 477.883 45.8227 479.356C45.9495 479.414 46.0275 479.532 46.0275 479.668V484.242C46.0275 484.378 45.9495 484.505 45.8227 484.554C43.0923 485.734 40.5569 487.323 38.2847 489.264C38.1872 489.351 38.0409 489.371 37.9239 489.312L37.9337 489.322ZM53.2729 490.288C53.2632 490.356 53.2144 490.512 53.0194 490.561C49.2553 491.516 45.2766 491.516 41.5125 490.561C41.3272 490.512 41.2687 490.356 41.259 490.288C41.2492 490.219 41.2297 490.063 41.3955 489.937C43.1703 488.62 45.1011 487.518 47.1392 486.67C47.227 486.631 47.3147 486.631 47.4025 486.67C49.4308 487.518 51.3616 488.62 53.1462 489.937C53.3022 490.054 53.2925 490.219 53.2827 490.288H53.2729ZM64.5751 483.52C62.3322 486.036 59.6505 487.986 56.608 489.322C56.4812 489.381 56.3447 489.351 56.2472 489.273C53.975 487.333 51.4494 485.743 48.7092 484.563C48.5824 484.505 48.5044 484.388 48.5044 484.251V479.678C48.5044 479.541 48.5824 479.415 48.7092 479.366C52.054 477.893 55.116 475.67 57.5442 472.939C57.6124 472.861 57.7002 472.822 57.7977 472.822C57.8367 472.822 57.866 472.822 57.905 472.842L62.2542 474.256C62.381 474.295 62.4785 474.412 62.4882 474.548C62.771 477.513 63.4927 480.399 64.6336 483.159C64.6824 483.276 64.6628 483.422 64.5653 483.52H64.5751ZM66.8569 480.507C66.7497 480.672 66.5839 480.672 66.5254 480.663C66.4571 480.663 66.3011 480.614 66.2328 480.429C65.5307 478.332 65.0821 476.157 64.8968 473.963C64.8968 473.876 64.9164 473.778 64.9749 473.71C66.4084 472.042 68.0466 470.55 69.8507 469.263C69.9189 469.214 69.9872 469.195 70.0457 469.195C70.1237 469.195 70.1822 469.224 70.2212 469.244C70.2798 469.273 70.4163 469.37 70.3968 469.565C70.153 473.447 68.9243 477.23 66.8472 480.497L66.8569 480.507Z" fill="white"/>
<path d="M47.1198 398.837C35.2228 398.837 23.3356 394.312 14.2764 385.253C-3.83236 367.144 -3.83236 337.685 14.2764 319.576C23.0528 310.799 34.7157 305.972 47.1198 305.972C59.5238 305.972 71.1868 310.799 79.9632 319.576C98.0719 337.685 98.0719 367.144 79.9632 385.253C70.9137 394.302 59.0168 398.837 47.1198 398.837ZM16.7143 382.815C33.4773 399.578 60.7525 399.578 77.5155 382.815C94.2786 366.052 94.2786 338.777 77.5155 322.014C69.3925 313.891 58.5974 309.425 47.11 309.425C35.6226 309.425 24.8276 313.9 16.7045 322.014C-0.0584979 338.777 -0.0584979 366.052 16.7045 382.815H16.7143Z" fill="#9DADF2"/>
<path d="M46.5057 369.796C46.6714 370.196 47.0615 370.43 47.4711 370.43C47.6076 370.43 47.7441 370.401 47.8807 370.352C51.1572 368.977 54.1412 366.852 56.5011 364.199C56.8814 363.77 56.8424 363.107 56.4133 362.727C55.9843 362.346 55.3211 362.385 54.9408 362.814C52.7857 365.243 50.065 367.183 47.0713 368.431C46.5447 368.656 46.2911 369.27 46.5154 369.796H46.5057Z" fill="#9DADF2"/>
<path d="M64.8178 336.358L47.499 329.434C47.2454 329.337 46.9724 329.337 46.7189 329.434L29.4 336.358C29.0002 336.514 28.7466 336.894 28.7466 337.324V349.728C28.7661 361.176 36.0018 371.522 46.7481 375.462C46.8651 375.501 46.9821 375.521 47.1089 375.521C47.2357 375.521 47.3527 375.501 47.4697 375.462C58.216 371.513 65.4517 361.176 65.4712 349.728V337.324C65.4712 336.894 65.2177 336.514 64.8178 336.358ZM63.3843 349.728C63.3648 360.142 56.8312 369.631 47.1186 373.365C37.406 369.631 30.8627 360.142 30.8432 349.728V338.035L47.1186 331.531L63.3843 338.035V349.728Z" fill="#9DADF2"/>
<path d="M39.8834 337.987C39.6298 337.879 39.347 337.879 39.0837 337.987L34.9588 339.635C34.559 339.791 34.3054 340.171 34.3054 340.6V344.998C34.3054 345.573 34.7735 346.042 35.3488 346.042C35.9242 346.042 36.3923 345.573 36.3923 344.998V341.312L39.8541 339.927C40.1174 339.82 40.3124 339.625 40.4295 339.362C40.5367 339.108 40.5367 338.825 40.4295 338.562C40.3222 338.299 40.1272 338.104 39.8736 337.987H39.8834Z" fill="#9DADF2"/>
<path d="M73.4866 326.041C66.4459 318.991 57.0747 315.119 47.1085 315.119C37.1424 315.119 27.7808 319.001 20.7304 326.041C6.19077 340.581 6.19077 364.248 20.7304 378.797C28.0051 386.072 37.5519 389.7 47.1085 389.7C56.6651 389.7 66.2119 386.062 73.4866 378.797C88.0263 364.258 88.0263 340.591 73.4866 326.041ZM68.328 349.728C68.3573 362.961 59.9026 374.536 47.2938 378.544C47.1768 378.583 47.05 378.583 46.9232 378.544C34.3144 374.536 25.8597 362.961 25.889 349.728V335.091C25.889 334.847 26.0353 334.623 26.2693 334.525L46.8842 326.285C46.9525 326.256 47.0305 326.246 47.1085 326.246C47.1865 326.246 47.2645 326.256 47.3328 326.285L67.9477 334.535C68.1817 334.623 68.328 334.847 68.328 335.1V349.738V349.728Z" fill="#9DADF2"/>
<path d="M47.5078 284.246C21.9098 284.246 1.09009 263.417 1.09009 237.828C1.09009 212.24 21.9196 191.411 47.5078 191.411C73.096 191.411 93.9254 212.24 93.9254 237.828C93.9254 263.417 73.096 284.246 47.5078 284.246ZM47.5078 194.502C23.6163 194.502 4.18133 213.937 4.18133 237.828C4.18133 261.72 23.6163 281.155 47.5078 281.155C71.3992 281.155 90.8342 261.72 90.8342 237.828C90.8342 213.937 71.3992 194.502 47.5078 194.502Z" fill="#478BF9"/>
<path d="M77.7883 204.713L63.4182 219.083L66.2454 221.91L80.6155 207.54L77.7883 204.713Z" fill="#478BF9"/>
<path d="M28.3276 254.172L13.9575 268.542L16.7846 271.369L31.1547 256.999L28.3276 254.172Z" fill="#478BF9"/>
<path d="M66.6809 254.186L63.8538 257.013L78.2238 271.383L81.051 268.556L66.6809 254.186Z" fill="#478BF9"/>
<path d="M16.7812 204.28L13.9541 207.107L28.3173 221.47L31.1444 218.643L16.7812 204.28Z" fill="#478BF9"/>
<path d="M58.829 239.076C59.7652 238.14 59.7652 236.629 58.829 235.702L56.8397 233.723C55.9035 232.787 54.392 232.787 53.4656 233.723L52.3929 234.795L51.1545 233.557C50.2184 232.621 48.7068 232.621 47.7804 233.557L46.7078 234.639L45.4693 233.391C44.5331 232.455 43.0216 232.455 42.0952 233.391L35.5129 239.973C35.4641 240.022 35.4641 240.1 35.5129 240.159C36.3905 241.036 37.824 241.036 38.7114 240.159L42.9534 235.917C43.4117 235.458 44.1528 235.458 44.6112 235.917L44.9232 236.229C44.9817 236.287 44.9817 236.375 44.9232 236.434L41.3834 239.973C41.3346 240.022 41.3346 240.1 41.3834 240.159C42.261 241.036 43.6945 241.036 44.5819 240.159L48.6483 236.092C49.1067 235.634 49.8478 235.634 50.3061 236.092L50.6182 236.404C50.6669 236.453 50.6669 236.531 50.6182 236.59L47.2051 240.003C47.1564 240.051 47.1564 240.129 47.2051 240.188C48.0828 241.066 49.5162 241.066 50.4036 240.188L54.3335 236.258C54.7919 235.8 55.5329 235.8 55.9913 236.258L56.6641 236.931C56.9274 237.194 56.9274 237.633 56.6641 237.896L56.5569 238.004C56.2936 238.267 55.8548 238.267 55.5915 238.004L54.7236 237.136C54.6748 237.087 54.5968 237.087 54.5383 237.136L53.0366 238.637C52.9878 238.686 52.9878 238.764 53.0366 238.823L54.392 240.178C55.3282 241.114 56.8397 241.114 57.7661 240.178L58.8388 239.106L58.829 239.076Z" fill="#478BF9"/>
<path d="M47.5089 202.235C27.8497 202.235 11.9155 218.169 11.9155 237.828C11.9155 257.487 27.8497 273.422 47.5089 273.422C67.1682 273.422 83.1023 257.487 83.1023 237.828C83.1023 218.169 67.1682 202.235 47.5089 202.235ZM48.9619 213.225C54.6763 213.557 59.8642 215.838 63.8818 219.407L58.7427 224.547C56.061 222.274 52.6772 220.802 48.9619 220.49V213.225ZM46.0656 213.225V220.49C42.3503 220.792 38.9665 222.274 36.2848 224.547L31.1457 219.407C35.1633 215.838 40.3512 213.557 46.0656 213.225ZM29.0979 221.455L34.2369 226.594C31.9648 229.276 30.4923 232.66 30.1803 236.375H22.9153C23.2469 230.661 25.5288 225.473 29.0979 221.455ZM22.9153 239.272H30.1803C30.4826 242.987 31.9648 246.371 34.2369 249.052L29.0979 254.191C25.5288 250.174 23.2469 244.986 22.9153 239.272ZM46.0656 262.422C40.3512 262.09 35.1633 259.808 31.1457 256.239L36.2848 251.1C38.9665 253.372 42.3503 254.845 46.0656 255.157V262.422ZM32.5499 237.818C32.5499 229.559 39.2493 222.86 47.5089 222.86C55.7685 222.86 62.4678 229.559 62.4678 237.818C62.4678 246.078 55.7685 252.777 47.5089 252.777C39.2493 252.777 32.5499 246.078 32.5499 237.818ZM48.9619 262.422V255.157C52.6772 254.855 56.061 253.372 58.7427 251.1L63.8818 256.239C59.8642 259.808 54.6763 262.09 48.9619 262.422ZM65.9297 254.191L60.7906 249.052C63.0627 246.371 64.5352 242.987 64.8472 239.272H72.1122C71.7806 244.986 69.4987 250.174 65.9297 254.191ZM64.8472 236.375C64.5449 232.66 63.0627 229.276 60.7906 226.594L65.9297 221.455C69.4987 225.473 71.7806 230.661 72.1122 236.375H64.8472Z" fill="#478BF9"/>
<path d="M14.8028 148.998C-3.45671 130.738 -3.45671 101.031 14.8028 82.7715C33.0622 64.512 62.7694 64.512 81.0288 82.7715C99.2883 101.031 99.2883 130.738 81.0288 148.998C62.7694 167.257 33.0622 167.257 14.8028 148.998ZM78.8219 84.9785C61.7791 67.9357 34.0525 67.9357 17.0141 84.9785C-0.0286311 102.021 -0.0286311 129.748 17.0141 146.786C34.0569 163.829 61.7836 163.829 78.8219 146.786C95.8647 129.743 95.8647 102.017 78.8219 84.9785Z" fill="white"/>
<path d="M79.3308 105.951C79.1665 105.787 79.0333 105.578 78.9578 105.347C77.337 100.551 74.6904 96.3018 71.0936 92.705C67.5012 89.1126 63.2472 86.466 58.4514 84.8408C57.8164 84.6232 57.3901 84.0326 57.3901 83.3621V71.981C57.3901 71.5014 57.6122 71.0485 57.9896 70.751C58.3715 70.4535 58.8644 70.3513 59.3262 70.4668C67.5234 72.5183 75.0279 76.7723 81.0226 82.7715C87.0174 88.7707 91.2714 96.2707 93.323 104.468C93.4384 104.934 93.3318 105.427 93.0388 105.809C92.7412 106.191 92.2883 106.408 91.8087 106.408H80.4276C80.0013 106.408 79.6106 106.235 79.3219 105.947L79.3308 105.951ZM73.3005 90.498C76.9684 94.1659 79.7349 98.4643 81.5378 103.287H89.7705C87.7012 96.3951 83.9401 90.0984 78.8202 84.9784C73.7002 79.8585 67.4036 76.0974 60.5163 74.0325V82.2653C65.3387 84.0637 69.6371 86.8301 73.305 90.5025L73.3005 90.498Z" fill="white"/>
<path d="M14.8013 148.998C8.80661 143.003 4.54812 135.498 2.4966 127.301C2.38114 126.835 2.48772 126.342 2.7808 125.964C3.07831 125.583 3.53123 125.365 4.01081 125.365H15.3919C16.0624 125.365 16.6575 125.791 16.8706 126.426C18.4914 131.222 21.1379 135.472 24.7348 139.068C28.3272 142.661 32.5812 145.307 37.377 146.933C38.012 147.146 38.4382 147.741 38.4382 148.411V159.792C38.4382 160.272 38.2162 160.725 37.8388 161.022C37.4569 161.32 36.964 161.422 36.4977 161.307C28.3005 159.255 20.8005 155.001 14.8013 149.006V148.998ZM6.05791 128.482C8.1272 135.374 11.8883 141.671 17.0083 146.791C22.1282 151.91 28.4249 155.672 35.3166 157.741V149.508C30.4942 147.71 26.1957 144.943 22.5278 141.275C18.86 137.608 16.0935 133.309 14.2907 128.487H6.05791V128.482Z" fill="white"/>
<path d="M57.8475 160.889C57.5544 160.596 57.3901 160.201 57.3901 159.784V148.403C57.3901 147.732 57.8164 147.137 58.4514 146.924C63.2472 145.303 67.4968 142.657 71.0936 139.06C74.6904 135.463 77.3325 131.213 78.9578 126.417C79.1709 125.782 79.766 125.356 80.4365 125.356H91.8176C92.2972 125.356 92.7501 125.578 93.0476 125.956C93.3451 126.333 93.4473 126.83 93.3318 127.292C91.2759 135.489 87.0218 142.99 81.0271 148.989C75.0324 154.988 67.5279 159.242 59.3306 161.293C58.8644 161.409 58.3715 161.302 57.994 161.009C57.9452 160.965 57.8964 160.925 57.852 160.88L57.8475 160.889ZM60.5118 149.504V157.737C67.4035 155.667 73.7002 151.906 78.8201 146.786C83.9401 141.666 87.6968 135.37 89.7705 128.478H81.5378C79.7393 133.3 76.9729 137.594 73.3005 141.267C69.6327 144.934 65.3343 147.705 60.5118 149.504Z" fill="white"/>
<path d="M2.90582 105.951C2.86141 105.907 2.81702 105.858 2.7815 105.809C2.48398 105.432 2.38184 104.934 2.4973 104.468C4.54882 96.2708 8.80286 88.7662 14.802 82.7715C20.8012 76.7768 28.3012 72.5183 36.4984 70.4668C36.9647 70.3514 37.4576 70.4579 37.835 70.751C38.2125 71.0485 38.4346 71.5015 38.4346 71.981V83.3621C38.4346 84.0326 38.0083 84.6277 37.3733 84.8408C32.5775 86.4616 28.3279 89.1082 24.731 92.705C21.1386 96.2974 18.4921 100.551 16.8669 105.347C16.6537 105.982 16.0587 106.408 15.3882 106.408H4.00709C3.58968 106.408 3.19001 106.244 2.90137 105.956L2.90582 105.951ZM35.3128 74.0326C28.4211 76.1019 22.1244 79.863 17.0045 84.9829C11.8846 90.1029 8.1279 96.3995 6.05417 103.291H14.2869C16.0853 98.4688 18.8518 94.1748 22.5241 90.5025C26.192 86.8346 30.4904 84.0682 35.3128 82.2653V74.0326Z" fill="white"/>
<path d="M73.3043 90.4979C59.3078 76.5013 36.5279 76.4969 22.5313 90.4979C8.53031 104.499 8.53475 127.274 22.5313 141.271C36.5279 155.267 59.3033 155.272 73.3043 141.271C87.3053 127.27 87.3009 104.494 73.3043 90.4979Z" fill="white"/>
<path d="M60.8617 128.699L35.0716 128.87C33.9852 128.877 33.1103 129.764 33.1175 130.85L33.1236 131.769C33.1308 132.856 34.0174 133.73 35.1038 133.723L60.8938 133.552C61.9803 133.545 62.8551 132.658 62.8479 131.572L62.8418 130.653C62.8346 129.566 61.9481 128.692 60.8617 128.699Z" fill="#110A1D"/>
<path d="M38.5855 113.131C38.3058 113.131 38.0216 113.069 37.7641 112.945L35.7525 111.972C34.8777 111.546 34.478 110.512 34.8422 109.61L35.7658 107.31C36.05 106.608 36.7205 106.151 37.4754 106.146C37.7996 106.146 38.1193 106.226 38.4035 106.391L40.8014 107.758C41.2499 108.012 41.574 108.451 41.6895 108.957C41.8049 109.464 41.7028 109.996 41.4097 110.423L40.0953 112.328C39.7534 112.825 39.185 113.127 38.5811 113.127L38.5855 113.131Z" fill="#110A1D"/>
<path d="M57.1532 113.007C56.5493 113.007 55.9765 112.718 55.6301 112.226L54.329 110.392C54.027 109.97 53.9205 109.437 54.0271 108.931C54.1336 108.424 54.4533 107.98 54.9018 107.718L57.3752 106.266C57.6549 106.102 57.9747 106.013 58.2989 106.009C59.0537 106.004 59.7332 106.453 60.0262 107.15L60.9587 109.384C61.3317 110.281 60.9454 111.324 60.0795 111.759L57.9747 112.812C57.7216 112.936 57.4374 113.007 57.1576 113.007H57.1532Z" fill="#110A1D"/>
<path d="M36.5594 127.146C35.4271 127.155 34.4102 126.444 34.0239 125.378L29.721 113.535C29.4457 113.669 29.1526 113.771 28.8551 113.846C28.5043 113.935 28.149 113.98 27.7894 113.98C27.5807 113.98 27.3764 113.971 27.1766 113.944C24.9341 113.66 23.2334 111.737 23.2201 109.472C23.2023 106.968 25.2272 104.916 27.7316 104.899C30.2361 104.881 32.2876 106.906 32.301 109.41C32.301 109.988 32.2032 110.543 31.999 111.062C31.888 111.346 31.7503 111.617 31.5905 111.875L39.7744 115.836L46.0355 106.764C45.7736 106.653 45.5204 106.515 45.2806 106.351C44.8277 106.044 44.4325 105.662 44.1128 105.214C43.571 104.45 43.2779 103.549 43.2735 102.616C43.2557 100.112 45.2806 98.0602 47.7851 98.0425C47.8961 98.0425 48.0116 98.0425 48.1226 98.0514C50.365 98.2023 52.1768 100.001 52.3411 102.243C52.4166 103.305 52.1368 104.321 51.5329 105.187C51.2132 105.64 50.8224 106.027 50.3739 106.333C50.1386 106.497 49.8855 106.635 49.6235 106.746L55.9956 115.725L64.0463 111.697C63.8953 111.408 63.7755 111.107 63.6867 110.791C63.5801 110.409 63.5224 110.01 63.5224 109.606C63.5224 109.424 63.5312 109.242 63.549 109.064C63.8065 106.781 65.7337 105.05 68.0295 105.036C70.5339 105.019 72.5855 107.043 72.5988 109.548C72.6165 111.937 70.7604 113.944 68.3758 114.108L68.0916 114.117C67.6298 114.117 67.1769 114.055 66.7373 113.922C66.4531 113.833 66.1778 113.722 65.9202 113.58L61.8793 125.192C61.5108 126.262 60.4983 126.981 59.366 126.99L36.5594 127.141V127.146Z" fill="#110A1D"/>
<path d="M94.3653 2.63895V114.685C94.3653 115.611 93.6144 116.352 92.6978 116.352C91.7811 116.352 91.0303 115.602 91.0303 114.685V2.63895C91.0303 1.71255 91.7811 0.971436 92.6978 0.971436C93.6144 0.971436 94.3653 1.7223 94.3653 2.63895Z" fill="white"/>
<path d="M4.85334 2.39506V114.441C4.85334 115.367 4.10251 116.109 3.18586 116.109C2.26921 116.109 1.51831 115.358 1.51831 114.441V2.39506C1.51831 1.46865 2.26921 0.727539 3.18586 0.727539C4.10251 0.727539 4.85334 1.4784 4.85334 2.39506Z" fill="white"/>
</g>
</svg>
