<svg width="100" height="100" viewBox="0 0 100 100" fill="none" xmlns="http://www.w3.org/2000/svg">
<path d="M49.7326 99.3895C22.4099 99.3895 0.1875 77.1567 0.1875 49.8444C0.1875 22.5321 22.4203 0.299316 49.7326 0.299316C77.0448 0.299316 99.2777 22.5321 99.2777 49.8444C99.2777 77.1567 77.0448 99.3895 49.7326 99.3895ZM49.7326 3.59884C24.2314 3.59884 3.48702 24.3432 3.48702 49.8444C3.48702 75.3456 24.2314 96.09 49.7326 96.09C75.2337 96.09 95.9782 75.3456 95.9782 49.8444C95.9782 24.3432 75.2337 3.59884 49.7326 3.59884Z" fill="#7DDACF"/>
<path d="M82.0648 14.4911L66.7266 29.8293L69.7442 32.847L85.0824 17.5087L82.0648 14.4911Z" fill="#7DDACF"/>
<path d="M29.2639 67.2899L13.9257 82.6282L16.9432 85.6458L32.2815 70.3075L29.2639 67.2899Z" fill="#7DDACF"/>
<path d="M70.1934 67.2976L67.1758 70.3152L82.514 85.6534L85.5316 82.6358L70.1934 67.2976Z" fill="#7DDACF"/>
<path d="M16.9395 14.0366L13.9219 17.0542L29.2528 32.3851L32.2704 29.3675L16.9395 14.0366Z" fill="#7DDACF"/>
<path d="M61.8167 51.1768C62.816 50.1776 62.816 48.5642 61.8167 47.5754L59.6933 45.4625C58.6941 44.4632 57.0808 44.4632 56.092 45.4625L54.947 46.6074L53.6251 45.2855C52.6259 44.2863 51.0126 44.2863 50.0237 45.2855L48.8788 46.4409L47.5569 45.1086C46.5577 44.1093 44.9443 44.1093 43.9555 45.1086L36.9297 52.1344C36.8776 52.1864 36.8776 52.2697 36.9297 52.3321C37.8664 53.2689 39.3965 53.2689 40.3437 52.3321L44.8715 47.8044C45.3607 47.3152 46.1517 47.3152 46.6409 47.8044L46.974 48.1375C47.0365 48.2 47.0365 48.2936 46.974 48.356L43.1957 52.1344C43.1436 52.1864 43.1436 52.2697 43.1957 52.3321C44.1325 53.2689 45.6625 53.2689 46.6097 52.3321L50.9501 47.9918C51.4393 47.5026 52.2304 47.5026 52.7196 47.9918L53.0526 48.3248C53.1047 48.3769 53.1047 48.4602 53.0526 48.5226L49.4096 52.1656C49.3576 52.2177 49.3576 52.301 49.4096 52.3634C50.3464 53.3002 51.8765 53.3002 52.8237 52.3634L57.0183 48.1687C57.5075 47.6795 58.2986 47.6795 58.7878 48.1687L59.506 48.8869C59.787 49.1679 59.787 49.6363 59.506 49.9173L59.3915 50.0318C59.1105 50.3128 58.6421 50.3128 58.3611 50.0318L57.4347 49.1055C57.3826 49.0535 57.2994 49.0535 57.2369 49.1055L55.634 50.7084C55.582 50.7604 55.582 50.8437 55.634 50.9062L57.0808 52.353C58.08 53.3522 59.6934 53.3522 60.6822 52.353L61.8272 51.208L61.8167 51.1768Z" fill="#7DDACF"/>
<path d="M49.7337 11.853C28.7499 11.853 11.7422 28.8607 11.7422 49.8445C11.7422 70.8284 28.7499 87.8361 49.7337 87.8361C70.7175 87.8361 87.7252 70.8284 87.7252 49.8445C87.7252 28.8607 70.7175 11.853 49.7337 11.853ZM51.2846 23.5836C57.3841 23.9375 62.9215 26.3731 67.2098 30.1827L61.7245 35.668C58.8621 33.2428 55.2503 31.6711 51.2846 31.338V23.5836ZM48.1932 23.5836V31.338C44.2276 31.6607 40.6158 33.2428 37.7534 35.668L32.268 30.1827C36.5564 26.3731 42.0938 23.9375 48.1932 23.5836ZM30.0823 32.3685L35.5676 37.8538C33.1424 40.7162 31.5707 44.328 31.2376 48.2937H23.4832C23.8371 42.1942 26.2727 36.6568 30.0823 32.3685ZM23.4832 51.3851H31.2376C31.5603 55.3508 33.1424 58.9625 35.5676 61.8249L30.0823 67.3103C26.2727 63.0219 23.8371 57.4845 23.4832 51.3851ZM48.1932 76.0952C42.0938 75.7413 36.5564 73.3056 32.268 69.4961L37.7534 64.0107C40.6158 66.436 44.2276 68.0076 48.1932 68.3407V76.0952ZM33.7669 49.8341C33.7669 41.018 40.9176 33.8673 49.7337 33.8673C58.5498 33.8673 65.7006 41.018 65.7006 49.8341C65.7006 58.6502 58.5498 65.801 49.7337 65.801C40.9176 65.801 33.7669 58.6502 33.7669 49.8341ZM51.2846 76.0952V68.3407C55.2503 68.018 58.8621 66.436 61.7245 64.0107L67.2098 69.4961C62.9215 73.3056 57.3841 75.7413 51.2846 76.0952ZM69.3956 67.3103L63.9103 61.8249C66.3355 58.9625 67.9072 55.3508 68.2403 51.3851H75.9947C75.6408 57.4845 73.2052 63.0219 69.3956 67.3103ZM68.2403 48.2937C67.9176 44.328 66.3355 40.7162 63.9103 37.8538L69.3956 32.3685C73.2052 36.6568 75.6408 42.1942 75.9947 48.2937H68.2403Z" fill="#7DDACF"/>
</svg>
