<svg width="101" height="173" viewBox="0 0 101 173" fill="none" xmlns="http://www.w3.org/2000/svg">
<path d="M15.4881 158.26C-4.00158 138.77 -4.00158 107.061 15.4881 87.5716C34.9779 68.0819 66.6866 68.0819 86.1763 87.5716C105.666 107.061 105.666 138.77 86.1763 158.26C66.6866 177.75 34.9779 177.75 15.4881 158.26ZM83.8207 89.9273C65.6296 71.7362 36.0348 71.7362 17.8485 89.9273C-0.342528 108.118 -0.342528 137.713 17.8485 155.899C36.0396 174.09 65.6344 174.09 83.8207 155.899C102.012 137.708 102.012 108.114 83.8207 89.9273Z" fill="white"/>
<path d="M84.3638 112.313C84.1884 112.138 84.0462 111.915 83.9657 111.668C82.2357 106.55 79.4108 102.014 75.5716 98.1744C71.7372 94.34 67.1965 91.5151 62.0776 89.7804C61.3998 89.5481 60.9448 88.9178 60.9448 88.2021V76.0542C60.9448 75.5423 61.1818 75.0588 61.5847 74.7413C61.9923 74.4237 62.5184 74.3147 63.0113 74.4379C71.7609 76.6277 79.771 81.1683 86.1696 87.5717C92.5682 93.975 97.1089 101.98 99.2987 110.73C99.4219 111.228 99.3081 111.754 98.9953 112.161C98.6777 112.569 98.1943 112.801 97.6824 112.801H85.5345C85.0795 112.801 84.6624 112.616 84.3543 112.308L84.3638 112.313ZM77.9272 95.8188C81.8422 99.7338 84.7951 104.322 86.7194 109.469H95.5069C93.2982 102.113 89.2836 95.3922 83.8187 89.9273C78.3538 84.4624 71.6329 80.4479 64.2816 78.2439V87.0314C69.4289 88.9509 74.017 91.9038 77.932 95.8235L77.9272 95.8188Z" fill="white"/>
<path d="M15.4867 158.26C9.0881 151.861 4.5427 143.851 2.35295 135.101C2.22971 134.604 2.34347 134.078 2.6563 133.675C2.97386 133.267 3.45729 133.035 3.96918 133.035H16.1171C16.8328 133.035 17.4679 133.49 17.6954 134.168C19.4254 139.287 22.2503 143.823 26.0894 147.662C29.9239 151.496 34.4646 154.321 39.5835 156.056C40.2612 156.283 40.7162 156.918 40.7162 157.634V169.782C40.7162 170.294 40.4792 170.777 40.0764 171.095C39.6687 171.412 39.1426 171.521 38.645 171.398C29.8954 169.208 21.8901 164.668 15.4867 158.269V158.26ZM6.15421 136.362C8.36292 143.718 12.3774 150.439 17.8423 155.904C23.3072 161.369 30.0282 165.384 37.3842 167.592V158.805C32.2369 156.885 27.6488 153.932 23.7338 150.017C19.8188 146.102 16.866 141.514 14.9416 136.367H6.15421V136.362Z" fill="white"/>
<path d="M61.433 170.953C61.1202 170.64 60.9448 170.218 60.9448 169.773V157.625C60.9448 156.909 61.3998 156.274 62.0776 156.046C67.1965 154.316 71.7324 151.492 75.5716 147.652C79.4108 143.813 82.2309 139.277 83.9656 134.158C84.1931 133.481 84.8283 133.026 85.544 133.026H97.6919C98.2038 133.026 98.6872 133.263 99.0048 133.665C99.3223 134.068 99.4314 134.599 99.3081 135.092C97.1136 143.842 92.573 151.847 86.1743 158.25C79.7757 164.654 71.7656 169.194 63.0161 171.384C62.5184 171.507 61.9923 171.394 61.5894 171.081C61.5373 171.033 61.4852 170.991 61.4378 170.943L61.433 170.953ZM64.2769 158.8V167.588C71.6329 165.379 78.3538 161.364 83.8187 155.9C89.2836 150.435 93.2934 143.714 95.5069 136.358H86.7194C84.7998 141.505 81.847 146.088 77.9272 150.008C74.0122 153.923 69.4242 156.881 64.2769 158.8Z" fill="white"/>
<path d="M2.78974 112.313C2.74234 112.266 2.69496 112.213 2.65704 112.161C2.33948 111.758 2.23046 111.228 2.35369 110.73C4.54344 101.98 9.0841 93.9703 15.4875 87.5717C21.8908 81.173 29.8962 76.6277 38.6457 74.4379C39.1434 74.3147 39.6695 74.4284 40.0724 74.7412C40.4752 75.0588 40.7123 75.5423 40.7123 76.0542V88.2021C40.7123 88.9178 40.2572 89.5529 39.5795 89.7804C34.4606 91.5104 29.9246 94.3352 26.0854 98.1744C22.251 102.009 19.4262 106.549 17.6914 111.668C17.4639 112.346 16.8288 112.801 16.1131 112.801H3.96521C3.51967 112.801 3.09307 112.626 2.78499 112.318L2.78974 112.313ZM37.3802 78.2439C30.0242 80.4526 23.3032 84.4672 17.8383 89.9321C12.3734 95.3969 8.36366 102.118 6.15021 109.474H14.9376C16.8572 104.327 19.8101 99.7433 23.7298 95.8235C27.6448 91.9085 32.2329 88.9557 37.3802 87.0313V78.2439Z" fill="white"/>
<path d="M77.9314 95.8188C62.9918 80.8792 38.6771 80.8744 23.7375 95.8188C8.79315 110.763 8.79789 135.073 23.7375 150.013C38.6771 164.952 62.9871 164.957 77.9314 150.013C92.8757 135.068 92.871 110.758 77.9314 95.8188Z" fill="white"/>
<path d="M64.6503 136.593L37.1226 136.776C35.963 136.784 35.0292 137.73 35.0369 138.889L35.0434 139.871C35.0511 141.03 35.9974 141.964 37.157 141.956L64.6846 141.774C65.8442 141.766 66.7781 140.82 66.7704 139.66L66.7639 138.679C66.7562 137.519 65.8099 136.586 64.6503 136.593Z" fill="#110A1D"/>
<path d="M40.8732 119.977C40.5746 119.977 40.2713 119.911 39.9964 119.778L37.8492 118.74C36.9155 118.285 36.4889 117.181 36.8776 116.219L37.8635 113.764C38.1668 113.015 38.8825 112.526 39.6883 112.522C40.0343 112.522 40.3755 112.607 40.6788 112.782L43.2383 114.242C43.717 114.512 44.063 114.982 44.1862 115.522C44.3095 116.062 44.2005 116.631 43.8876 117.086L42.4847 119.119C42.1197 119.65 41.513 119.973 40.8684 119.973L40.8732 119.977Z" fill="#110A1D"/>
<path d="M60.6919 119.845C60.0473 119.845 59.4359 119.537 59.0663 119.01L57.6775 117.053C57.3552 116.603 57.2415 116.034 57.3552 115.494C57.469 114.953 57.8102 114.479 58.2889 114.2L60.9289 112.65C61.2275 112.474 61.5688 112.38 61.9148 112.375C62.7206 112.37 63.4458 112.849 63.7586 113.593L64.7539 115.977C65.152 116.934 64.7397 118.048 63.8155 118.513L61.5688 119.636C61.2987 119.769 60.9953 119.845 60.6967 119.845H60.6919Z" fill="#110A1D"/>
<path d="M38.7106 134.936C37.502 134.945 36.4166 134.187 36.0043 133.049L31.4115 120.408C31.1176 120.551 30.8048 120.66 30.4872 120.74C30.1128 120.835 29.7336 120.882 29.3497 120.882C29.1269 120.882 28.9089 120.873 28.6956 120.845C26.302 120.541 24.4868 118.489 24.4725 116.072C24.4536 113.398 26.6148 111.209 29.288 111.19C31.9612 111.171 34.151 113.332 34.1652 116.005C34.1652 116.621 34.0609 117.214 33.8429 117.768C33.7244 118.072 33.5775 118.361 33.4069 118.636L42.1422 122.864L48.8252 113.18C48.5456 113.062 48.2754 112.915 48.0194 112.74C47.536 112.413 47.1141 112.005 46.7729 111.526C46.1946 110.711 45.8818 109.749 45.8771 108.753C45.8581 106.08 48.0194 103.891 50.6926 103.872C50.8111 103.872 50.9344 103.872 51.0529 103.881C53.4464 104.042 55.3802 105.962 55.5556 108.355C55.6362 109.488 55.3376 110.574 54.693 111.498C54.3517 111.981 53.9346 112.394 53.4559 112.721C53.2047 112.896 52.9345 113.043 52.6549 113.161L59.4564 122.745L68.0495 118.446C67.8883 118.138 67.7604 117.816 67.6656 117.479C67.5518 117.072 67.4902 116.645 67.4902 116.214C67.4902 116.019 67.4997 115.825 67.5186 115.636C67.7935 113.199 69.8506 111.351 72.301 111.337C74.9742 111.318 77.164 113.479 77.1782 116.152C77.1971 118.702 75.2159 120.845 72.6707 121.02L72.3674 121.029C71.8744 121.029 71.391 120.963 70.9218 120.821C70.6184 120.726 70.3245 120.608 70.0496 120.456L65.7365 132.85C65.3431 133.992 64.2624 134.76 63.0538 134.77L38.7106 134.931V134.936Z" fill="#110A1D"/>
<path d="M100.411 2.04012V121.635C100.411 122.624 99.6098 123.415 98.6314 123.415C97.653 123.415 96.8516 122.614 96.8516 121.635V2.04012C96.8516 1.0513 97.653 0.260254 98.6314 0.260254C99.6098 0.260254 100.411 1.06171 100.411 2.04012Z" fill="white"/>
<path d="M4.86833 1.77987V121.375C4.86833 122.364 4.0669 123.155 3.08849 123.155C2.11008 123.155 1.30859 122.354 1.30859 121.375V1.77987C1.30859 0.791047 2.11008 0 3.08849 0C4.0669 0 4.86833 0.801456 4.86833 1.77987Z" fill="white"/>
</svg>
