<svg width="100" height="101" viewBox="0 0 100 101" fill="none" xmlns="http://www.w3.org/2000/svg">
<path d="M16.6241 16.7324C35.0057 -1.65391 64.917 -1.65385 83.3033 16.7324L16.6241 16.7324ZM16.6241 16.7324C16.6241 16.7324 16.6241 16.7325 16.6241 16.7325M16.6241 16.7324L16.6241 16.7325M16.6241 16.7325C-1.76215 35.1187 -1.76222 65.0301 16.6241 83.4117L16.6241 16.7325ZM14.9708 85.065C-4.32361 65.7705 -4.32361 34.3783 14.9708 15.0839C34.2653 -4.21058 65.6574 -4.21058 84.9519 15.0839C104.246 34.3783 104.246 65.7705 84.9519 85.065C65.6574 104.359 34.2653 104.359 14.9708 85.065ZM16.6242 83.4117C35.0104 101.798 64.9218 101.798 83.3034 83.4117L16.6242 83.4117ZM83.3034 83.4116C101.69 65.0254 101.69 35.114 83.3034 16.7324L83.3034 83.4116Z" fill="white" stroke="black"/>
<path d="M83.8409 39.1209L83.8428 39.1182C83.7199 38.9952 83.6212 38.8394 83.5664 38.6717L83.5648 38.667C81.81 33.4746 78.9437 28.8727 75.0506 24.9796C71.1623 21.0912 66.556 18.2253 61.3644 16.4658C60.8869 16.3018 60.5703 15.8601 60.5703 15.3608V3.21286C60.5703 2.85641 60.7352 2.51739 61.0186 2.29351C61.3045 2.07128 61.672 1.9958 62.0154 2.08165C70.6768 4.24934 78.6067 8.74438 84.9414 15.0838C91.2763 21.4233 95.7713 29.3485 97.939 38.0096C98.0245 38.3558 97.9463 38.7251 97.7254 39.014C97.5037 39.2978 97.167 39.4599 96.8079 39.4599H84.66C84.3473 39.4599 84.0588 39.3351 83.8409 39.1209ZM85.3766 36.803L85.498 37.1279H85.8449H94.6324H95.3045L95.1112 36.4841C92.8787 29.0486 88.821 22.2557 83.2978 16.7325C77.7746 11.2093 70.9816 7.1515 63.5507 4.92367L62.9071 4.73072V5.40261V14.19V14.5372L63.2324 14.6585C68.3101 16.5521 72.8356 19.464 76.6992 23.331C80.5638 27.1957 83.4774 31.723 85.3766 36.803Z" fill="white" stroke="black"/>
<path d="M37.895 98.0717C29.3006 95.9206 21.431 91.478 15.1161 85.2201V85.2113L14.9697 85.0648C8.63494 78.7301 4.13526 70.8004 1.96755 62.1394C1.88167 61.7919 1.96098 61.4232 2.18037 61.1404C2.40207 60.8561 2.73913 60.6936 3.09857 60.6936H15.2465C15.7483 60.6936 16.192 61.0123 16.3508 61.4855L16.3511 61.4865C18.106 66.6789 20.9722 71.2809 24.8653 75.174C28.7538 79.0625 33.3605 81.9285 38.5524 83.688L38.5537 83.6884C39.0269 83.8472 39.3456 84.2909 39.3456 84.7928V96.9407C39.3456 97.2971 39.1807 97.6362 38.8973 97.8601C38.6121 98.0817 38.2446 98.1581 37.895 98.0717ZM5.28361 63.0256V63.4475L4.78361 63.5209V63.5256V64.0256H4.9147C7.16918 71.32 11.1845 77.9826 16.6182 83.4163C22.1414 88.9395 28.9344 92.9972 36.3698 95.2298L37.0136 95.4231V94.7509V85.9634V85.6163L36.6883 85.495C31.6086 83.6006 27.0814 80.6872 23.2168 76.8225C19.3521 72.9578 16.4385 68.4305 14.5394 63.3506L14.4179 63.0256H14.071H5.28361Z" fill="white" stroke="black"/>
<path d="M83.0989 61.3171C81.3642 66.436 78.5441 70.9719 74.7049 74.8111C70.8657 78.6503 66.3298 81.4751 61.2109 83.2051L83.0989 61.3171ZM83.0989 61.3171C83.3264 60.6393 83.9616 60.1843 84.6773 60.1843H96.8252C97.3371 60.1843 97.8205 60.4213 98.1381 60.8242C98.4556 61.2271 98.5647 61.7579 98.4414 62.2508C96.2469 71.0004 91.7063 79.0057 85.3076 85.4091C78.909 91.8125 70.8989 96.3531 62.1494 98.5429L83.0989 61.3171ZM62.0286 98.0577C61.6865 98.1422 61.3239 98.0666 61.043 97.855C61.0164 97.8311 60.9978 97.8149 60.9828 97.8018C60.9604 97.7823 60.9458 97.7697 60.9246 97.7485L60.8184 97.6423C60.6633 97.4401 60.5781 97.1921 60.5781 96.9313V84.7834C60.5781 84.2816 60.8968 83.838 61.37 83.6792L61.371 83.6788C66.5634 81.924 71.1653 79.0577 75.0584 75.1646C78.9517 71.2713 81.813 66.6694 83.5725 61.4776L83.5729 61.4762C83.7317 61.003 84.1754 60.6843 84.6773 60.6843H96.8252C97.1821 60.6843 97.5215 60.8497 97.7454 61.1337C97.9654 61.4128 98.0427 61.7839 97.9565 62.1292C95.7841 70.7906 91.2889 78.716 84.954 85.0557C78.6194 91.3949 70.6897 95.8899 62.0286 98.0577ZM63.2355 85.4904L62.9102 85.6117V85.9589V94.7463V95.4185L63.5539 95.2252C70.9894 92.9927 77.7823 88.935 83.3056 83.4118C88.8289 77.8884 92.8817 71.0955 95.119 63.6604L95.3128 63.0163H94.6402H85.8527H85.5055L85.3842 63.3416C83.4899 68.4211 80.5765 72.9436 76.707 76.8132C72.8421 80.678 68.3149 83.5962 63.2355 85.4904Z" fill="white" stroke="black"/>
<path d="M3.0946 39.4599C2.82178 39.4599 2.56158 39.3668 2.35879 39.2042L2.27269 39.1181C2.2351 39.0806 2.20754 39.0489 2.1908 39.0259L2.18511 39.0181L2.17911 39.0105C1.9596 38.732 1.88141 38.3607 1.96834 38.0092C4.13611 29.3481 8.63107 21.4186 14.9703 15.084C21.3099 8.74909 29.235 4.24945 37.8959 2.08178C38.243 1.99605 38.6112 2.07506 38.8937 2.2938C39.1769 2.51772 39.3417 2.8566 39.3417 3.21285V15.3607C39.3417 15.8626 39.0229 16.3062 38.5497 16.4651L38.5488 16.4654C33.3564 18.2202 28.7544 21.0865 24.8613 24.9796C20.9728 28.8681 18.1067 33.4747 16.3473 38.6666L16.3468 38.668C16.188 39.1412 15.7443 39.4599 15.2425 39.4599H3.0946ZM37.0096 5.4026V4.73041L36.3658 4.92372C28.9304 7.15627 22.1374 11.214 16.6142 16.7372C11.0908 22.2605 7.03804 29.0535 4.80081 36.4885L4.60701 37.1326H5.27961H14.067H14.4142L14.5355 36.8073C16.4298 31.7278 19.3432 27.2053 23.2128 23.3358C27.0774 19.4711 31.6047 16.5575 36.6847 14.6584L37.0096 14.5369V14.19V5.4026Z" fill="white" stroke="black"/>
<path d="M23.2163 23.331L23.2163 23.331C37.9606 8.58204 61.9587 8.58662 76.7031 23.331C91.4475 38.0754 91.4521 62.0688 76.7031 76.8179C61.9541 91.5669 37.9606 91.5622 23.2163 76.8179C8.4719 62.0735 8.46725 38.0801 23.2163 23.331Z" fill="white" stroke="black"/>
<path d="M36.259 64.4345L63.7867 64.252C64.6701 64.2461 65.3911 64.9576 65.397 65.841L65.4035 66.8221C65.4093 67.7056 64.6979 68.4265 63.8144 68.4324L36.2867 68.615C35.4032 68.6208 34.6823 67.9094 34.6764 67.0259L34.6699 66.0448C34.6641 65.1614 35.3755 64.4404 36.259 64.4345Z" fill="#110A1D" stroke="black"/>
<path d="M39.8862 46.631H40.0015C40.4798 46.631 40.9331 46.3911 41.2057 45.9946L41.2062 45.9939L42.6087 43.9613C42.6088 43.9611 42.6088 43.961 42.6089 43.9609C42.8423 43.6212 42.924 43.1957 42.8318 42.7916C42.7393 42.386 42.4794 42.0358 42.1256 41.8361L42.1236 41.835L42.1236 41.835L39.5642 40.3752L39.5616 40.3737L39.5616 40.3737C39.3395 40.2453 39.0859 40.1804 38.8228 40.1802C38.222 40.1843 37.688 40.5473 37.4602 41.1091C37.4601 41.1093 37.46 41.1095 37.46 41.1097L36.4746 43.5635L36.4742 43.5644C36.1845 44.2817 36.5024 45.1083 37.2007 45.4489C37.2009 45.449 37.2011 45.4491 37.2013 45.4492L39.3468 46.4864L39.8862 46.631ZM39.8862 46.631C39.7003 46.6164 39.5156 46.5679 39.347 46.4865L39.8862 46.631Z" fill="#110A1D" stroke="black"/>
<path d="M58.6045 45.8816L58.6045 45.8816L58.6032 45.8798L57.2144 43.9223L57.2144 43.9223L57.2132 43.9206C56.9745 43.5871 56.888 43.1619 56.9736 42.7552C57.0583 42.353 57.3135 41.9984 57.6703 41.79L57.6712 41.7894L60.3112 40.2396L60.3113 40.2395C60.5341 40.1086 60.7898 40.0374 61.0489 40.0335C61.6511 40.0307 62.1922 40.3879 62.4266 40.9448C62.4266 40.945 62.4267 40.9452 62.4268 40.9453L63.4214 43.3276C63.4214 43.3277 63.4214 43.3278 63.4215 43.3279C63.7191 44.0438 63.4092 44.878 62.7205 45.2244C62.7204 45.2245 62.7202 45.2246 62.7201 45.2247L60.4761 46.3467C60.2692 46.448 60.0414 46.5033 59.8258 46.5033H59.8211C59.334 46.5033 58.8776 46.2702 58.6045 45.8816Z" fill="#110A1D" stroke="black"/>
<path d="M37.8404 61.5896L37.6876 61.5907C36.7538 61.5373 35.9305 60.9289 35.6074 60.0376L35.6073 60.0372L31.0145 47.3964L30.8253 46.8758L30.3268 47.1171C30.0675 47.2425 29.7871 47.3408 29.4973 47.4143C29.1628 47.4989 28.8249 47.5411 28.4827 47.5411C28.2733 47.5411 28.0789 47.5321 27.8947 47.5076L27.8915 47.5072C25.7476 47.2355 24.1183 45.3948 24.1056 43.2274L24.1056 43.2268C24.0886 40.83 26.0273 38.8654 28.4247 38.8484C30.8211 38.8314 32.7848 40.7693 32.7983 43.1652C32.7982 43.7239 32.7036 44.2533 32.5106 44.7442L32.5102 44.7452C32.4036 45.0183 32.2707 45.2802 32.1151 45.5308L31.8223 46.0026L32.3221 46.2445L41.0574 50.4724L41.4432 50.6591L41.6867 50.3063L48.3698 40.6231L48.7183 40.1181L48.1533 39.8787C47.9039 39.773 47.6631 39.642 47.4351 39.4858L47.4326 39.4841C46.9975 39.1898 46.6191 38.8239 46.3134 38.3951C45.794 37.6626 45.5144 36.8006 45.5101 35.9098L45.5101 35.9086C45.4931 33.5125 47.4309 31.5482 49.8275 31.5303C49.9489 31.5303 50.0514 31.5306 50.146 31.5382L50.146 31.5382L50.1523 31.5386C52.2975 31.683 54.0326 33.4056 54.19 35.5502C54.2623 36.5687 53.9948 37.5398 53.4168 38.3692C53.1093 38.8045 52.735 39.174 52.3069 39.4665L52.3069 39.4664L52.3027 39.4693C52.0818 39.6236 51.8425 39.754 51.5929 39.8597L51.0203 40.1024L51.3802 40.6095L58.1817 50.1932L58.4298 50.5428L58.8131 50.351L67.4062 46.0521L67.8616 45.8243L67.6256 45.3732C67.4807 45.0961 67.3655 44.8062 67.2801 44.503C67.1781 44.1373 67.1233 43.7561 67.1233 43.3725C67.1233 43.1953 67.1319 43.0187 67.1489 42.8472C67.3968 40.6642 69.2409 39.0081 71.437 38.9953L71.4376 38.9953C73.8345 38.9783 75.7985 40.917 75.8112 43.3135L75.8113 43.3146C75.8282 45.5977 74.0553 47.5175 71.7785 47.6791L71.4928 47.688C71.0486 47.6874 70.6175 47.6273 70.2018 47.5016C69.9243 47.4147 69.6633 47.3086 69.4242 47.1768L68.9053 46.8904L68.7105 47.4502L64.3973 59.8446L64.3968 59.8461C64.0733 60.7854 63.1824 61.4207 62.1829 61.4285L37.8404 61.5896Z" fill="#110A1D" stroke="black"/>
</svg>
