<svg width="100" height="100" viewBox="0 0 100 100" fill="none" xmlns="http://www.w3.org/2000/svg">
<path d="M49.967 99.6207C22.6444 99.6207 0.421875 77.3879 0.421875 50.0756C0.421875 22.7633 22.6548 0.530518 49.967 0.530518C77.2793 0.530518 99.5121 22.7633 99.5121 50.0756C99.5121 77.3879 77.2793 99.6207 49.967 99.6207ZM49.967 3.83004C24.4659 3.83004 3.72139 24.5744 3.72139 50.0756C3.72139 75.5768 24.4659 96.3212 49.967 96.3212C75.4682 96.3212 96.2126 75.5768 96.2126 50.0756C96.2126 24.5744 75.4682 3.83004 49.967 3.83004Z" fill="#478BF9"/>
<path d="M82.2878 14.7288L66.9495 30.0671L69.9671 33.0848L85.3054 17.7465L82.2878 14.7288Z" fill="#478BF9"/>
<path d="M29.4945 67.5206L14.1562 82.8589L17.1738 85.8765L32.5121 70.5382L29.4945 67.5206Z" fill="#478BF9"/>
<path d="M70.4319 67.5356L67.4143 70.5532L82.7526 85.8915L85.7702 82.8738L70.4319 67.5356Z" fill="#478BF9"/>
<path d="M17.1702 14.2671L14.1526 17.2847L29.4835 32.6156L32.5011 29.598L17.1702 14.2671Z" fill="#478BF9"/>
<path d="M62.0511 51.4078C63.0503 50.4085 63.0503 48.7952 62.0511 47.8064L59.9277 45.6934C58.9285 44.6942 57.3152 44.6942 56.3264 45.6934L55.1814 46.8384L53.8595 45.5164C52.8603 44.5172 51.2469 44.5172 50.2581 45.5164L49.1132 46.6718L47.7913 45.3395C46.792 44.3403 45.1787 44.3403 44.1899 45.3395L37.164 52.3653C37.112 52.4174 37.112 52.5007 37.164 52.5631C38.1008 53.4999 39.6309 53.4999 40.5781 52.5631L45.1058 48.0354C45.595 47.5462 46.3861 47.5462 46.8753 48.0354L47.2084 48.3684C47.2708 48.4308 47.2708 48.5245 47.2084 48.587L43.4301 52.3653C43.378 52.4174 43.378 52.5007 43.4301 52.5631C44.3668 53.4999 45.8969 53.4999 46.8441 52.5631L51.1845 48.2227C51.6737 47.7335 52.4648 47.7335 52.954 48.2227L53.2871 48.5558C53.3391 48.6078 53.3391 48.6911 53.2871 48.7536L49.644 52.3966C49.592 52.4486 49.592 52.5319 49.644 52.5944C50.5808 53.5311 52.1109 53.5311 53.058 52.5944L57.2527 48.3997C57.742 47.9104 58.533 47.9104 59.0222 48.3997L59.7404 49.1178C60.0214 49.3989 60.0214 49.8673 59.7404 50.1483L59.6259 50.2628C59.3449 50.5438 58.8765 50.5438 58.5954 50.2628L57.6691 49.3365C57.617 49.2844 57.5337 49.2844 57.4713 49.3365L55.8684 50.9394C55.8163 50.9914 55.8163 51.0747 55.8684 51.1371L57.3152 52.5839C58.3144 53.5832 59.9277 53.5832 60.9165 52.5839L62.0615 51.439L62.0511 51.4078Z" fill="#478BF9"/>
<path d="M49.9681 12.084C28.9843 12.084 11.9766 29.0917 11.9766 50.0755C11.9766 71.0593 28.9843 88.067 49.9681 88.067C70.9519 88.067 87.9596 71.0593 87.9596 50.0755C87.9596 29.0917 70.9519 12.084 49.9681 12.084ZM51.519 23.8145C57.6184 24.1684 63.1558 26.604 67.4442 30.4136L61.9588 35.8989C59.0964 33.4737 55.4846 31.9021 51.519 31.569V23.8145ZM48.4276 23.8145V31.569C44.4619 31.8917 40.8501 33.4737 37.9877 35.8989L32.5024 30.4136C36.7907 26.604 42.3281 24.1684 48.4276 23.8145ZM30.3166 32.5994L35.8019 38.0848C33.3767 40.9472 31.805 44.5589 31.4719 48.5246H23.7175C24.0714 42.4252 26.507 36.8878 30.3166 32.5994ZM23.7175 51.616H31.4719C31.7946 55.5817 33.3767 59.1935 35.8019 62.0559L30.3166 67.5412C26.507 63.2529 24.0714 57.7155 23.7175 51.616ZM48.4276 76.3261C42.3281 75.9722 36.7907 73.5366 32.5024 69.727L37.9877 64.2416C40.8501 66.6669 44.4619 68.2386 48.4276 68.5717V76.3261ZM34.0012 50.0651C34.0012 41.249 41.152 34.0983 49.9681 34.0983C58.7842 34.0983 65.9349 41.249 65.9349 50.0651C65.9349 58.8812 58.7842 66.032 49.9681 66.032C41.152 66.032 34.0012 58.8812 34.0012 50.0651ZM51.519 76.3261V68.5717C55.4846 68.249 59.0964 66.6669 61.9588 64.2416L67.4442 69.727C63.1558 73.5366 57.6184 75.9722 51.519 76.3261ZM69.6299 67.5412L64.1446 62.0559C66.5698 59.1935 68.1415 55.5817 68.4746 51.616H76.229C75.8752 57.7155 73.4395 63.2529 69.6299 67.5412ZM68.4746 48.5246C68.1519 44.5589 66.5698 40.9472 64.1446 38.0848L69.6299 32.5994C73.4395 36.8878 75.8752 42.4252 76.229 48.5246H68.4746Z" fill="#478BF9"/>
</svg>
