<svg width="100" height="100" viewBox="0 0 100 100" fill="none" xmlns="http://www.w3.org/2000/svg">
<path d="M49.5529 99.9325C36.8544 99.9325 24.1663 95.1029 14.4966 85.4332C-4.83221 66.1044 -4.83221 34.6599 14.4966 15.3311C23.8644 5.96332 36.3131 0.811035 49.5529 0.811035C62.7927 0.811035 75.2414 5.96332 84.6092 15.3311C103.938 34.6599 103.938 66.1044 84.6092 85.4332C74.95 95.0925 62.2514 99.9325 49.5529 99.9325ZM17.0988 82.8311C34.9912 100.724 64.1042 100.724 81.9966 82.8311C99.8891 64.9386 99.8891 35.8257 81.9966 17.9333C73.3262 9.26286 61.8039 4.49573 49.5425 4.49573C37.2811 4.49573 25.7588 9.27327 17.0884 17.9333C-0.804078 35.8257 -0.804078 64.9386 17.0884 82.8311H17.0988Z" fill="#9DADF2"/>
<path d="M48.8972 68.9355C49.0742 69.3622 49.4905 69.6121 49.9277 69.6121C50.0734 69.6121 50.2192 69.5808 50.3649 69.5288C53.8622 68.0612 57.0472 65.7921 59.5661 62.9609C59.972 62.5029 59.9304 61.7951 59.4724 61.3892C59.0145 60.9833 58.3067 61.0249 57.9007 61.4829C55.6004 64.0747 52.6964 66.1459 49.501 67.4782C48.9389 67.7176 48.6683 68.3734 48.9077 68.9355H48.8972Z" fill="#9DADF2"/>
<path d="M68.4432 33.2441L49.9575 25.8539C49.6869 25.7499 49.3954 25.7499 49.1248 25.8539L30.6391 33.2441C30.2123 33.4107 29.9417 33.8166 29.9417 34.2746V47.5143C29.9625 59.734 37.6857 70.7776 49.156 74.9827C49.2809 75.0243 49.4058 75.0452 49.5411 75.0452C49.6764 75.0452 49.8013 75.0243 49.9262 74.9827C61.3966 70.7672 69.1198 59.734 69.1406 47.5143V34.2746C69.1406 33.8166 68.87 33.4107 68.4432 33.2441ZM66.9131 47.5143C66.8923 58.6307 59.9186 68.7583 49.5515 72.7448C39.1845 68.7583 32.2003 58.6307 32.1795 47.5143V35.0344L49.5515 28.0918L66.9131 35.0344V47.5143Z" fill="#9DADF2"/>
<path d="M41.8288 34.9824C41.5581 34.8679 41.2563 34.8679 40.9753 34.9824L36.5724 36.7414C36.1457 36.908 35.875 37.3139 35.875 37.7719V42.4662C35.875 43.0803 36.3746 43.5799 36.9887 43.5799C37.6028 43.5799 38.1025 43.0803 38.1025 42.4662V38.5317L41.7975 37.0537C42.0785 36.9392 42.2867 36.731 42.4117 36.4499C42.5261 36.1793 42.5261 35.8775 42.4117 35.5964C42.2972 35.3154 42.089 35.1073 41.8184 34.9824H41.8288Z" fill="#9DADF2"/>
<path d="M77.6962 22.2319C70.1812 14.7065 60.1785 10.5742 49.5409 10.5742C38.9033 10.5742 28.911 14.7169 21.3855 22.2319C5.86628 37.7512 5.86628 63.0129 21.3855 78.5426C29.1504 86.3074 39.3404 90.1794 49.5409 90.1794C59.7414 90.1794 69.9314 86.297 77.6962 78.5426C93.2155 63.0233 93.2155 37.7616 77.6962 22.2319ZM72.1901 47.5145C72.2213 61.639 63.197 73.994 49.7387 78.272C49.6138 78.3136 49.4784 78.3136 49.3431 78.272C35.8848 73.994 26.8605 61.639 26.8917 47.5145V31.8911C26.8917 31.6309 27.0478 31.3915 27.2976 31.2874L49.3015 22.4921C49.3744 22.4609 49.4576 22.4505 49.5409 22.4505C49.6242 22.4505 49.7074 22.4609 49.7803 22.4921L71.7841 31.2978C72.0339 31.3915 72.1901 31.6309 72.1901 31.9015V47.5249V47.5145Z" fill="#9DADF2"/>
</svg>
