<svg width="100" height="100" viewBox="0 0 100 100" fill="none" xmlns="http://www.w3.org/2000/svg">
<path d="M49.6975 99.3893C22.3748 99.3893 0.152344 77.1564 0.152344 49.8442C0.152344 22.5319 22.3852 0.299072 49.6975 0.299072C77.0098 0.299072 99.2426 22.5319 99.2426 49.8442C99.2426 77.1564 77.0098 99.3893 49.6975 99.3893ZM49.6975 3.59859C24.1963 3.59859 3.45193 24.343 3.45193 49.8442C3.45193 75.3453 24.1963 96.0897 49.6975 96.0897C75.1986 96.0897 95.9431 75.3453 95.9431 49.8442C95.9431 24.343 75.1986 3.59859 49.6975 3.59859Z" fill="white"/>
<path d="M65.768 18.8995C65.5182 18.8995 65.2684 18.8474 65.0394 18.733C60.241 16.3598 55.0783 15.1524 49.6971 15.1524C44.3158 15.1524 39.1531 16.3598 34.3547 18.733C33.7198 19.0452 32.96 18.9203 32.4604 18.4206L23.9461 9.90639C23.5818 9.54208 23.4152 9.04246 23.4777 8.53244C23.5401 8.02242 23.8316 7.57486 24.2688 7.31465C31.9399 2.71403 40.7352 0.288818 49.7075 0.288818C58.6797 0.288818 67.475 2.72444 75.1462 7.31465C75.5833 7.57486 75.8747 8.02242 75.9372 8.53244C75.9996 9.04246 75.8227 9.54208 75.4688 9.90639L66.9545 18.4206C66.6319 18.7329 66.2156 18.8995 65.7784 18.8995H65.768ZM49.6971 11.8528C55.1824 11.8528 60.47 12.9978 65.4245 15.2564L71.5864 9.09455C64.8832 5.48275 57.3578 3.58834 49.6971 3.58834C42.0363 3.58834 34.5108 5.48275 27.8077 9.09455L33.9696 15.2564C38.9241 12.9978 44.2117 11.8528 49.6971 11.8528Z" fill="white"/>
<path d="M49.6953 99.3893C40.723 99.3893 31.9277 96.9537 24.2566 92.3635C23.8194 92.1032 23.5279 91.6556 23.4655 91.1456C23.403 90.6356 23.58 90.136 23.9339 89.7717L32.4481 81.2574C32.9478 80.7578 33.718 80.6329 34.3425 80.9451C39.1409 83.3183 44.3036 84.5257 49.6848 84.5257C55.0661 84.5257 60.2288 83.3183 65.0272 80.9451C65.6621 80.6329 66.4219 80.7578 66.9215 81.2574L75.4358 89.7717C75.8001 90.136 75.9667 90.6356 75.9042 91.1456C75.8417 91.6556 75.5503 92.1032 75.1131 92.3635C67.442 96.9641 58.6467 99.3893 49.6744 99.3893H49.6953ZM27.8059 90.5836C34.509 94.1954 42.0345 96.0897 49.6953 96.0897C57.356 96.0897 64.8814 94.1954 71.5846 90.5836L65.4227 84.4217C60.4682 86.6803 55.1806 87.8252 49.6953 87.8252C44.2099 87.8252 38.9223 86.6803 33.9678 84.4217L27.8059 90.5836Z" fill="white"/>
<path d="M90.8031 76.074C90.366 76.074 89.9496 75.9075 89.6374 75.5952L81.1231 67.081C80.6235 66.5814 80.4986 65.8111 80.8109 65.1866C83.184 60.3882 84.3914 55.2255 84.3914 49.8443C84.3914 44.463 83.184 39.3003 80.8109 34.502C80.4986 33.867 80.6235 33.0968 81.1231 32.6076L89.6374 24.0933C90.0017 23.729 90.5013 23.5625 91.0113 23.6249C91.5213 23.6874 91.9689 23.9788 92.2291 24.416C96.8297 32.0871 99.2549 40.8824 99.2549 49.8547C99.2549 58.8269 96.8297 67.6222 92.2291 75.2934C91.9689 75.7306 91.5213 76.022 91.0113 76.0845C90.9385 76.0845 90.876 76.0845 90.8031 76.0845V76.074ZM84.2769 65.5613L90.4389 71.7232C94.0507 65.0201 95.945 57.4946 95.945 49.8339C95.945 42.1731 94.0507 34.6477 90.4389 27.9445L84.2769 34.1064C86.5356 39.0609 87.6805 44.3485 87.6805 49.8339C87.6805 55.3192 86.5356 60.6068 84.2769 65.5613Z" fill="white"/>
<path d="M8.5938 76.0741C8.52094 76.0741 8.45848 76.0741 8.39603 76.0636C7.88601 76.0012 7.43839 75.7097 7.17817 75.2726C2.57756 67.6014 0.152344 58.8061 0.152344 49.8339C0.152344 40.8616 2.57756 32.0664 7.17817 24.3952C7.43839 23.9581 7.88601 23.6666 8.39603 23.6042C8.90605 23.5417 9.40567 23.7186 9.76998 24.0725L18.2842 32.5868C18.7838 33.0864 18.9087 33.8566 18.5965 34.4811C16.2233 39.2795 15.0159 44.4423 15.0159 49.8235C15.0159 55.2048 16.2233 60.3675 18.5965 65.1658C18.9087 65.8008 18.7838 66.571 18.2842 67.0602L9.76998 75.5745C9.45772 75.8867 9.04131 76.0636 8.60415 76.0636L8.5938 76.0741ZM8.95807 27.9445C5.34628 34.6477 3.45193 42.1731 3.45193 49.8339C3.45193 57.4946 5.34628 65.0201 8.95807 71.7233L15.12 65.5614C12.8613 60.6069 11.7164 55.3192 11.7164 49.8339C11.7164 44.3485 12.8613 39.0609 15.12 34.1064L8.95807 27.9445Z" fill="white"/>
<path d="M49.6985 11.8528C28.7564 11.8528 11.707 28.8917 11.707 49.8443C11.707 70.7969 28.746 87.8358 49.6985 87.8358C70.6511 87.8358 87.6901 70.7969 87.6901 49.8443C87.6901 28.8917 70.6511 11.8528 49.6985 11.8528ZM71.0779 37.3644C72.8786 40.4453 73.9715 43.8073 74.3254 47.3775C74.3358 47.5232 74.2733 47.6585 74.1484 47.7314C71.4318 49.3968 68.9961 51.4368 66.8936 53.8204C66.7999 53.9349 66.6438 53.9766 66.5085 53.9245L61.8142 52.3944C61.6789 52.3528 61.5852 52.2383 61.5644 52.0926C61.0335 48.2102 59.8262 44.4943 57.9734 41.0386C57.911 40.9137 57.9214 40.768 58.0046 40.6535L60.9086 36.6566C60.9815 36.5629 61.096 36.5004 61.2105 36.5004C61.2417 36.5004 61.2626 36.5004 61.2938 36.5004C64.3956 37.1874 67.5806 37.4164 70.7448 37.1562C70.8905 37.1458 71.0258 37.2186 71.0987 37.3435L71.0779 37.3644ZM59.0039 52.7484C59.0143 52.8524 58.983 52.9565 58.9206 53.0293C56.4537 55.8709 53.3104 58.1504 49.8443 59.6076C49.7506 59.6492 49.6569 59.6492 49.5632 59.6076C46.0972 58.14 42.9537 55.8605 40.4869 53.0293C40.4244 52.9565 40.3932 52.8524 40.4036 52.7484C40.8824 48.9804 42.0586 45.379 43.8801 42.0482C43.9321 41.9546 44.0154 41.8921 44.1195 41.8713C45.9515 41.4862 47.825 41.2884 49.709 41.2884C51.5929 41.2884 53.4665 41.4862 55.2984 41.8713C55.4025 41.8921 55.4857 41.9546 55.5378 42.0482C57.3593 45.379 58.5251 48.9804 59.0143 52.7484H59.0039ZM58.4418 26.9141C58.4418 26.9141 58.5667 26.81 58.6916 26.81C58.7333 26.81 58.7853 26.81 58.8373 26.8412C62.6677 28.3609 66.0921 30.859 68.7568 34.0544C68.8921 34.2105 68.84 34.3771 68.8088 34.4395C68.788 34.4916 68.6943 34.6581 68.4757 34.6581C66.1129 34.6894 63.7606 34.4187 61.4811 33.8775C61.3875 33.8567 61.3042 33.7942 61.2521 33.7109C60.0343 31.7021 59.0559 29.5371 58.3481 27.2888C58.2857 27.091 58.4001 26.9557 58.4522 26.9141H58.4418ZM44.4422 25.6651C47.8875 24.926 51.5201 24.926 54.9653 25.6651C55.1006 25.6963 55.2151 25.8004 55.2463 25.9357C55.9853 29.0271 57.1823 31.9831 58.7957 34.7206C58.8685 34.8455 58.8581 35.0016 58.7748 35.1265L55.8917 39.1026C55.8084 39.2171 55.6627 39.2795 55.5274 39.2483C51.7178 38.4781 47.6897 38.4781 43.8801 39.2483C43.7448 39.2795 43.5991 39.2171 43.5158 39.1026L40.6326 35.1265C40.5493 35.012 40.5389 34.8455 40.6118 34.7206C42.2251 31.9831 43.4221 29.0271 44.1611 25.9357C44.1924 25.8004 44.3069 25.6963 44.4422 25.6651ZM30.6508 34.0544C33.3154 30.8486 36.7398 28.3505 40.5702 26.8412C40.6222 26.8204 40.6743 26.81 40.7159 26.81C40.8512 26.81 40.9345 26.8829 40.9657 26.9141C41.0177 26.9662 41.1322 27.091 41.0698 27.2888C40.362 29.5475 39.3836 31.7021 38.1658 33.7109C38.1137 33.7942 38.0305 33.8567 37.9368 33.8775C35.6573 34.4187 33.3049 34.6894 30.9422 34.6581C30.7236 34.6581 30.6299 34.4916 30.6091 34.4395C30.5779 34.3771 30.5258 34.2105 30.6611 34.0544H30.6508ZM28.3296 37.3644C28.392 37.2499 28.5169 37.177 28.6523 37.177C28.6523 37.177 28.6731 37.177 28.6835 37.177C31.8581 37.4268 35.0432 37.2082 38.1346 36.5213C38.2803 36.49 38.426 36.5421 38.5093 36.667L41.4133 40.6639C41.4965 40.7784 41.507 40.9346 41.4445 41.0491C39.5918 44.5047 38.3844 48.2206 37.8535 52.103C37.8327 52.2383 37.739 52.3528 37.6037 52.4048L32.9094 53.9349C32.7741 53.9765 32.618 53.9349 32.5243 53.8308C30.4218 51.4472 27.9861 49.4072 25.2694 47.7418C25.155 47.6689 25.0821 47.5336 25.0925 47.3879C25.4464 43.8177 26.5393 40.4453 28.34 37.3748L28.3296 37.3644ZM29.4642 63.0113C29.4017 63.209 29.2248 63.2506 29.1519 63.261C29.0791 63.261 28.9125 63.2611 28.798 63.0945C26.581 59.6076 25.2694 55.5691 25.0092 51.4264C24.9988 51.2183 25.1341 51.1142 25.1966 51.0829C25.259 51.0517 25.4256 50.9789 25.5921 51.1038C27.5177 52.4673 29.2664 54.0702 30.7964 55.8501C30.8589 55.923 30.8901 56.0167 30.8797 56.1207C30.6924 58.4627 30.2136 60.7838 29.4537 63.0217L29.4642 63.0113ZM39.7479 72.5143C36.5004 71.0884 33.638 68.9962 31.244 66.3108C31.1503 66.2067 31.1191 66.0506 31.1712 65.9257C32.389 62.9904 33.1592 59.899 33.461 56.7348C33.4714 56.5891 33.5756 56.4642 33.7109 56.4226L38.3531 54.9133C38.3531 54.9133 38.426 54.8925 38.4676 54.8925C38.5717 54.8925 38.6654 54.9342 38.7382 55.0174C41.3404 57.9318 44.5983 60.305 48.1684 61.8767C48.3038 61.9391 48.3871 62.064 48.3871 62.2098V67.0914C48.3871 67.2371 48.3038 67.3725 48.1684 67.4245C45.254 68.6839 42.5478 70.3806 40.1226 72.4519C40.0185 72.5456 39.8624 72.5664 39.7375 72.5039L39.7479 72.5143ZM56.1207 73.5448C56.1103 73.6176 56.0582 73.7842 55.85 73.8363C51.8323 74.8563 47.5856 74.8563 43.5678 73.8363C43.3701 73.7842 43.3076 73.6176 43.2972 73.5448C43.2868 73.4719 43.266 73.3054 43.4429 73.1701C45.3373 71.7649 47.3982 70.5887 49.5737 69.6832C49.6673 69.6415 49.761 69.6415 49.8546 69.6832C52.0196 70.5887 54.0806 71.7649 55.9853 73.1701C56.1519 73.295 56.1415 73.4719 56.1311 73.5448H56.1207ZM68.1843 66.3212C65.7903 69.0066 62.9279 71.0884 59.6804 72.5143C59.5451 72.5768 59.3994 72.5456 59.2953 72.4623C56.8701 70.391 54.1743 68.6944 51.2494 67.4349C51.1141 67.3725 51.0308 67.2476 51.0308 67.1018V62.2202C51.0308 62.0745 51.1141 61.9391 51.2494 61.8871C54.8196 60.3154 58.0879 57.9423 60.6796 55.0278C60.7525 54.9446 60.8462 54.9029 60.9503 54.9029C60.9919 54.9029 61.0231 54.9029 61.0648 54.9237L65.707 56.433C65.8423 56.4746 65.9464 56.5995 65.9568 56.7452C66.2587 59.9095 67.0289 62.9904 68.2467 65.9361C68.2988 66.061 68.278 66.2171 68.1739 66.3212H68.1843ZM70.6199 63.1049C70.5054 63.2818 70.3285 63.2819 70.266 63.2715C70.1932 63.2715 70.0266 63.2194 69.9537 63.0217C69.2043 60.7838 68.7255 58.4627 68.5277 56.1207C68.5277 56.0271 68.5486 55.923 68.611 55.8501C70.1411 54.0702 71.8897 52.4777 73.8153 51.1038C73.8882 51.0517 73.9611 51.0309 74.0235 51.0309C74.1068 51.0309 74.1692 51.0621 74.2109 51.0829C74.2733 51.1142 74.419 51.2183 74.3982 51.4264C74.138 55.5691 72.8265 59.6076 70.6095 63.0945L70.6199 63.1049Z" fill="white"/>
</svg>
